<?xml version="1.0" encoding="UTF-8" standalone="no"?><svg xmlns="http://www.w3.org/2000/svg" xmlns:xlink="http://www.w3.org/1999/xlink" clip-rule="evenodd" stroke-miterlimit="10" viewBox="0 0 1920 1080"><desc>SVG generated by Keynote</desc><defs></defs><g transform="matrix(1.00, 0.00, -0.00, -1.00, 0.0, 1080.0)"><path d="M 0.0 1080.0 L 1920.0 1080.0 L 1920.0 0.0 L 0.0 0.0 Z M 0.0 1080.0 " fill="#FEFFFF"></path><text xml:space="preserve" font-family="SegoeUI-Light,Segoe UI" font-size="100.0" fill="#A6AAA8" transform="matrix(1.00, 0.00, -0.00, -1.00, 1147.9, 958.9)">T</text><text xml:space="preserve" font-family="SegoeUI-Light,Segoe UI" font-size="100.0" fill="#A6AAA8" transform="matrix(1.00, 0.00, -0.00, -1.00, 1199.1, 958.9)">h</text><text xml:space="preserve" font-family="SegoeUI-Light,Segoe UI" font-size="100.0" fill="#A6AAA8" transform="matrix(1.00, 0.00, -0.00, -1.00, 1252.6, 958.9)">i</text><text xml:space="preserve" font-family="SegoeUI-Light,Segoe UI" font-size="100.0" fill="#A6AAA8" transform="matrix(1.00, 0.00, -0.00, -1.00, 1273.1, 958.9)">n</text><text xml:space="preserve" font-family="SegoeUI-Light,Segoe UI" font-size="100.0" fill="#A6AAA8" transform="matrix(1.00, 0.00, -0.00, -1.00, 1326.7, 958.9)">g</text><text xml:space="preserve" font-family="SegoeUI-Light,Segoe UI" font-size="100.0" fill="#A6AAA8" transform="matrix(1.00, 0.00, -0.00, -1.00, 1382.7, 958.9)">s</text><text xml:space="preserve" font-family="SegoeUI-Light,Segoe UI" font-size="100.0" fill="#A6AAA8" transform="matrix(1.00, 0.00, -0.00, -1.00, 1421.5, 958.9)"> </text><text xml:space="preserve" font-family="SegoeUI-Light,Segoe UI" font-size="100.0" fill="#A6AAA8" transform="matrix(1.00, 0.00, -0.00, -1.00, 1448.9, 958.9)">y</text><text xml:space="preserve" font-family="SegoeUI-Light,Segoe UI" font-size="100.0" fill="#A6AAA8" transform="matrix(1.00, 0.00, -0.00, -1.00, 1494.2, 958.9)">o</text><text xml:space="preserve" font-family="SegoeUI-Light,Segoe UI" font-size="100.0" fill="#A6AAA8" transform="matrix(1.00, 0.00, -0.00, -1.00, 1550.3, 958.9)">u</text><text xml:space="preserve" font-family="SegoeUI-Light,Segoe UI" font-size="100.0" fill="#A6AAA8" transform="matrix(1.00, 0.00, -0.00, -1.00, 1603.8, 958.9)">’</text><text xml:space="preserve" font-family="SegoeUI-Light,Segoe UI" font-size="100.0" fill="#A6AAA8" transform="matrix(1.00, 0.00, -0.00, -1.00, 1625.2, 958.9)">l</text><text xml:space="preserve" font-family="SegoeUI-Light,Segoe UI" font-size="100.0" fill="#A6AAA8" transform="matrix(1.00, 0.00, -0.00, -1.00, 1645.7, 958.9)">l</text><text xml:space="preserve" font-family="SegoeUI-Light,Segoe UI" font-size="100.0" fill="#A6AAA8" transform="matrix(1.00, 0.00, -0.00, -1.00, 1666.3, 958.9)"> </text><text xml:space="preserve" font-family="SegoeUI-Light,Segoe UI" font-size="100.0" fill="#A6AAA8" transform="matrix(1.00, 0.00, -0.00, -1.00, 1693.6, 958.9)">n</text><text xml:space="preserve" font-family="SegoeUI-Light,Segoe UI" font-size="100.0" fill="#A6AAA8" transform="matrix(1.00, 0.00, -0.00, -1.00, 1747.2, 958.9)">e</text><text xml:space="preserve" font-family="SegoeUI-Light,Segoe UI" font-size="100.0" fill="#A6AAA8" transform="matrix(1.00, 0.00, -0.00, -1.00, 1797.7, 958.9)">e</text><text xml:space="preserve" font-family="SegoeUI-Light,Segoe UI" font-size="100.0" fill="#A6AAA8" transform="matrix(1.00, 0.00, -0.00, -1.00, 1848.1, 958.9)">d</text><path d="M 71.0 988.0 L 71.0 962.8 L 23.1 1000.3 L 71.0 1037.8 L 71.0 1012.0 L 84.0 1012.0 L 84.0 988.0 Z M 71.1 988.3 " fill="#3C3E3D"></path><path d="M 146.0 988.0 L 146.0 962.8 L 97.5 1000.3 L 146.0 1037.8 L 146.0 1012.0 L 158.0 1012.0 L 158.0 988.0 Z M 145.5 988.3 " fill="#A6AAA8"></path><image xlink:href="../../DE19AA03-BC0D-44F1-9870-B853CB7D3353/assets/D494570E11B83B5E37815A648B0417CD.jpeg" width="2413.00" height="1609.00" transform="matrix(0.13, 0.00, -0.00, -0.13, 151.0, 836.0)"></image><path d="M -0.1 0.1 L 324.9 0.1 L 324.9 217.1 L -0.1 217.1 Z M -0.1 0.1 " fill="none" stroke="#000000" stroke-width="2.00" transform="matrix(1.00, 0.00, 0.00, -1.00, 151.1, 836.1)"></path><text xml:space="preserve" font-family="SegoeUI-Semibold,Segoe UI" font-weight="bold" font-size="30.0" fill="#000000" transform="matrix(1.00, 0.00, -0.00, -1.00, 222.3, 572.7)">1</text><text xml:space="preserve" font-family="SegoeUI-Semibold,Segoe UI" font-weight="bold" font-size="30.0" fill="#000000" transform="matrix(1.00, 0.00, -0.00, -1.00, 234.4, 572.7)">x</text><text xml:space="preserve" font-family="SegoeUI-Light,Segoe UI" font-size="30.0" fill="#000000" transform="matrix(1.00, 0.00, -0.00, -1.00, 257.7, 572.7)">b</text><text xml:space="preserve" font-family="SegoeUI-Light,Segoe UI" font-size="30.0" fill="#000000" transform="matrix(1.00, 0.00, -0.00, -1.00, 274.5, 572.7)">r</text><text xml:space="preserve" font-family="SegoeUI-Light,Segoe UI" font-size="30.0" fill="#000000" transform="matrix(1.00, 0.00, -0.00, -1.00, 283.8, 572.7)">e</text><text xml:space="preserve" font-family="SegoeUI-Light,Segoe UI" font-size="30.0" fill="#000000" transform="matrix(1.00, 0.00, -0.00, -1.00, 298.9, 572.7)">a</text><text xml:space="preserve" font-family="SegoeUI-Light,Segoe UI" font-size="30.0" fill="#000000" transform="matrix(1.00, 0.00, -0.00, -1.00, 313.7, 572.7)">d</text><text xml:space="preserve" font-family="SegoeUI-Light,Segoe UI" font-size="30.0" fill="#000000" transform="matrix(1.00, 0.00, -0.00, -1.00, 330.5, 572.7)">b</text><text xml:space="preserve" font-family="SegoeUI-Light,Segoe UI" font-size="30.0" fill="#000000" transform="matrix(1.00, 0.00, -0.00, -1.00, 347.3, 572.7)">o</text><text xml:space="preserve" font-family="SegoeUI-Light,Segoe UI" font-size="30.0" fill="#000000" transform="matrix(1.00, 0.00, -0.00, -1.00, 364.2, 572.7)">a</text><text xml:space="preserve" font-family="SegoeUI-Light,Segoe UI" font-size="30.0" fill="#000000" transform="matrix(1.00, 0.00, -0.00, -1.00, 379.0, 572.7)">r</text><text xml:space="preserve" font-family="SegoeUI-Light,Segoe UI" font-size="30.0" fill="#000000" transform="matrix(1.00, 0.00, -0.00, -1.00, 388.3, 572.7)">d</text><text xml:space="preserve" font-family="SegoeUI-Semibold,Segoe UI" font-weight="bold" font-size="30.0" fill="#000000" transform="matrix(1.00, 0.00, -0.00, -1.00, 1254.9, 94.5)">1</text><text xml:space="preserve" font-family="SegoeUI-Semibold,Segoe UI" font-weight="bold" font-size="30.0" fill="#000000" transform="matrix(1.00, 0.00, -0.00, -1.00, 1267.0, 94.5)">x</text><text xml:space="preserve" font-family="SegoeUI-Light,Segoe UI" font-size="30.0" fill="#000000" transform="matrix(1.00, 0.00, -0.00, -1.00, 1290.2, 94.5)">g</text><text xml:space="preserve" font-family="SegoeUI-Light,Segoe UI" font-size="30.0" fill="#000000" transform="matrix(1.00, 0.00, -0.00, -1.00, 1307.0, 94.5)">a</text><text xml:space="preserve" font-family="SegoeUI-Light,Segoe UI" font-size="30.0" fill="#000000" transform="matrix(1.00, 0.00, -0.00, -1.00, 1321.8, 94.5)">l</text><text xml:space="preserve" font-family="SegoeUI-Light,Segoe UI" font-size="30.0" fill="#000000" transform="matrix(1.00, 0.00, -0.00, -1.00, 1328.0, 94.5)">i</text><text xml:space="preserve" font-family="SegoeUI-Light,Segoe UI" font-size="30.0" fill="#000000" transform="matrix(1.00, 0.00, -0.00, -1.00, 1334.1, 94.5)">l</text><text xml:space="preserve" font-family="SegoeUI-Light,Segoe UI" font-size="30.0" fill="#000000" transform="matrix(1.00, 0.00, -0.00, -1.00, 1340.3, 94.5)">e</text><text xml:space="preserve" font-family="SegoeUI-Light,Segoe UI" font-size="30.0" fill="#000000" transform="matrix(1.00, 0.00, -0.00, -1.00, 1355.4, 94.5)">o</text><image xlink:href="../../DE19AA03-BC0D-44F1-9870-B853CB7D3353/assets/0C5BF94F612F550C1E4876145E92301F.jpeg" width="140.00" height="140.00" transform="matrix(2.41, 0.00, -0.00, -2.41, 497.0, 836.0)"></image><path d="M -0.2 0.2 L 337.8 0.2 L 337.8 338.2 L -0.2 338.2 Z M -0.2 0.2 " fill="none" stroke="#000000" stroke-width="2.00" transform="matrix(1.00, 0.00, 0.00, -1.00, 497.2, 836.2)"></path><text xml:space="preserve" font-family="SegoeUI-Semibold,Segoe UI" font-weight="bold" font-size="30.0" fill="#000000" transform="matrix(1.00, 0.00, -0.00, -1.00, 566.4, 455.4)">2</text><text xml:space="preserve" font-family="SegoeUI-Semibold,Segoe UI" font-weight="bold" font-size="30.0" fill="#000000" transform="matrix(1.00, 0.00, -0.00, -1.00, 583.0, 455.4)">x</text><text xml:space="preserve" font-family="SegoeUI-Light,Segoe UI" font-size="30.0" fill="#000000" transform="matrix(1.00, 0.00, -0.00, -1.00, 606.3, 455.4)">j</text><text xml:space="preserve" font-family="SegoeUI-Light,Segoe UI" font-size="30.0" fill="#000000" transform="matrix(1.00, 0.00, -0.00, -1.00, 612.4, 455.4)">u</text><text xml:space="preserve" font-family="SegoeUI-Light,Segoe UI" font-size="30.0" fill="#000000" transform="matrix(1.00, 0.00, -0.00, -1.00, 628.5, 455.4)">m</text><text xml:space="preserve" font-family="SegoeUI-Light,Segoe UI" font-size="30.0" fill="#000000" transform="matrix(1.00, 0.00, -0.00, -1.00, 653.1, 455.4)">p</text><text xml:space="preserve" font-family="SegoeUI-Light,Segoe UI" font-size="30.0" fill="#000000" transform="matrix(1.00, 0.00, -0.00, -1.00, 669.9, 455.4)">e</text><text xml:space="preserve" font-family="SegoeUI-Light,Segoe UI" font-size="30.0" fill="#000000" transform="matrix(1.00, 0.00, -0.00, -1.00, 685.1, 455.4)">r</text><text xml:space="preserve" font-family="SegoeUI-Light,Segoe UI" font-size="30.0" fill="#000000" transform="matrix(1.00, 0.00, -0.00, -1.00, 703.2, 455.4)">w</text><text xml:space="preserve" font-family="SegoeUI-Light,Segoe UI" font-size="30.0" fill="#000000" transform="matrix(1.00, 0.00, -0.00, -1.00, 723.5, 455.4)">i</text><text xml:space="preserve" font-family="SegoeUI-Light,Segoe UI" font-size="30.0" fill="#000000" transform="matrix(1.00, 0.00, -0.00, -1.00, 729.7, 455.4)">r</text><text xml:space="preserve" font-family="SegoeUI-Light,Segoe UI" font-size="30.0" fill="#000000" transform="matrix(1.00, 0.00, -0.00, -1.00, 739.0, 455.4)">e</text><text xml:space="preserve" font-family="SegoeUI-Light,Segoe UI" font-size="30.0" fill="#000000" transform="matrix(1.00, 0.00, -0.00, -1.00, 754.1, 455.4)">s</text><image xlink:href="../../DE19AA03-BC0D-44F1-9870-B853CB7D3353/assets/7310B438DB5B97377D44513DA9C8E578.jpeg" width="140.00" height="140.00" transform="matrix(2.31, 0.00, -0.00, -2.31, 152.0, 479.0)"></image><path d="M 0.4 -0.2 L 324.4 -0.2 L 324.4 323.8 L 0.4 323.8 Z M 0.4 -0.2 " fill="none" stroke="#000000" stroke-width="2.00" transform="matrix(1.00, 0.00, 0.00, -1.00, 151.6, 478.8)"></path><g><clipPath id="clip0x7f87421c6b10"><path d="M 232.3 89.9 L 395.2 89.9 L 395.2 128.9 L 232.3 128.9 Z M 232.3 89.9 "></path></clipPath><g clip-path="url(#clip0x7f87421c6b10)"><text xml:space="preserve" font-family="SegoeUI-Semibold,Segoe UI" font-weight="bold" font-size="30.0" fill="#000000" transform="matrix(1.00, 0.00, -0.00, -1.00, 265.8, 96.4)">1</text></g></g><g><clipPath id="clip0x7f8740751280"><path d="M 232.3 89.9 L 395.2 89.9 L 395.2 128.9 L 232.3 128.9 Z M 232.3 89.9 "></path></clipPath><g clip-path="url(#clip0x7f8740751280)"><text xml:space="preserve" font-family="SegoeUI-Semibold,Segoe UI" font-weight="bold" font-size="30.0" fill="#000000" transform="matrix(1.00, 0.00, -0.00, -1.00, 277.8, 96.4)">x</text></g></g><g><clipPath id="clip0x7f874077a710"><path d="M 232.3 89.9 L 395.2 89.9 L 395.2 128.9 L 232.3 128.9 Z M 232.3 89.9 "></path></clipPath><g clip-path="url(#clip0x7f874077a710)"><text xml:space="preserve" font-family="SegoeUI-Light,Segoe UI" font-size="30.0" fill="#000000" transform="matrix(1.00, 0.00, -0.00, -1.00, 301.1, 96.4)">L</text></g></g><g><clipPath id="clip0x7f87407e7730"><path d="M 232.3 89.9 L 395.2 89.9 L 395.2 128.9 L 232.3 128.9 Z M 232.3 89.9 "></path></clipPath><g clip-path="url(#clip0x7f87407e7730)"><text xml:space="preserve" font-family="SegoeUI-Light,Segoe UI" font-size="30.0" fill="#000000" transform="matrix(1.00, 0.00, -0.00, -1.00, 314.8, 96.4)">E</text></g></g><g><clipPath id="clip0x7f874075ebf0"><path d="M 232.3 89.9 L 395.2 89.9 L 395.2 128.9 L 232.3 128.9 Z M 232.3 89.9 "></path></clipPath><g clip-path="url(#clip0x7f874075ebf0)"><text xml:space="preserve" font-family="SegoeUI-Light,Segoe UI" font-size="30.0" fill="#000000" transform="matrix(1.00, 0.00, -0.00, -1.00, 329.8, 96.4)">D</text></g></g><g><clipPath id="clip0x7f87407824b0"><path d="M 232.3 89.9 L 395.2 89.9 L 395.2 128.9 L 232.3 128.9 Z M 232.3 89.9 "></path></clipPath><g clip-path="url(#clip0x7f87407824b0)"><text xml:space="preserve" font-family="SegoeUI-Light,Segoe UI" font-size="30.0" fill="#000000" transform="matrix(1.00, 0.00, -0.00, -1.00, 350.0, 96.4)">s</text></g></g><image xlink:href="../../DE19AA03-BC0D-44F1-9870-B853CB7D3353/assets/6C52AC26D5A431668CF23536DEA094D6.jpeg" width="1600.00" height="1182.00" transform="matrix(0.21, 0.00, -0.00, -0.21, 496.0, 406.0)"></image><path d="M -0.1 -0.1 L 339.9 -0.1 L 339.9 250.9 L -0.1 250.9 Z M -0.1 -0.1 " fill="none" stroke="#000000" stroke-width="2.00" transform="matrix(1.00, 0.00, 0.00, -1.00, 496.1, 405.9)"></path><text xml:space="preserve" font-family="SegoeUI-Semibold,Segoe UI" font-weight="bold" font-size="30.0" fill="#000000" transform="matrix(1.00, 0.00, -0.00, -1.00, 543.5, 90.1)">1</text><text xml:space="preserve" font-family="SegoeUI-Semibold,Segoe UI" font-weight="bold" font-size="30.0" fill="#000000" transform="matrix(1.00, 0.00, -0.00, -1.00, 555.5, 90.1)">x</text><text xml:space="preserve" font-family="SegoeUI-Light,Segoe UI" font-size="30.0" fill="#000000" transform="matrix(1.00, 0.00, -0.00, -1.00, 578.8, 90.1)">r</text><text xml:space="preserve" font-family="SegoeUI-Light,Segoe UI" font-size="30.0" fill="#000000" transform="matrix(1.00, 0.00, -0.00, -1.00, 588.1, 90.1)">e</text><text xml:space="preserve" font-family="SegoeUI-Light,Segoe UI" font-size="30.0" fill="#000000" transform="matrix(1.00, 0.00, -0.00, -1.00, 603.2, 90.1)">s</text><text xml:space="preserve" font-family="SegoeUI-Light,Segoe UI" font-size="30.0" fill="#000000" transform="matrix(1.00, 0.00, -0.00, -1.00, 614.9, 90.1)">i</text><text xml:space="preserve" font-family="SegoeUI-Light,Segoe UI" font-size="30.0" fill="#000000" transform="matrix(1.00, 0.00, -0.00, -1.00, 621.0, 90.1)">s</text><text xml:space="preserve" font-family="SegoeUI-Light,Segoe UI" font-size="30.0" fill="#000000" transform="matrix(1.00, 0.00, -0.00, -1.00, 632.7, 90.1)">t</text><text xml:space="preserve" font-family="SegoeUI-Light,Segoe UI" font-size="30.0" fill="#000000" transform="matrix(1.00, 0.00, -0.00, -1.00, 641.6, 90.1)">o</text><text xml:space="preserve" font-family="SegoeUI-Light,Segoe UI" font-size="30.0" fill="#000000" transform="matrix(1.00, 0.00, -0.00, -1.00, 658.4, 90.1)">r</text><text xml:space="preserve" font-family="SegoeUI-Light,Segoe UI" font-size="30.0" fill="#000000" transform="matrix(1.00, 0.00, -0.00, -1.00, 676.5, 90.1)">3</text><text xml:space="preserve" font-family="SegoeUI-Light,Segoe UI" font-size="30.0" fill="#000000" transform="matrix(1.00, 0.00, -0.00, -1.00, 692.0, 90.1)">3</text><text xml:space="preserve" font-family="SegoeUI-Light,Segoe UI" font-size="30.0" fill="#000000" transform="matrix(1.00, 0.00, -0.00, -1.00, 707.4, 90.1)">0</text><text xml:space="preserve" font-family="SegoeUI-Light,Segoe UI" font-size="30.0" fill="#000000" transform="matrix(1.00, 0.00, -0.00, -1.00, 731.1, 90.1)">o</text><text xml:space="preserve" font-family="SegoeUI-Light,Segoe UI" font-size="30.0" fill="#000000" transform="matrix(1.00, 0.00, -0.00, -1.00, 748.0, 90.1)">h</text><text xml:space="preserve" font-family="SegoeUI-Light,Segoe UI" font-size="30.0" fill="#000000" transform="matrix(1.00, 0.00, -0.00, -1.00, 764.0, 90.1)">m</text><g><clipPath id="clip0x7f8740751ac0"><path d="M 851.0 837.0 L 1776.0 837.0 L 1776.0 155.0 L 851.0 155.0 Z M 850.8 836.8 "></path></clipPath><g clip-path="url(#clip0x7f8740751ac0)"><image xlink:href="../../317E3F02-450D-4136-8500-FE1FF159715A/assets/D6883CA611DF2B910FAFB76015B82A85.png" width="1024.00" height="754.00" transform="matrix(0.90, 0.00, -0.00, -0.90, 851.0, 837.0)"></image></g></g><path d="M 0.0 0.0 L 0.0 681.5 L 925.6 681.5 L 925.6 0.0 L 0.0 0.0 Z M 0.0 0.0 " fill="none" stroke="#000000" stroke-width="2.00" transform="matrix(1.00, 0.00, 0.00, -1.00, 850.8, 836.8)"></path></g></svg>