<?xml version="1.0" encoding="UTF-8" standalone="no"?><svg xmlns="http://www.w3.org/2000/svg" xmlns:xlink="http://www.w3.org/1999/xlink" clip-rule="evenodd" stroke-miterlimit="10" viewBox="0 0 676 132"><desc>SVG generated by Keynote</desc><defs></defs><g transform="matrix(1.00, 0.00, -0.00, -1.00, 0.0, 132.0)"><text xml:space="preserve" font-family="SegoeUI-Light,Segoe UI" font-size="35.0" fill="#000000" transform="matrix(1.00, 0.00, -0.00, -1.00, 11.6, 104.3)">T</text><text xml:space="preserve" font-family="SegoeUI-Light,Segoe UI" font-size="35.0" fill="#000000" transform="matrix(1.00, 0.00, -0.00, -1.00, 29.5, 104.3)">h</text><text xml:space="preserve" font-family="SegoeUI-Light,Segoe UI" font-size="35.0" fill="#000000" transform="matrix(1.00, 0.00, -0.00, -1.00, 48.2, 104.3)">e</text><text xml:space="preserve" font-family="SegoeUI-Light,Segoe UI" font-size="35.0" fill="#000000" transform="matrix(1.00, 0.00, -0.00, -1.00, 65.9, 104.3)"> </text><text xml:space="preserve" font-family="SegoeUI-Light,Segoe UI" font-size="35.0" fill="#000000" transform="matrix(1.00, 0.00, -0.00, -1.00, 75.4, 104.3)">d</text><text xml:space="preserve" font-family="SegoeUI-Light,Segoe UI" font-size="35.0" fill="#000000" transform="matrix(1.00, 0.00, -0.00, -1.00, 95.1, 104.3)">i</text><text xml:space="preserve" font-family="SegoeUI-Light,Segoe UI" font-size="35.0" fill="#000000" transform="matrix(1.00, 0.00, -0.00, -1.00, 102.2, 104.3)">a</text><text xml:space="preserve" font-family="SegoeUI-Light,Segoe UI" font-size="35.0" fill="#000000" transform="matrix(1.00, 0.00, -0.00, -1.00, 119.5, 104.3)">g</text><text xml:space="preserve" font-family="SegoeUI-Light,Segoe UI" font-size="35.0" fill="#000000" transform="matrix(1.00, 0.00, -0.00, -1.00, 139.1, 104.3)">r</text><text xml:space="preserve" font-family="SegoeUI-Light,Segoe UI" font-size="35.0" fill="#000000" transform="matrix(1.00, 0.00, -0.00, -1.00, 150.7, 104.3)">a</text><text xml:space="preserve" font-family="SegoeUI-Light,Segoe UI" font-size="35.0" fill="#000000" transform="matrix(1.00, 0.00, -0.00, -1.00, 168.0, 104.3)">m</text><text xml:space="preserve" font-family="SegoeUI-Light,Segoe UI" font-size="35.0" fill="#000000" transform="matrix(1.00, 0.00, -0.00, -1.00, 196.7, 104.3)"> </text><text xml:space="preserve" font-family="SegoeUI-Light,Segoe UI" font-size="35.0" fill="#000000" transform="matrix(1.00, 0.00, -0.00, -1.00, 206.3, 104.3)">a</text><text xml:space="preserve" font-family="SegoeUI-Light,Segoe UI" font-size="35.0" fill="#000000" transform="matrix(1.00, 0.00, -0.00, -1.00, 223.6, 104.3)">b</text><text xml:space="preserve" font-family="SegoeUI-Light,Segoe UI" font-size="35.0" fill="#000000" transform="matrix(1.00, 0.00, -0.00, -1.00, 243.2, 104.3)">o</text><text xml:space="preserve" font-family="SegoeUI-Light,Segoe UI" font-size="35.0" fill="#000000" transform="matrix(1.00, 0.00, -0.00, -1.00, 262.9, 104.3)">v</text><text xml:space="preserve" font-family="SegoeUI-Light,Segoe UI" font-size="35.0" fill="#000000" transform="matrix(1.00, 0.00, -0.00, -1.00, 278.7, 104.3)">e</text><text xml:space="preserve" font-family="SegoeUI-Light,Segoe UI" font-size="35.0" fill="#000000" transform="matrix(1.00, 0.00, -0.00, -1.00, 296.4, 104.3)"> </text><text xml:space="preserve" font-family="SegoeUI-Light,Segoe UI" font-size="35.0" fill="#000000" transform="matrix(1.00, 0.00, -0.00, -1.00, 306.0, 104.3)">s</text><text xml:space="preserve" font-family="SegoeUI-Light,Segoe UI" font-size="35.0" fill="#000000" transform="matrix(1.00, 0.00, -0.00, -1.00, 319.6, 104.3)">h</text><text xml:space="preserve" font-family="SegoeUI-Light,Segoe UI" font-size="35.0" fill="#000000" transform="matrix(1.00, 0.00, -0.00, -1.00, 338.3, 104.3)">o</text><text xml:space="preserve" font-family="SegoeUI-Light,Segoe UI" font-size="35.0" fill="#000000" transform="matrix(1.00, 0.00, -0.00, -1.00, 358.0, 104.3)">w</text><text xml:space="preserve" font-family="SegoeUI-Light,Segoe UI" font-size="35.0" fill="#000000" transform="matrix(1.00, 0.00, -0.00, -1.00, 381.6, 104.3)">s</text><text xml:space="preserve" font-family="SegoeUI-Light,Segoe UI" font-size="35.0" fill="#000000" transform="matrix(1.00, 0.00, -0.00, -1.00, 395.2, 104.3)"> </text><text xml:space="preserve" font-family="SegoeUI-Light,Segoe UI" font-size="35.0" fill="#000000" transform="matrix(1.00, 0.00, -0.00, -1.00, 404.8, 104.3)">h</text><text xml:space="preserve" font-family="SegoeUI-Light,Segoe UI" font-size="35.0" fill="#000000" transform="matrix(1.00, 0.00, -0.00, -1.00, 423.5, 104.3)">o</text><text xml:space="preserve" font-family="SegoeUI-Light,Segoe UI" font-size="35.0" fill="#000000" transform="matrix(1.00, 0.00, -0.00, -1.00, 443.2, 104.3)">w</text><text xml:space="preserve" font-family="SegoeUI-Light,Segoe UI" font-size="35.0" fill="#000000" transform="matrix(1.00, 0.00, -0.00, -1.00, 466.9, 104.3)"> </text><text xml:space="preserve" font-family="SegoeUI-Light,Segoe UI" font-size="35.0" fill="#000000" transform="matrix(1.00, 0.00, -0.00, -1.00, 476.4, 104.3)">e</text><text xml:space="preserve" font-family="SegoeUI-Light,Segoe UI" font-size="35.0" fill="#000000" transform="matrix(1.00, 0.00, -0.00, -1.00, 494.1, 104.3)">v</text><text xml:space="preserve" font-family="SegoeUI-Light,Segoe UI" font-size="35.0" fill="#000000" transform="matrix(1.00, 0.00, -0.00, -1.00, 510.0, 104.3)">e</text><text xml:space="preserve" font-family="SegoeUI-Light,Segoe UI" font-size="35.0" fill="#000000" transform="matrix(1.00, 0.00, -0.00, -1.00, 527.6, 104.3)">r</text><text xml:space="preserve" font-family="SegoeUI-Light,Segoe UI" font-size="35.0" fill="#000000" transform="matrix(1.00, 0.00, -0.00, -1.00, 541.3, 104.3)">y</text><text xml:space="preserve" font-family="SegoeUI-Light,Segoe UI" font-size="35.0" fill="#000000" transform="matrix(1.00, 0.00, -0.00, -1.00, 557.2, 104.3)">t</text><text xml:space="preserve" font-family="SegoeUI-Light,Segoe UI" font-size="35.0" fill="#000000" transform="matrix(1.00, 0.00, -0.00, -1.00, 567.6, 104.3)">h</text><text xml:space="preserve" font-family="SegoeUI-Light,Segoe UI" font-size="35.0" fill="#000000" transform="matrix(1.00, 0.00, -0.00, -1.00, 586.3, 104.3)">i</text><text xml:space="preserve" font-family="SegoeUI-Light,Segoe UI" font-size="35.0" fill="#000000" transform="matrix(1.00, 0.00, -0.00, -1.00, 593.5, 104.3)">n</text><text xml:space="preserve" font-family="SegoeUI-Light,Segoe UI" font-size="35.0" fill="#000000" transform="matrix(1.00, 0.00, -0.00, -1.00, 612.2, 104.3)">g</text><text xml:space="preserve" font-family="SegoeUI-Light,Segoe UI" font-size="35.0" fill="#000000" transform="matrix(1.00, 0.00, -0.00, -1.00, 631.8, 104.3)"> </text><text xml:space="preserve" font-family="SegoeUI-Light,Segoe UI" font-size="35.0" fill="#000000" transform="matrix(1.00, 0.00, -0.00, -1.00, 641.4, 104.3)">i</text><text xml:space="preserve" font-family="SegoeUI-Light,Segoe UI" font-size="35.0" fill="#000000" transform="matrix(1.00, 0.00, -0.00, -1.00, 648.6, 104.3)">s</text><text xml:space="preserve" font-family="SegoeUI-Light,Segoe UI" font-size="35.0" fill="#000000" transform="matrix(1.00, 0.00, -0.00, -1.00, 662.2, 104.3)"> </text><text xml:space="preserve" font-family="SegoeUI-Light,Segoe UI" font-size="35.0" fill="#000000" transform="matrix(1.00, 0.00, -0.00, -1.00, 0.0, 57.3)">c</text><text xml:space="preserve" font-family="SegoeUI-Light,Segoe UI" font-size="35.0" fill="#000000" transform="matrix(1.00, 0.00, -0.00, -1.00, 15.5, 57.3)">o</text><text xml:space="preserve" font-family="SegoeUI-Light,Segoe UI" font-size="35.0" fill="#000000" transform="matrix(1.00, 0.00, -0.00, -1.00, 35.2, 57.3)">n</text><text xml:space="preserve" font-family="SegoeUI-Light,Segoe UI" font-size="35.0" fill="#000000" transform="matrix(1.00, 0.00, -0.00, -1.00, 53.9, 57.3)">n</text><text xml:space="preserve" font-family="SegoeUI-Light,Segoe UI" font-size="35.0" fill="#000000" transform="matrix(1.00, 0.00, -0.00, -1.00, 72.6, 57.3)">e</text><text xml:space="preserve" font-family="SegoeUI-Light,Segoe UI" font-size="35.0" fill="#000000" transform="matrix(1.00, 0.00, -0.00, -1.00, 90.3, 57.3)">c</text><text xml:space="preserve" font-family="SegoeUI-Light,Segoe UI" font-size="35.0" fill="#000000" transform="matrix(1.00, 0.00, -0.00, -1.00, 105.8, 57.3)">t</text><text xml:space="preserve" font-family="SegoeUI-Light,Segoe UI" font-size="35.0" fill="#000000" transform="matrix(1.00, 0.00, -0.00, -1.00, 116.2, 57.3)">e</text><text xml:space="preserve" font-family="SegoeUI-Light,Segoe UI" font-size="35.0" fill="#000000" transform="matrix(1.00, 0.00, -0.00, -1.00, 133.9, 57.3)">d</text><text xml:space="preserve" font-family="SegoeUI-Light,Segoe UI" font-size="35.0" fill="#000000" transform="matrix(1.00, 0.00, -0.00, -1.00, 153.5, 57.3)">.</text><text xml:space="preserve" font-family="SegoeUI-Light,Segoe UI" font-size="35.0" fill="#000000" transform="matrix(1.00, 0.00, -0.00, -1.00, 161.3, 57.3)"> </text><text xml:space="preserve" font-family="SegoeUI-Light,Segoe UI" font-size="35.0" fill="#000000" transform="matrix(1.00, 0.00, -0.00, -1.00, 170.9, 57.3)">T</text><text xml:space="preserve" font-family="SegoeUI-Light,Segoe UI" font-size="35.0" fill="#000000" transform="matrix(1.00, 0.00, -0.00, -1.00, 188.8, 57.3)">h</text><text xml:space="preserve" font-family="SegoeUI-Light,Segoe UI" font-size="35.0" fill="#000000" transform="matrix(1.00, 0.00, -0.00, -1.00, 207.5, 57.3)">e</text><text xml:space="preserve" font-family="SegoeUI-Light,Segoe UI" font-size="35.0" fill="#000000" transform="matrix(1.00, 0.00, -0.00, -1.00, 225.2, 57.3)"> </text><text xml:space="preserve" font-family="SegoeUI-Light,Segoe UI" font-size="35.0" fill="#000000" transform="matrix(1.00, 0.00, -0.00, -1.00, 234.8, 57.3)">t</text><text xml:space="preserve" font-family="SegoeUI-Light,Segoe UI" font-size="35.0" fill="#000000" transform="matrix(1.00, 0.00, -0.00, -1.00, 245.1, 57.3)">a</text><text xml:space="preserve" font-family="SegoeUI-Light,Segoe UI" font-size="35.0" fill="#000000" transform="matrix(1.00, 0.00, -0.00, -1.00, 262.4, 57.3)">b</text><text xml:space="preserve" font-family="SegoeUI-Light,Segoe UI" font-size="35.0" fill="#000000" transform="matrix(1.00, 0.00, -0.00, -1.00, 282.0, 57.3)">l</text><text xml:space="preserve" font-family="SegoeUI-Light,Segoe UI" font-size="35.0" fill="#000000" transform="matrix(1.00, 0.00, -0.00, -1.00, 289.2, 57.3)">e</text><text xml:space="preserve" font-family="SegoeUI-Light,Segoe UI" font-size="35.0" fill="#000000" transform="matrix(1.00, 0.00, -0.00, -1.00, 306.9, 57.3)"> </text><text xml:space="preserve" font-family="SegoeUI-Light,Segoe UI" font-size="35.0" fill="#000000" transform="matrix(1.00, 0.00, -0.00, -1.00, 316.5, 57.3)">o</text><text xml:space="preserve" font-family="SegoeUI-Light,Segoe UI" font-size="35.0" fill="#000000" transform="matrix(1.00, 0.00, -0.00, -1.00, 336.1, 57.3)">n</text><text xml:space="preserve" font-family="SegoeUI-Light,Segoe UI" font-size="35.0" fill="#000000" transform="matrix(1.00, 0.00, -0.00, -1.00, 354.9, 57.3)"> </text><text xml:space="preserve" font-family="SegoeUI-Light,Segoe UI" font-size="35.0" fill="#000000" transform="matrix(1.00, 0.00, -0.00, -1.00, 364.4, 57.3)">t</text><text xml:space="preserve" font-family="SegoeUI-Light,Segoe UI" font-size="35.0" fill="#000000" transform="matrix(1.00, 0.00, -0.00, -1.00, 374.8, 57.3)">h</text><text xml:space="preserve" font-family="SegoeUI-Light,Segoe UI" font-size="35.0" fill="#000000" transform="matrix(1.00, 0.00, -0.00, -1.00, 393.6, 57.3)">e</text><text xml:space="preserve" font-family="SegoeUI-Light,Segoe UI" font-size="35.0" fill="#000000" transform="matrix(1.00, 0.00, -0.00, -1.00, 411.2, 57.3)"> </text><text xml:space="preserve" font-family="SegoeUI-Light,Segoe UI" font-size="35.0" fill="#000000" transform="matrix(1.00, 0.00, -0.00, -1.00, 420.8, 57.3)">r</text><text xml:space="preserve" font-family="SegoeUI-Light,Segoe UI" font-size="35.0" fill="#000000" transform="matrix(1.00, 0.00, -0.00, -1.00, 432.4, 57.3)">i</text><text xml:space="preserve" font-family="SegoeUI-Light,Segoe UI" font-size="35.0" fill="#000000" transform="matrix(1.00, 0.00, -0.00, -1.00, 439.6, 57.3)">g</text><text xml:space="preserve" font-family="SegoeUI-Light,Segoe UI" font-size="35.0" fill="#000000" transform="matrix(1.00, 0.00, -0.00, -1.00, 459.2, 57.3)">h</text><text xml:space="preserve" font-family="SegoeUI-Light,Segoe UI" font-size="35.0" fill="#000000" transform="matrix(1.00, 0.00, -0.00, -1.00, 477.9, 57.3)">t</text><text xml:space="preserve" font-family="SegoeUI-Light,Segoe UI" font-size="35.0" fill="#000000" transform="matrix(1.00, 0.00, -0.00, -1.00, 488.3, 57.3)"> </text><text xml:space="preserve" font-family="SegoeUI-Light,Segoe UI" font-size="35.0" fill="#000000" transform="matrix(1.00, 0.00, -0.00, -1.00, 497.8, 57.3)">m</text><text xml:space="preserve" font-family="SegoeUI-Light,Segoe UI" font-size="35.0" fill="#000000" transform="matrix(1.00, 0.00, -0.00, -1.00, 526.6, 57.3)">i</text><text xml:space="preserve" font-family="SegoeUI-Light,Segoe UI" font-size="35.0" fill="#000000" transform="matrix(1.00, 0.00, -0.00, -1.00, 533.8, 57.3)">g</text><text xml:space="preserve" font-family="SegoeUI-Light,Segoe UI" font-size="35.0" fill="#000000" transform="matrix(1.00, 0.00, -0.00, -1.00, 553.4, 57.3)">h</text><text xml:space="preserve" font-family="SegoeUI-Light,Segoe UI" font-size="35.0" fill="#000000" transform="matrix(1.00, 0.00, -0.00, -1.00, 572.1, 57.3)">t</text><text xml:space="preserve" font-family="SegoeUI-Light,Segoe UI" font-size="35.0" fill="#000000" transform="matrix(1.00, 0.00, -0.00, -1.00, 582.5, 57.3)"> </text><text xml:space="preserve" font-family="SegoeUI-Light,Segoe UI" font-size="35.0" fill="#000000" transform="matrix(1.00, 0.00, -0.00, -1.00, 592.1, 57.3)">c</text><text xml:space="preserve" font-family="SegoeUI-Light,Segoe UI" font-size="35.0" fill="#000000" transform="matrix(1.00, 0.00, -0.00, -1.00, 607.6, 57.3)">o</text><text xml:space="preserve" font-family="SegoeUI-Light,Segoe UI" font-size="35.0" fill="#000000" transform="matrix(1.00, 0.00, -0.00, -1.00, 627.3, 57.3)">m</text><text xml:space="preserve" font-family="SegoeUI-Light,Segoe UI" font-size="35.0" fill="#000000" transform="matrix(1.00, 0.00, -0.00, -1.00, 656.0, 57.3)">e</text><text xml:space="preserve" font-family="SegoeUI-Light,Segoe UI" font-size="35.0" fill="#000000" transform="matrix(1.00, 0.00, -0.00, -1.00, 673.7, 57.3)"> </text><text xml:space="preserve" font-family="SegoeUI-Light,Segoe UI" font-size="35.0" fill="#000000" transform="matrix(1.00, 0.00, -0.00, -1.00, 62.4, 10.3)">h</text><text xml:space="preserve" font-family="SegoeUI-Light,Segoe UI" font-size="35.0" fill="#000000" transform="matrix(1.00, 0.00, -0.00, -1.00, 81.1, 10.3)">a</text><text xml:space="preserve" font-family="SegoeUI-Light,Segoe UI" font-size="35.0" fill="#000000" transform="matrix(1.00, 0.00, -0.00, -1.00, 98.4, 10.3)">n</text><text xml:space="preserve" font-family="SegoeUI-Light,Segoe UI" font-size="35.0" fill="#000000" transform="matrix(1.00, 0.00, -0.00, -1.00, 117.2, 10.3)">d</text><text xml:space="preserve" font-family="SegoeUI-Light,Segoe UI" font-size="35.0" fill="#000000" transform="matrix(1.00, 0.00, -0.00, -1.00, 136.8, 10.3)">y</text><text xml:space="preserve" font-family="SegoeUI-Light,Segoe UI" font-size="35.0" fill="#000000" transform="matrix(1.00, 0.00, -0.00, -1.00, 152.6, 10.3)"> </text><text xml:space="preserve" font-family="SegoeUI-Light,Segoe UI" font-size="35.0" fill="#000000" transform="matrix(1.00, 0.00, -0.00, -1.00, 162.2, 10.3)">i</text><text xml:space="preserve" font-family="SegoeUI-Light,Segoe UI" font-size="35.0" fill="#000000" transform="matrix(1.00, 0.00, -0.00, -1.00, 169.4, 10.3)">f</text><text xml:space="preserve" font-family="SegoeUI-Light,Segoe UI" font-size="35.0" fill="#000000" transform="matrix(1.00, 0.00, -0.00, -1.00, 179.1, 10.3)"> </text><text xml:space="preserve" font-family="SegoeUI-Light,Segoe UI" font-size="35.0" fill="#000000" transform="matrix(1.00, 0.00, -0.00, -1.00, 188.6, 10.3)">t</text><text xml:space="preserve" font-family="SegoeUI-Light,Segoe UI" font-size="35.0" fill="#000000" transform="matrix(1.00, 0.00, -0.00, -1.00, 199.0, 10.3)">h</text><text xml:space="preserve" font-family="SegoeUI-Light,Segoe UI" font-size="35.0" fill="#000000" transform="matrix(1.00, 0.00, -0.00, -1.00, 217.8, 10.3)">e</text><text xml:space="preserve" font-family="SegoeUI-Light,Segoe UI" font-size="35.0" fill="#000000" transform="matrix(1.00, 0.00, -0.00, -1.00, 235.4, 10.3)"> </text><text xml:space="preserve" font-family="SegoeUI-Light,Segoe UI" font-size="35.0" fill="#000000" transform="matrix(1.00, 0.00, -0.00, -1.00, 245.0, 10.3)">d</text><text xml:space="preserve" font-family="SegoeUI-Light,Segoe UI" font-size="35.0" fill="#000000" transform="matrix(1.00, 0.00, -0.00, -1.00, 264.6, 10.3)">i</text><text xml:space="preserve" font-family="SegoeUI-Light,Segoe UI" font-size="35.0" fill="#000000" transform="matrix(1.00, 0.00, -0.00, -1.00, 271.8, 10.3)">a</text><text xml:space="preserve" font-family="SegoeUI-Light,Segoe UI" font-size="35.0" fill="#000000" transform="matrix(1.00, 0.00, -0.00, -1.00, 289.1, 10.3)">g</text><text xml:space="preserve" font-family="SegoeUI-Light,Segoe UI" font-size="35.0" fill="#000000" transform="matrix(1.00, 0.00, -0.00, -1.00, 308.7, 10.3)">r</text><text xml:space="preserve" font-family="SegoeUI-Light,Segoe UI" font-size="35.0" fill="#000000" transform="matrix(1.00, 0.00, -0.00, -1.00, 320.3, 10.3)">a</text><text xml:space="preserve" font-family="SegoeUI-Light,Segoe UI" font-size="35.0" fill="#000000" transform="matrix(1.00, 0.00, -0.00, -1.00, 337.6, 10.3)">m</text><text xml:space="preserve" font-family="SegoeUI-Light,Segoe UI" font-size="35.0" fill="#000000" transform="matrix(1.00, 0.00, -0.00, -1.00, 366.3, 10.3)"> </text><text xml:space="preserve" font-family="SegoeUI-Light,Segoe UI" font-size="35.0" fill="#000000" transform="matrix(1.00, 0.00, -0.00, -1.00, 375.9, 10.3)">i</text><text xml:space="preserve" font-family="SegoeUI-Light,Segoe UI" font-size="35.0" fill="#000000" transform="matrix(1.00, 0.00, -0.00, -1.00, 383.1, 10.3)">s</text><text xml:space="preserve" font-family="SegoeUI-Light,Segoe UI" font-size="35.0" fill="#000000" transform="matrix(1.00, 0.00, -0.00, -1.00, 396.7, 10.3)"> </text><text xml:space="preserve" font-family="SegoeUI-Light,Segoe UI" font-size="35.0" fill="#000000" transform="matrix(1.00, 0.00, -0.00, -1.00, 406.3, 10.3)">h</text><text xml:space="preserve" font-family="SegoeUI-Light,Segoe UI" font-size="35.0" fill="#000000" transform="matrix(1.00, 0.00, -0.00, -1.00, 425.0, 10.3)">a</text><text xml:space="preserve" font-family="SegoeUI-Light,Segoe UI" font-size="35.0" fill="#000000" transform="matrix(1.00, 0.00, -0.00, -1.00, 442.3, 10.3)">r</text><text xml:space="preserve" font-family="SegoeUI-Light,Segoe UI" font-size="35.0" fill="#000000" transform="matrix(1.00, 0.00, -0.00, -1.00, 453.1, 10.3)">d</text><text xml:space="preserve" font-family="SegoeUI-Light,Segoe UI" font-size="35.0" fill="#000000" transform="matrix(1.00, 0.00, -0.00, -1.00, 472.8, 10.3)"> </text><text xml:space="preserve" font-family="SegoeUI-Light,Segoe UI" font-size="35.0" fill="#000000" transform="matrix(1.00, 0.00, -0.00, -1.00, 482.3, 10.3)">t</text><text xml:space="preserve" font-family="SegoeUI-Light,Segoe UI" font-size="35.0" fill="#000000" transform="matrix(1.00, 0.00, -0.00, -1.00, 492.7, 10.3)">o</text><text xml:space="preserve" font-family="SegoeUI-Light,Segoe UI" font-size="35.0" fill="#000000" transform="matrix(1.00, 0.00, -0.00, -1.00, 512.4, 10.3)"> </text><text xml:space="preserve" font-family="SegoeUI-Light,Segoe UI" font-size="35.0" fill="#000000" transform="matrix(1.00, 0.00, -0.00, -1.00, 521.9, 10.3)">g</text><text xml:space="preserve" font-family="SegoeUI-Light,Segoe UI" font-size="35.0" fill="#000000" transform="matrix(1.00, 0.00, -0.00, -1.00, 541.5, 10.3)">r</text><text xml:space="preserve" font-family="SegoeUI-Light,Segoe UI" font-size="35.0" fill="#000000" transform="matrix(1.00, 0.00, -0.00, -1.00, 553.1, 10.3)">a</text><text xml:space="preserve" font-family="SegoeUI-Light,Segoe UI" font-size="35.0" fill="#000000" transform="matrix(1.00, 0.00, -0.00, -1.00, 570.4, 10.3)">s</text><text xml:space="preserve" font-family="SegoeUI-Light,Segoe UI" font-size="35.0" fill="#000000" transform="matrix(1.00, 0.00, -0.00, -1.00, 584.0, 10.3)">p</text><text xml:space="preserve" font-family="SegoeUI-Light,Segoe UI" font-size="35.0" fill="#000000" transform="matrix(1.00, 0.00, -0.00, -1.00, 603.6, 10.3)">.</text></g></svg>