<?xml version="1.0" encoding="UTF-8" standalone="no"?><svg xmlns="http://www.w3.org/2000/svg" xmlns:xlink="http://www.w3.org/1999/xlink" clip-rule="evenodd" stroke-miterlimit="10" viewBox="0 0 766 102"><desc>SVG generated by Keynote</desc><defs></defs><g transform="matrix(1.00, 0.00, -0.00, -1.00, 0.0, 102.0)"><text xml:space="preserve" font-family="SegoeUI-Light,Segoe UI" font-size="100.0" fill="#A6AAA8" transform="matrix(1.00, 0.00, -0.00, -1.00, -6.5, 25.9)">U</text><text xml:space="preserve" font-family="SegoeUI-Light,Segoe UI" font-size="100.0" fill="#A6AAA8" transform="matrix(1.00, 0.00, -0.00, -1.00, 58.3, 25.9)">p</text><text xml:space="preserve" font-family="SegoeUI-Light,Segoe UI" font-size="100.0" fill="#A6AAA8" transform="matrix(1.00, 0.00, -0.00, -1.00, 114.3, 25.9)">d</text><text xml:space="preserve" font-family="SegoeUI-Light,Segoe UI" font-size="100.0" fill="#A6AAA8" transform="matrix(1.00, 0.00, -0.00, -1.00, 170.3, 25.9)">a</text><text xml:space="preserve" font-family="SegoeUI-Light,Segoe UI" font-size="100.0" fill="#A6AAA8" transform="matrix(1.00, 0.00, -0.00, -1.00, 219.7, 25.9)">t</text><text xml:space="preserve" font-family="SegoeUI-Light,Segoe UI" font-size="100.0" fill="#A6AAA8" transform="matrix(1.00, 0.00, -0.00, -1.00, 249.4, 25.9)">i</text><text xml:space="preserve" font-family="SegoeUI-Light,Segoe UI" font-size="100.0" fill="#A6AAA8" transform="matrix(1.00, 0.00, -0.00, -1.00, 269.9, 25.9)">n</text><text xml:space="preserve" font-family="SegoeUI-Light,Segoe UI" font-size="100.0" fill="#A6AAA8" transform="matrix(1.00, 0.00, -0.00, -1.00, 323.4, 25.9)">g</text><text xml:space="preserve" font-family="SegoeUI-Light,Segoe UI" font-size="100.0" fill="#A6AAA8" transform="matrix(1.00, 0.00, -0.00, -1.00, 379.4, 25.9)"> </text><text xml:space="preserve" font-family="SegoeUI-Light,Segoe UI" font-size="100.0" fill="#A6AAA8" transform="matrix(1.00, 0.00, -0.00, -1.00, 406.7, 25.9)">f</text><text xml:space="preserve" font-family="SegoeUI-Light,Segoe UI" font-size="100.0" fill="#A6AAA8" transform="matrix(1.00, 0.00, -0.00, -1.00, 434.3, 25.9)">i</text><text xml:space="preserve" font-family="SegoeUI-Light,Segoe UI" font-size="100.0" fill="#A6AAA8" transform="matrix(1.00, 0.00, -0.00, -1.00, 454.8, 25.9)">r</text><text xml:space="preserve" font-family="SegoeUI-Light,Segoe UI" font-size="100.0" fill="#A6AAA8" transform="matrix(1.00, 0.00, -0.00, -1.00, 487.5, 25.9)">m</text><text xml:space="preserve" font-family="SegoeUI-Light,Segoe UI" font-size="100.0" fill="#A6AAA8" transform="matrix(1.00, 0.00, -0.00, -1.00, 569.7, 25.9)">w</text><text xml:space="preserve" font-family="SegoeUI-Light,Segoe UI" font-size="100.0" fill="#A6AAA8" transform="matrix(1.00, 0.00, -0.00, -1.00, 637.4, 25.9)">a</text><text xml:space="preserve" font-family="SegoeUI-Light,Segoe UI" font-size="100.0" fill="#A6AAA8" transform="matrix(1.00, 0.00, -0.00, -1.00, 686.8, 25.9)">r</text><text xml:space="preserve" font-family="SegoeUI-Light,Segoe UI" font-size="100.0" fill="#A6AAA8" transform="matrix(1.00, 0.00, -0.00, -1.00, 717.8, 25.9)">e</text></g></svg>