<?xml version="1.0" encoding="UTF-8" standalone="no"?><svg xmlns="http://www.w3.org/2000/svg" xmlns:xlink="http://www.w3.org/1999/xlink" clip-rule="evenodd" stroke-miterlimit="10" viewBox="0 0 1920 1080"><desc>SVG generated by Keynote</desc><defs></defs><g transform="matrix(1.00, 0.00, -0.00, -1.00, 0.0, 1080.0)"><path d="M 0.0 1080.0 L 1920.0 1080.0 L 1920.0 0.0 L 0.0 0.0 Z M 0.0 1080.0 " fill="#FEFFFF"></path><image xlink:href="../../BED4E2EF-5046-4C4D-A73A-2E2E143FD3A8/assets/5B6CDCAD70435926D0ABC6F62186B8FE.png" width="175.00" height="352.00" transform="matrix(1.84, 0.00, -0.00, -1.84, 105.0, 791.0)"></image><text xml:space="preserve" font-family="SegoeUI-Light,Segoe UI" font-size="100.0" fill="#A6AAA8" transform="matrix(1.00, 0.00, -0.00, -1.00, 1138.4, 958.9)">A</text><text xml:space="preserve" font-family="SegoeUI-Light,Segoe UI" font-size="100.0" fill="#A6AAA8" transform="matrix(1.00, 0.00, -0.00, -1.00, 1199.3, 958.9)">t</text><text xml:space="preserve" font-family="SegoeUI-Light,Segoe UI" font-size="100.0" fill="#A6AAA8" transform="matrix(1.00, 0.00, -0.00, -1.00, 1229.0, 958.9)">t</text><text xml:space="preserve" font-family="SegoeUI-Light,Segoe UI" font-size="100.0" fill="#A6AAA8" transform="matrix(1.00, 0.00, -0.00, -1.00, 1258.7, 958.9)">a</text><text xml:space="preserve" font-family="SegoeUI-Light,Segoe UI" font-size="100.0" fill="#A6AAA8" transform="matrix(1.00, 0.00, -0.00, -1.00, 1308.1, 958.9)">c</text><text xml:space="preserve" font-family="SegoeUI-Light,Segoe UI" font-size="100.0" fill="#A6AAA8" transform="matrix(1.00, 0.00, -0.00, -1.00, 1352.4, 958.9)">h</text><text xml:space="preserve" font-family="SegoeUI-Light,Segoe UI" font-size="100.0" fill="#A6AAA8" transform="matrix(1.00, 0.00, -0.00, -1.00, 1405.9, 958.9)">i</text><text xml:space="preserve" font-family="SegoeUI-Light,Segoe UI" font-size="100.0" fill="#A6AAA8" transform="matrix(1.00, 0.00, -0.00, -1.00, 1426.4, 958.9)">n</text><text xml:space="preserve" font-family="SegoeUI-Light,Segoe UI" font-size="100.0" fill="#A6AAA8" transform="matrix(1.00, 0.00, -0.00, -1.00, 1480.0, 958.9)">g</text><text xml:space="preserve" font-family="SegoeUI-Light,Segoe UI" font-size="100.0" fill="#A6AAA8" transform="matrix(1.00, 0.00, -0.00, -1.00, 1535.9, 958.9)"> </text><text xml:space="preserve" font-family="SegoeUI-Light,Segoe UI" font-size="100.0" fill="#A6AAA8" transform="matrix(1.00, 0.00, -0.00, -1.00, 1563.3, 958.9)">s</text><text xml:space="preserve" font-family="SegoeUI-Light,Segoe UI" font-size="100.0" fill="#A6AAA8" transform="matrix(1.00, 0.00, -0.00, -1.00, 1602.1, 958.9)">t</text><text xml:space="preserve" font-family="SegoeUI-Light,Segoe UI" font-size="100.0" fill="#A6AAA8" transform="matrix(1.00, 0.00, -0.00, -1.00, 1631.8, 958.9)">r</text><text xml:space="preserve" font-family="SegoeUI-Light,Segoe UI" font-size="100.0" fill="#A6AAA8" transform="matrix(1.00, 0.00, -0.00, -1.00, 1664.8, 958.9)">i</text><text xml:space="preserve" font-family="SegoeUI-Light,Segoe UI" font-size="100.0" fill="#A6AAA8" transform="matrix(1.00, 0.00, -0.00, -1.00, 1685.3, 958.9)">n</text><text xml:space="preserve" font-family="SegoeUI-Light,Segoe UI" font-size="100.0" fill="#A6AAA8" transform="matrix(1.00, 0.00, -0.00, -1.00, 1738.8, 958.9)">g</text><text xml:space="preserve" font-family="SegoeUI-Light,Segoe UI" font-size="100.0" fill="#A6AAA8" transform="matrix(1.00, 0.00, -0.00, -1.00, 1794.8, 958.9)">s</text><text xml:space="preserve" font-family="SegoeUI-Light,Segoe UI" font-size="100.0" fill="#A6AAA8" transform="matrix(1.00, 0.00, -0.00, -1.00, 1833.6, 958.9)"> </text><text xml:space="preserve" font-family="SegoeUI-Light,Segoe UI" font-size="100.0" fill="#A6AAA8" transform="matrix(1.00, 0.00, -0.00, -1.00, 1861.0, 958.9)">1</text><path d="M 71.0 988.0 L 71.0 962.8 L 23.1 1000.3 L 71.0 1037.8 L 71.0 1012.0 L 84.0 1012.0 L 84.0 988.0 Z M 71.1 988.3 " fill="#3C3E3D"></path><path d="M 146.0 988.0 L 146.0 962.8 L 97.5 1000.3 L 146.0 1037.8 L 146.0 1012.0 L 158.0 1012.0 L 158.0 988.0 Z M 145.5 988.3 " fill="#A6AAA8"></path><text xml:space="preserve" font-family="SegoeUI-Light,Segoe UI" font-size="35.0" fill="#000000" transform="matrix(1.00, 0.00, -0.00, -1.00, 562.2, 662.9)">C</text><text xml:space="preserve" font-family="SegoeUI-Light,Segoe UI" font-size="35.0" fill="#000000" transform="matrix(1.00, 0.00, -0.00, -1.00, 583.9, 662.9)">o</text><text xml:space="preserve" font-family="SegoeUI-Light,Segoe UI" font-size="35.0" fill="#000000" transform="matrix(1.00, 0.00, -0.00, -1.00, 603.6, 662.9)">n</text><text xml:space="preserve" font-family="SegoeUI-Light,Segoe UI" font-size="35.0" fill="#000000" transform="matrix(1.00, 0.00, -0.00, -1.00, 622.3, 662.9)">n</text><text xml:space="preserve" font-family="SegoeUI-Light,Segoe UI" font-size="35.0" fill="#000000" transform="matrix(1.00, 0.00, -0.00, -1.00, 641.0, 662.9)">e</text><text xml:space="preserve" font-family="SegoeUI-Light,Segoe UI" font-size="35.0" fill="#000000" transform="matrix(1.00, 0.00, -0.00, -1.00, 658.7, 662.9)">c</text><text xml:space="preserve" font-family="SegoeUI-Light,Segoe UI" font-size="35.0" fill="#000000" transform="matrix(1.00, 0.00, -0.00, -1.00, 674.2, 662.9)">t</text><text xml:space="preserve" font-family="SegoeUI-Light,Segoe UI" font-size="35.0" fill="#000000" transform="matrix(1.00, 0.00, -0.00, -1.00, 684.6, 662.9)">i</text><text xml:space="preserve" font-family="SegoeUI-Light,Segoe UI" font-size="35.0" fill="#000000" transform="matrix(1.00, 0.00, -0.00, -1.00, 691.8, 662.9)">n</text><text xml:space="preserve" font-family="SegoeUI-Light,Segoe UI" font-size="35.0" fill="#000000" transform="matrix(1.00, 0.00, -0.00, -1.00, 710.5, 662.9)">g</text><text xml:space="preserve" font-family="SegoeUI-Light,Segoe UI" font-size="35.0" fill="#000000" transform="matrix(1.00, 0.00, -0.00, -1.00, 739.7, 662.9)">t</text><text xml:space="preserve" font-family="SegoeUI-Light,Segoe UI" font-size="35.0" fill="#000000" transform="matrix(1.00, 0.00, -0.00, -1.00, 750.1, 662.9)">h</text><text xml:space="preserve" font-family="SegoeUI-Light,Segoe UI" font-size="35.0" fill="#000000" transform="matrix(1.00, 0.00, -0.00, -1.00, 768.8, 662.9)">i</text><text xml:space="preserve" font-family="SegoeUI-Light,Segoe UI" font-size="35.0" fill="#000000" transform="matrix(1.00, 0.00, -0.00, -1.00, 776.0, 662.9)">n</text><text xml:space="preserve" font-family="SegoeUI-Light,Segoe UI" font-size="35.0" fill="#000000" transform="matrix(1.00, 0.00, -0.00, -1.00, 794.8, 662.9)">g</text><text xml:space="preserve" font-family="SegoeUI-Light,Segoe UI" font-size="35.0" fill="#000000" transform="matrix(1.00, 0.00, -0.00, -1.00, 814.4, 662.9)">s</text><text xml:space="preserve" font-family="SegoeUI-Light,Segoe UI" font-size="35.0" fill="#000000" transform="matrix(1.00, 0.00, -0.00, -1.00, 837.5, 662.9)">i</text><text xml:space="preserve" font-family="SegoeUI-Light,Segoe UI" font-size="35.0" fill="#000000" transform="matrix(1.00, 0.00, -0.00, -1.00, 844.7, 662.9)">s</text><text xml:space="preserve" font-family="SegoeUI-Light,Segoe UI" font-size="35.0" fill="#000000" transform="matrix(1.00, 0.00, -0.00, -1.00, 867.9, 662.9)">r</text><text xml:space="preserve" font-family="SegoeUI-Light,Segoe UI" font-size="35.0" fill="#000000" transform="matrix(1.00, 0.00, -0.00, -1.00, 878.7, 662.9)">e</text><text xml:space="preserve" font-family="SegoeUI-Light,Segoe UI" font-size="35.0" fill="#000000" transform="matrix(1.00, 0.00, -0.00, -1.00, 896.4, 662.9)">a</text><text xml:space="preserve" font-family="SegoeUI-Light,Segoe UI" font-size="35.0" fill="#000000" transform="matrix(1.00, 0.00, -0.00, -1.00, 913.7, 662.9)">l</text><text xml:space="preserve" font-family="SegoeUI-Light,Segoe UI" font-size="35.0" fill="#000000" transform="matrix(1.00, 0.00, -0.00, -1.00, 920.9, 662.9)">l</text><text xml:space="preserve" font-family="SegoeUI-Light,Segoe UI" font-size="35.0" fill="#000000" transform="matrix(1.00, 0.00, -0.00, -1.00, 928.1, 662.9)">y</text><text xml:space="preserve" font-family="SegoeUI-Light,Segoe UI" font-size="35.0" fill="#000000" transform="matrix(1.00, 0.00, -0.00, -1.00, 953.5, 662.9)">s</text><text xml:space="preserve" font-family="SegoeUI-Light,Segoe UI" font-size="35.0" fill="#000000" transform="matrix(1.00, 0.00, -0.00, -1.00, 967.1, 662.9)">i</text><text xml:space="preserve" font-family="SegoeUI-Light,Segoe UI" font-size="35.0" fill="#000000" transform="matrix(1.00, 0.00, -0.00, -1.00, 974.3, 662.9)">m</text><text xml:space="preserve" font-family="SegoeUI-Light,Segoe UI" font-size="35.0" fill="#000000" transform="matrix(1.00, 0.00, -0.00, -1.00, 1003.0, 662.9)">p</text><text xml:space="preserve" font-family="SegoeUI-Light,Segoe UI" font-size="35.0" fill="#000000" transform="matrix(1.00, 0.00, -0.00, -1.00, 1022.6, 662.9)">l</text><text xml:space="preserve" font-family="SegoeUI-Light,Segoe UI" font-size="35.0" fill="#000000" transform="matrix(1.00, 0.00, -0.00, -1.00, 1029.8, 662.9)">e</text><text xml:space="preserve" font-family="SegoeUI-Light,Segoe UI" font-size="35.0" fill="#000000" transform="matrix(1.00, 0.00, -0.00, -1.00, 1047.5, 662.9)">.</text><text xml:space="preserve" font-family="SegoeUI-Light,Segoe UI" font-size="35.0" fill="#000000" transform="matrix(1.00, 0.00, -0.00, -1.00, 1064.8, 662.9)">A</text><text xml:space="preserve" font-family="SegoeUI-Light,Segoe UI" font-size="35.0" fill="#000000" transform="matrix(1.00, 0.00, -0.00, -1.00, 1086.9, 662.9)">l</text><text xml:space="preserve" font-family="SegoeUI-Light,Segoe UI" font-size="35.0" fill="#000000" transform="matrix(1.00, 0.00, -0.00, -1.00, 1094.0, 662.9)">l</text><text xml:space="preserve" font-family="SegoeUI-Light,Segoe UI" font-size="35.0" fill="#000000" transform="matrix(1.00, 0.00, -0.00, -1.00, 1110.8, 662.9)">y</text><text xml:space="preserve" font-family="SegoeUI-Light,Segoe UI" font-size="35.0" fill="#000000" transform="matrix(1.00, 0.00, -0.00, -1.00, 1126.7, 662.9)">o</text><text xml:space="preserve" font-family="SegoeUI-Light,Segoe UI" font-size="35.0" fill="#000000" transform="matrix(1.00, 0.00, -0.00, -1.00, 1146.3, 662.9)">u</text><text xml:space="preserve" font-family="SegoeUI-Light,Segoe UI" font-size="35.0" fill="#000000" transform="matrix(1.00, 0.00, -0.00, -1.00, 1174.6, 662.9)">h</text><text xml:space="preserve" font-family="SegoeUI-Light,Segoe UI" font-size="35.0" fill="#000000" transform="matrix(1.00, 0.00, -0.00, -1.00, 1193.3, 662.9)">a</text><text xml:space="preserve" font-family="SegoeUI-Light,Segoe UI" font-size="35.0" fill="#000000" transform="matrix(1.00, 0.00, -0.00, -1.00, 1210.6, 662.9)">v</text><text xml:space="preserve" font-family="SegoeUI-Light,Segoe UI" font-size="35.0" fill="#000000" transform="matrix(1.00, 0.00, -0.00, -1.00, 1226.5, 662.9)">e</text><text xml:space="preserve" font-family="SegoeUI-Light,Segoe UI" font-size="35.0" fill="#000000" transform="matrix(1.00, 0.00, -0.00, -1.00, 567.4, 615.9)">t</text><text xml:space="preserve" font-family="SegoeUI-Light,Segoe UI" font-size="35.0" fill="#000000" transform="matrix(1.00, 0.00, -0.00, -1.00, 577.8, 615.9)">o</text><text xml:space="preserve" font-family="SegoeUI-Light,Segoe UI" font-size="35.0" fill="#000000" transform="matrix(1.00, 0.00, -0.00, -1.00, 607.0, 615.9)">d</text><text xml:space="preserve" font-family="SegoeUI-Light,Segoe UI" font-size="35.0" fill="#000000" transform="matrix(1.00, 0.00, -0.00, -1.00, 626.7, 615.9)">o</text><text xml:space="preserve" font-family="SegoeUI-Light,Segoe UI" font-size="35.0" fill="#000000" transform="matrix(1.00, 0.00, -0.00, -1.00, 655.9, 615.9)">f</text><text xml:space="preserve" font-family="SegoeUI-Light,Segoe UI" font-size="35.0" fill="#000000" transform="matrix(1.00, 0.00, -0.00, -1.00, 665.5, 615.9)">i</text><text xml:space="preserve" font-family="SegoeUI-Light,Segoe UI" font-size="35.0" fill="#000000" transform="matrix(1.00, 0.00, -0.00, -1.00, 672.7, 615.9)">r</text><text xml:space="preserve" font-family="SegoeUI-Light,Segoe UI" font-size="35.0" fill="#000000" transform="matrix(1.00, 0.00, -0.00, -1.00, 684.6, 615.9)">s</text><text xml:space="preserve" font-family="SegoeUI-Light,Segoe UI" font-size="35.0" fill="#000000" transform="matrix(1.00, 0.00, -0.00, -1.00, 698.2, 615.9)">t</text><text xml:space="preserve" font-family="SegoeUI-Light,Segoe UI" font-size="35.0" fill="#000000" transform="matrix(1.00, 0.00, -0.00, -1.00, 718.2, 615.9)">i</text><text xml:space="preserve" font-family="SegoeUI-Light,Segoe UI" font-size="35.0" fill="#000000" transform="matrix(1.00, 0.00, -0.00, -1.00, 725.3, 615.9)">s</text><text xml:space="preserve" font-family="SegoeUI-Light,Segoe UI" font-size="35.0" fill="#000000" transform="matrix(1.00, 0.00, -0.00, -1.00, 748.5, 615.9)">t</text><text xml:space="preserve" font-family="SegoeUI-Light,Segoe UI" font-size="35.0" fill="#000000" transform="matrix(1.00, 0.00, -0.00, -1.00, 758.9, 615.9)">o</text><text xml:space="preserve" font-family="SegoeUI-Light,Segoe UI" font-size="35.0" fill="#000000" transform="matrix(1.00, 0.00, -0.00, -1.00, 788.1, 615.9)">i</text><text xml:space="preserve" font-family="SegoeUI-Light,Segoe UI" font-size="35.0" fill="#000000" transform="matrix(1.00, 0.00, -0.00, -1.00, 795.3, 615.9)">n</text><text xml:space="preserve" font-family="SegoeUI-Light,Segoe UI" font-size="35.0" fill="#000000" transform="matrix(1.00, 0.00, -0.00, -1.00, 814.0, 615.9)">s</text><text xml:space="preserve" font-family="SegoeUI-Light,Segoe UI" font-size="35.0" fill="#000000" transform="matrix(1.00, 0.00, -0.00, -1.00, 827.6, 615.9)">e</text><text xml:space="preserve" font-family="SegoeUI-Light,Segoe UI" font-size="35.0" fill="#000000" transform="matrix(1.00, 0.00, -0.00, -1.00, 845.3, 615.9)">r</text><text xml:space="preserve" font-family="SegoeUI-Light,Segoe UI" font-size="35.0" fill="#000000" transform="matrix(1.00, 0.00, -0.00, -1.00, 858.4, 615.9)">t</text><text xml:space="preserve" font-family="SegoeUI-Light,Segoe UI" font-size="35.0" fill="#000000" transform="matrix(1.00, 0.00, -0.00, -1.00, 878.4, 615.9)">t</text><text xml:space="preserve" font-family="SegoeUI-Light,Segoe UI" font-size="35.0" fill="#000000" transform="matrix(1.00, 0.00, -0.00, -1.00, 888.8, 615.9)">h</text><text xml:space="preserve" font-family="SegoeUI-Light,Segoe UI" font-size="35.0" fill="#000000" transform="matrix(1.00, 0.00, -0.00, -1.00, 907.5, 615.9)">e</text><text xml:space="preserve" font-family="SegoeUI-Light,Segoe UI" font-size="35.0" fill="#000000" transform="matrix(1.00, 0.00, -0.00, -1.00, 934.7, 615.9)">c</text><text xml:space="preserve" font-family="SegoeUI-Light,Segoe UI" font-size="35.0" fill="#000000" transform="matrix(1.00, 0.00, -0.00, -1.00, 950.3, 615.9)">o</text><text xml:space="preserve" font-family="SegoeUI-Light,Segoe UI" font-size="35.0" fill="#000000" transform="matrix(1.00, 0.00, -0.00, -1.00, 969.9, 615.9)">m</text><text xml:space="preserve" font-family="SegoeUI-Light,Segoe UI" font-size="35.0" fill="#000000" transform="matrix(1.00, 0.00, -0.00, -1.00, 998.7, 615.9)">p</text><text xml:space="preserve" font-family="SegoeUI-Light,Segoe UI" font-size="35.0" fill="#000000" transform="matrix(1.00, 0.00, -0.00, -1.00, 1018.3, 615.9)">o</text><text xml:space="preserve" font-family="SegoeUI-Light,Segoe UI" font-size="35.0" fill="#000000" transform="matrix(1.00, 0.00, -0.00, -1.00, 1037.9, 615.9)">n</text><text xml:space="preserve" font-family="SegoeUI-Light,Segoe UI" font-size="35.0" fill="#000000" transform="matrix(1.00, 0.00, -0.00, -1.00, 1056.6, 615.9)">e</text><text xml:space="preserve" font-family="SegoeUI-Light,Segoe UI" font-size="35.0" fill="#000000" transform="matrix(1.00, 0.00, -0.00, -1.00, 1074.3, 615.9)">n</text><text xml:space="preserve" font-family="SegoeUI-Light,Segoe UI" font-size="35.0" fill="#000000" transform="matrix(1.00, 0.00, -0.00, -1.00, 1093.0, 615.9)">t</text><text xml:space="preserve" font-family="SegoeUI-Light,Segoe UI" font-size="35.0" fill="#000000" transform="matrix(1.00, 0.00, -0.00, -1.00, 1103.4, 615.9)">s</text><text xml:space="preserve" font-family="SegoeUI-Light,Segoe UI" font-size="35.0" fill="#000000" transform="matrix(1.00, 0.00, -0.00, -1.00, 1126.6, 615.9)">i</text><text xml:space="preserve" font-family="SegoeUI-Light,Segoe UI" font-size="35.0" fill="#000000" transform="matrix(1.00, 0.00, -0.00, -1.00, 1133.8, 615.9)">n</text><text xml:space="preserve" font-family="SegoeUI-Light,Segoe UI" font-size="35.0" fill="#000000" transform="matrix(1.00, 0.00, -0.00, -1.00, 1152.5, 615.9)">t</text><text xml:space="preserve" font-family="SegoeUI-Light,Segoe UI" font-size="35.0" fill="#000000" transform="matrix(1.00, 0.00, -0.00, -1.00, 1162.9, 615.9)">o</text><text xml:space="preserve" font-family="SegoeUI-Light,Segoe UI" font-size="35.0" fill="#000000" transform="matrix(1.00, 0.00, -0.00, -1.00, 1192.1, 615.9)">t</text><text xml:space="preserve" font-family="SegoeUI-Light,Segoe UI" font-size="35.0" fill="#000000" transform="matrix(1.00, 0.00, -0.00, -1.00, 1202.5, 615.9)">h</text><text xml:space="preserve" font-family="SegoeUI-Light,Segoe UI" font-size="35.0" fill="#000000" transform="matrix(1.00, 0.00, -0.00, -1.00, 1221.3, 615.9)">e</text><text xml:space="preserve" font-family="SegoeUI-Light,Segoe UI" font-size="35.0" fill="#000000" transform="matrix(1.00, 0.00, -0.00, -1.00, 808.5, 568.9)">b</text><text xml:space="preserve" font-family="SegoeUI-Light,Segoe UI" font-size="35.0" fill="#000000" transform="matrix(1.00, 0.00, -0.00, -1.00, 828.1, 568.9)">r</text><text xml:space="preserve" font-family="SegoeUI-Light,Segoe UI" font-size="35.0" fill="#000000" transform="matrix(1.00, 0.00, -0.00, -1.00, 838.9, 568.9)">e</text><text xml:space="preserve" font-family="SegoeUI-Light,Segoe UI" font-size="35.0" fill="#000000" transform="matrix(1.00, 0.00, -0.00, -1.00, 856.6, 568.9)">a</text><text xml:space="preserve" font-family="SegoeUI-Light,Segoe UI" font-size="35.0" fill="#000000" transform="matrix(1.00, 0.00, -0.00, -1.00, 873.9, 568.9)">d</text><text xml:space="preserve" font-family="SegoeUI-Light,Segoe UI" font-size="35.0" fill="#000000" transform="matrix(1.00, 0.00, -0.00, -1.00, 903.1, 568.9)">b</text><text xml:space="preserve" font-family="SegoeUI-Light,Segoe UI" font-size="35.0" fill="#000000" transform="matrix(1.00, 0.00, -0.00, -1.00, 922.7, 568.9)">o</text><text xml:space="preserve" font-family="SegoeUI-Light,Segoe UI" font-size="35.0" fill="#000000" transform="matrix(1.00, 0.00, -0.00, -1.00, 942.3, 568.9)">a</text><text xml:space="preserve" font-family="SegoeUI-Light,Segoe UI" font-size="35.0" fill="#000000" transform="matrix(1.00, 0.00, -0.00, -1.00, 959.6, 568.9)">r</text><text xml:space="preserve" font-family="SegoeUI-Light,Segoe UI" font-size="35.0" fill="#000000" transform="matrix(1.00, 0.00, -0.00, -1.00, 970.5, 568.9)">d</text><text xml:space="preserve" font-family="SegoeUI-Light,Segoe UI" font-size="35.0" fill="#000000" transform="matrix(1.00, 0.00, -0.00, -1.00, 990.1, 568.9)">.</text><text xml:space="preserve" font-family="SegoeUI-Light,Segoe UI" font-size="35.0" fill="#000000" transform="matrix(1.00, 0.00, -0.00, -1.00, 621.6, 474.9)">I</text><text xml:space="preserve" font-family="SegoeUI-Light,Segoe UI" font-size="35.0" fill="#000000" transform="matrix(1.00, 0.00, -0.00, -1.00, 629.6, 474.9)">n</text><text xml:space="preserve" font-family="SegoeUI-Light,Segoe UI" font-size="35.0" fill="#000000" transform="matrix(1.00, 0.00, -0.00, -1.00, 648.4, 474.9)">s</text><text xml:space="preserve" font-family="SegoeUI-Light,Segoe UI" font-size="35.0" fill="#000000" transform="matrix(1.00, 0.00, -0.00, -1.00, 661.9, 474.9)">e</text><text xml:space="preserve" font-family="SegoeUI-Light,Segoe UI" font-size="35.0" fill="#000000" transform="matrix(1.00, 0.00, -0.00, -1.00, 679.6, 474.9)">r</text><text xml:space="preserve" font-family="SegoeUI-Light,Segoe UI" font-size="35.0" fill="#000000" transform="matrix(1.00, 0.00, -0.00, -1.00, 692.7, 474.9)">t</text><text xml:space="preserve" font-family="SegoeUI-Light,Segoe UI" font-size="35.0" fill="#000000" transform="matrix(1.00, 0.00, -0.00, -1.00, 703.1, 474.9)">i</text><text xml:space="preserve" font-family="SegoeUI-Light,Segoe UI" font-size="35.0" fill="#000000" transform="matrix(1.00, 0.00, -0.00, -1.00, 710.3, 474.9)">n</text><text xml:space="preserve" font-family="SegoeUI-Light,Segoe UI" font-size="35.0" fill="#000000" transform="matrix(1.00, 0.00, -0.00, -1.00, 729.0, 474.9)">g</text><text xml:space="preserve" font-family="SegoeUI-Light,Segoe UI" font-size="35.0" fill="#000000" transform="matrix(1.00, 0.00, -0.00, -1.00, 758.2, 474.9)">L</text><text xml:space="preserve" font-family="SegoeUI-Light,Segoe UI" font-size="35.0" fill="#000000" transform="matrix(1.00, 0.00, -0.00, -1.00, 774.2, 474.9)">E</text><text xml:space="preserve" font-family="SegoeUI-Light,Segoe UI" font-size="35.0" fill="#000000" transform="matrix(1.00, 0.00, -0.00, -1.00, 791.7, 474.9)">D</text><text xml:space="preserve" font-family="SegoeUI-Light,Segoe UI" font-size="35.0" fill="#000000" transform="matrix(1.00, 0.00, -0.00, -1.00, 824.9, 474.9)">w</text><text xml:space="preserve" font-family="SegoeUI-Light,Segoe UI" font-size="35.0" fill="#000000" transform="matrix(1.00, 0.00, -0.00, -1.00, 848.6, 474.9)">i</text><text xml:space="preserve" font-family="SegoeUI-Light,Segoe UI" font-size="35.0" fill="#000000" transform="matrix(1.00, 0.00, -0.00, -1.00, 855.8, 474.9)">l</text><text xml:space="preserve" font-family="SegoeUI-Light,Segoe UI" font-size="35.0" fill="#000000" transform="matrix(1.00, 0.00, -0.00, -1.00, 862.9, 474.9)">l</text><text xml:space="preserve" font-family="SegoeUI-Light,Segoe UI" font-size="35.0" fill="#000000" transform="matrix(1.00, 0.00, -0.00, -1.00, 879.7, 474.9)">c</text><text xml:space="preserve" font-family="SegoeUI-Light,Segoe UI" font-size="35.0" fill="#000000" transform="matrix(1.00, 0.00, -0.00, -1.00, 895.2, 474.9)">o</text><text xml:space="preserve" font-family="SegoeUI-Light,Segoe UI" font-size="35.0" fill="#000000" transform="matrix(1.00, 0.00, -0.00, -1.00, 914.9, 474.9)">m</text><text xml:space="preserve" font-family="SegoeUI-Light,Segoe UI" font-size="35.0" fill="#000000" transform="matrix(1.00, 0.00, -0.00, -1.00, 943.6, 474.9)">e</text><text xml:space="preserve" font-family="SegoeUI-Light,Segoe UI" font-size="35.0" fill="#000000" transform="matrix(1.00, 0.00, -0.00, -1.00, 970.9, 474.9)">e</text><text xml:space="preserve" font-family="SegoeUI-Light,Segoe UI" font-size="35.0" fill="#000000" transform="matrix(1.00, 0.00, -0.00, -1.00, 988.6, 474.9)">a</text><text xml:space="preserve" font-family="SegoeUI-Light,Segoe UI" font-size="35.0" fill="#000000" transform="matrix(1.00, 0.00, -0.00, -1.00, 1005.9, 474.9)">s</text><text xml:space="preserve" font-family="SegoeUI-Light,Segoe UI" font-size="35.0" fill="#000000" transform="matrix(1.00, 0.00, -0.00, -1.00, 1019.4, 474.9)">y</text><text xml:space="preserve" font-family="SegoeUI-Light,Segoe UI" font-size="35.0" fill="#000000" transform="matrix(1.00, 0.00, -0.00, -1.00, 1032.6, 474.9)">,</text><text xml:space="preserve" font-family="SegoeUI-Light,Segoe UI" font-size="35.0" fill="#000000" transform="matrix(1.00, 0.00, -0.00, -1.00, 1050.0, 474.9)">h</text><text xml:space="preserve" font-family="SegoeUI-Light,Segoe UI" font-size="35.0" fill="#000000" transform="matrix(1.00, 0.00, -0.00, -1.00, 1068.7, 474.9)">o</text><text xml:space="preserve" font-family="SegoeUI-Light,Segoe UI" font-size="35.0" fill="#000000" transform="matrix(1.00, 0.00, -0.00, -1.00, 1088.4, 474.9)">w</text><text xml:space="preserve" font-family="SegoeUI-Light,Segoe UI" font-size="35.0" fill="#000000" transform="matrix(1.00, 0.00, -0.00, -1.00, 1112.1, 474.9)">e</text><text xml:space="preserve" font-family="SegoeUI-Light,Segoe UI" font-size="35.0" fill="#000000" transform="matrix(1.00, 0.00, -0.00, -1.00, 1129.7, 474.9)">v</text><text xml:space="preserve" font-family="SegoeUI-Light,Segoe UI" font-size="35.0" fill="#000000" transform="matrix(1.00, 0.00, -0.00, -1.00, 1145.6, 474.9)">e</text><text xml:space="preserve" font-family="SegoeUI-Light,Segoe UI" font-size="35.0" fill="#000000" transform="matrix(1.00, 0.00, -0.00, -1.00, 1163.3, 474.9)">r</text><text xml:space="preserve" font-family="SegoeUI-Light,Segoe UI" font-size="35.0" fill="#000000" transform="matrix(1.00, 0.00, -0.00, -1.00, 1176.9, 474.9)">;</text><text xml:space="preserve" font-family="SegoeUI-Light,Segoe UI" font-size="35.0" fill="#000000" transform="matrix(1.00, 0.00, -0.00, -1.00, 584.4, 427.9)">i</text><text xml:space="preserve" font-family="SegoeUI-Light,Segoe UI" font-size="35.0" fill="#000000" transform="matrix(1.00, 0.00, -0.00, -1.00, 591.5, 427.9)">n</text><text xml:space="preserve" font-family="SegoeUI-Light,Segoe UI" font-size="35.0" fill="#000000" transform="matrix(1.00, 0.00, -0.00, -1.00, 610.3, 427.9)">s</text><text xml:space="preserve" font-family="SegoeUI-Light,Segoe UI" font-size="35.0" fill="#000000" transform="matrix(1.00, 0.00, -0.00, -1.00, 623.8, 427.9)">e</text><text xml:space="preserve" font-family="SegoeUI-Light,Segoe UI" font-size="35.0" fill="#000000" transform="matrix(1.00, 0.00, -0.00, -1.00, 641.5, 427.9)">r</text><text xml:space="preserve" font-family="SegoeUI-Light,Segoe UI" font-size="35.0" fill="#000000" transform="matrix(1.00, 0.00, -0.00, -1.00, 654.6, 427.9)">t</text><text xml:space="preserve" font-family="SegoeUI-Light,Segoe UI" font-size="35.0" fill="#000000" transform="matrix(1.00, 0.00, -0.00, -1.00, 665.0, 427.9)">i</text><text xml:space="preserve" font-family="SegoeUI-Light,Segoe UI" font-size="35.0" fill="#000000" transform="matrix(1.00, 0.00, -0.00, -1.00, 672.2, 427.9)">n</text><text xml:space="preserve" font-family="SegoeUI-Light,Segoe UI" font-size="35.0" fill="#000000" transform="matrix(1.00, 0.00, -0.00, -1.00, 690.9, 427.9)">g</text><text xml:space="preserve" font-family="SegoeUI-Light,Segoe UI" font-size="35.0" fill="#000000" transform="matrix(1.00, 0.00, -0.00, -1.00, 720.1, 427.9)">t</text><text xml:space="preserve" font-family="SegoeUI-Light,Segoe UI" font-size="35.0" fill="#000000" transform="matrix(1.00, 0.00, -0.00, -1.00, 730.5, 427.9)">h</text><text xml:space="preserve" font-family="SegoeUI-Light,Segoe UI" font-size="35.0" fill="#000000" transform="matrix(1.00, 0.00, -0.00, -1.00, 749.2, 427.9)">e</text><text xml:space="preserve" font-family="SegoeUI-Light,Segoe UI" font-size="35.0" fill="#000000" transform="matrix(1.00, 0.00, -0.00, -1.00, 776.5, 427.9)">r</text><text xml:space="preserve" font-family="SegoeUI-Light,Segoe UI" font-size="35.0" fill="#000000" transform="matrix(1.00, 0.00, -0.00, -1.00, 787.3, 427.9)">e</text><text xml:space="preserve" font-family="SegoeUI-Light,Segoe UI" font-size="35.0" fill="#000000" transform="matrix(1.00, 0.00, -0.00, -1.00, 805.0, 427.9)">s</text><text xml:space="preserve" font-family="SegoeUI-Light,Segoe UI" font-size="35.0" fill="#000000" transform="matrix(1.00, 0.00, -0.00, -1.00, 818.6, 427.9)">i</text><text xml:space="preserve" font-family="SegoeUI-Light,Segoe UI" font-size="35.0" fill="#000000" transform="matrix(1.00, 0.00, -0.00, -1.00, 825.8, 427.9)">s</text><text xml:space="preserve" font-family="SegoeUI-Light,Segoe UI" font-size="35.0" fill="#000000" transform="matrix(1.00, 0.00, -0.00, -1.00, 839.4, 427.9)">t</text><text xml:space="preserve" font-family="SegoeUI-Light,Segoe UI" font-size="35.0" fill="#000000" transform="matrix(1.00, 0.00, -0.00, -1.00, 849.7, 427.9)">o</text><text xml:space="preserve" font-family="SegoeUI-Light,Segoe UI" font-size="35.0" fill="#000000" transform="matrix(1.00, 0.00, -0.00, -1.00, 869.4, 427.9)">r</text><text xml:space="preserve" font-family="SegoeUI-Light,Segoe UI" font-size="35.0" fill="#000000" transform="matrix(1.00, 0.00, -0.00, -1.00, 890.5, 427.9)">w</text><text xml:space="preserve" font-family="SegoeUI-Light,Segoe UI" font-size="35.0" fill="#000000" transform="matrix(1.00, 0.00, -0.00, -1.00, 914.2, 427.9)">i</text><text xml:space="preserve" font-family="SegoeUI-Light,Segoe UI" font-size="35.0" fill="#000000" transform="matrix(1.00, 0.00, -0.00, -1.00, 921.4, 427.9)">l</text><text xml:space="preserve" font-family="SegoeUI-Light,Segoe UI" font-size="35.0" fill="#000000" transform="matrix(1.00, 0.00, -0.00, -1.00, 928.6, 427.9)">l</text><text xml:space="preserve" font-family="SegoeUI-Light,Segoe UI" font-size="35.0" fill="#000000" transform="matrix(1.00, 0.00, -0.00, -1.00, 945.3, 427.9)">n</text><text xml:space="preserve" font-family="SegoeUI-Light,Segoe UI" font-size="35.0" fill="#000000" transform="matrix(1.00, 0.00, -0.00, -1.00, 964.1, 427.9)">e</text><text xml:space="preserve" font-family="SegoeUI-Light,Segoe UI" font-size="35.0" fill="#000000" transform="matrix(1.00, 0.00, -0.00, -1.00, 981.7, 427.9)">e</text><text xml:space="preserve" font-family="SegoeUI-Light,Segoe UI" font-size="35.0" fill="#000000" transform="matrix(1.00, 0.00, -0.00, -1.00, 999.4, 427.9)">d</text><text xml:space="preserve" font-family="SegoeUI-Light,Segoe UI" font-size="35.0" fill="#000000" transform="matrix(1.00, 0.00, -0.00, -1.00, 1028.6, 427.9)">a</text><text xml:space="preserve" font-family="SegoeUI-Light,Segoe UI" font-size="35.0" fill="#000000" transform="matrix(1.00, 0.00, -0.00, -1.00, 1055.5, 427.9)">f</text><text xml:space="preserve" font-family="SegoeUI-Light,Segoe UI" font-size="35.0" fill="#000000" transform="matrix(1.00, 0.00, -0.00, -1.00, 1065.1, 427.9)">e</text><text xml:space="preserve" font-family="SegoeUI-Light,Segoe UI" font-size="35.0" fill="#000000" transform="matrix(1.00, 0.00, -0.00, -1.00, 1082.8, 427.9)">w</text><text xml:space="preserve" font-family="SegoeUI-Light,Segoe UI" font-size="35.0" fill="#000000" transform="matrix(1.00, 0.00, -0.00, -1.00, 1116.1, 427.9)">t</text><text xml:space="preserve" font-family="SegoeUI-Light,Segoe UI" font-size="35.0" fill="#000000" transform="matrix(1.00, 0.00, -0.00, -1.00, 1126.5, 427.9)">w</text><text xml:space="preserve" font-family="SegoeUI-Light,Segoe UI" font-size="35.0" fill="#000000" transform="matrix(1.00, 0.00, -0.00, -1.00, 1150.1, 427.9)">e</text><text xml:space="preserve" font-family="SegoeUI-Light,Segoe UI" font-size="35.0" fill="#000000" transform="matrix(1.00, 0.00, -0.00, -1.00, 1167.8, 427.9)">a</text><text xml:space="preserve" font-family="SegoeUI-Light,Segoe UI" font-size="35.0" fill="#000000" transform="matrix(1.00, 0.00, -0.00, -1.00, 1185.1, 427.9)">k</text><text xml:space="preserve" font-family="SegoeUI-Light,Segoe UI" font-size="35.0" fill="#000000" transform="matrix(1.00, 0.00, -0.00, -1.00, 1200.6, 427.9)">s</text><text xml:space="preserve" font-family="SegoeUI-Light,Segoe UI" font-size="35.0" fill="#000000" transform="matrix(1.00, 0.00, -0.00, -1.00, 1214.2, 427.9)">.</text><text xml:space="preserve" font-family="SegoeUI-Light,Segoe UI" font-size="35.0" fill="#000000" transform="matrix(1.00, 0.00, -0.00, -1.00, 568.3, 333.9)">T</text><text xml:space="preserve" font-family="SegoeUI-Light,Segoe UI" font-size="35.0" fill="#000000" transform="matrix(1.00, 0.00, -0.00, -1.00, 580.7, 333.9)">o</text><text xml:space="preserve" font-family="SegoeUI-Light,Segoe UI" font-size="35.0" fill="#000000" transform="matrix(1.00, 0.00, -0.00, -1.00, 609.9, 333.9)">i</text><text xml:space="preserve" font-family="SegoeUI-Light,Segoe UI" font-size="35.0" fill="#000000" transform="matrix(1.00, 0.00, -0.00, -1.00, 617.1, 333.9)">n</text><text xml:space="preserve" font-family="SegoeUI-Light,Segoe UI" font-size="35.0" fill="#000000" transform="matrix(1.00, 0.00, -0.00, -1.00, 635.9, 333.9)">s</text><text xml:space="preserve" font-family="SegoeUI-Light,Segoe UI" font-size="35.0" fill="#000000" transform="matrix(1.00, 0.00, -0.00, -1.00, 649.4, 333.9)">e</text><text xml:space="preserve" font-family="SegoeUI-Light,Segoe UI" font-size="35.0" fill="#000000" transform="matrix(1.00, 0.00, -0.00, -1.00, 667.1, 333.9)">r</text><text xml:space="preserve" font-family="SegoeUI-Light,Segoe UI" font-size="35.0" fill="#000000" transform="matrix(1.00, 0.00, -0.00, -1.00, 680.2, 333.9)">t</text><text xml:space="preserve" font-family="SegoeUI-Light,Segoe UI" font-size="35.0" fill="#000000" transform="matrix(1.00, 0.00, -0.00, -1.00, 700.2, 333.9)">a</text><text xml:space="preserve" font-family="SegoeUI-Light,Segoe UI" font-size="35.0" fill="#000000" transform="matrix(1.00, 0.00, -0.00, -1.00, 727.1, 333.9)">r</text><text xml:space="preserve" font-family="SegoeUI-Light,Segoe UI" font-size="35.0" fill="#000000" transform="matrix(1.00, 0.00, -0.00, -1.00, 737.9, 333.9)">e</text><text xml:space="preserve" font-family="SegoeUI-Light,Segoe UI" font-size="35.0" fill="#000000" transform="matrix(1.00, 0.00, -0.00, -1.00, 755.6, 333.9)">s</text><text xml:space="preserve" font-family="SegoeUI-Light,Segoe UI" font-size="35.0" fill="#000000" transform="matrix(1.00, 0.00, -0.00, -1.00, 769.2, 333.9)">i</text><text xml:space="preserve" font-family="SegoeUI-Light,Segoe UI" font-size="35.0" fill="#000000" transform="matrix(1.00, 0.00, -0.00, -1.00, 776.3, 333.9)">s</text><text xml:space="preserve" font-family="SegoeUI-Light,Segoe UI" font-size="35.0" fill="#000000" transform="matrix(1.00, 0.00, -0.00, -1.00, 789.9, 333.9)">t</text><text xml:space="preserve" font-family="SegoeUI-Light,Segoe UI" font-size="35.0" fill="#000000" transform="matrix(1.00, 0.00, -0.00, -1.00, 800.3, 333.9)">o</text><text xml:space="preserve" font-family="SegoeUI-Light,Segoe UI" font-size="35.0" fill="#000000" transform="matrix(1.00, 0.00, -0.00, -1.00, 820.0, 333.9)">r</text><text xml:space="preserve" font-family="SegoeUI-Light,Segoe UI" font-size="35.0" fill="#000000" transform="matrix(1.00, 0.00, -0.00, -1.00, 841.1, 333.9)">i</text><text xml:space="preserve" font-family="SegoeUI-Light,Segoe UI" font-size="35.0" fill="#000000" transform="matrix(1.00, 0.00, -0.00, -1.00, 848.3, 333.9)">n</text><text xml:space="preserve" font-family="SegoeUI-Light,Segoe UI" font-size="35.0" fill="#000000" transform="matrix(1.00, 0.00, -0.00, -1.00, 867.0, 333.9)">t</text><text xml:space="preserve" font-family="SegoeUI-Light,Segoe UI" font-size="35.0" fill="#000000" transform="matrix(1.00, 0.00, -0.00, -1.00, 877.4, 333.9)">o</text><text xml:space="preserve" font-family="SegoeUI-Light,Segoe UI" font-size="35.0" fill="#000000" transform="matrix(1.00, 0.00, -0.00, -1.00, 906.6, 333.9)">t</text><text xml:space="preserve" font-family="SegoeUI-Light,Segoe UI" font-size="35.0" fill="#000000" transform="matrix(1.00, 0.00, -0.00, -1.00, 917.0, 333.9)">h</text><text xml:space="preserve" font-family="SegoeUI-Light,Segoe UI" font-size="35.0" fill="#000000" transform="matrix(1.00, 0.00, -0.00, -1.00, 935.7, 333.9)">e</text><text xml:space="preserve" font-family="SegoeUI-Light,Segoe UI" font-size="35.0" fill="#000000" transform="matrix(1.00, 0.00, -0.00, -1.00, 963.0, 333.9)">b</text><text xml:space="preserve" font-family="SegoeUI-Light,Segoe UI" font-size="35.0" fill="#000000" transform="matrix(1.00, 0.00, -0.00, -1.00, 982.6, 333.9)">r</text><text xml:space="preserve" font-family="SegoeUI-Light,Segoe UI" font-size="35.0" fill="#000000" transform="matrix(1.00, 0.00, -0.00, -1.00, 993.5, 333.9)">e</text><text xml:space="preserve" font-family="SegoeUI-Light,Segoe UI" font-size="35.0" fill="#000000" transform="matrix(1.00, 0.00, -0.00, -1.00, 1011.1, 333.9)">a</text><text xml:space="preserve" font-family="SegoeUI-Light,Segoe UI" font-size="35.0" fill="#000000" transform="matrix(1.00, 0.00, -0.00, -1.00, 1028.4, 333.9)">d</text><text xml:space="preserve" font-family="SegoeUI-Light,Segoe UI" font-size="35.0" fill="#000000" transform="matrix(1.00, 0.00, -0.00, -1.00, 1057.6, 333.9)">b</text><text xml:space="preserve" font-family="SegoeUI-Light,Segoe UI" font-size="35.0" fill="#000000" transform="matrix(1.00, 0.00, -0.00, -1.00, 1077.2, 333.9)">o</text><text xml:space="preserve" font-family="SegoeUI-Light,Segoe UI" font-size="35.0" fill="#000000" transform="matrix(1.00, 0.00, -0.00, -1.00, 1096.9, 333.9)">a</text><text xml:space="preserve" font-family="SegoeUI-Light,Segoe UI" font-size="35.0" fill="#000000" transform="matrix(1.00, 0.00, -0.00, -1.00, 1114.1, 333.9)">r</text><text xml:space="preserve" font-family="SegoeUI-Light,Segoe UI" font-size="35.0" fill="#000000" transform="matrix(1.00, 0.00, -0.00, -1.00, 1125.0, 333.9)">d</text><text xml:space="preserve" font-family="SegoeUI-Light,Segoe UI" font-size="35.0" fill="#000000" transform="matrix(1.00, 0.00, -0.00, -1.00, 1144.6, 333.9)">,</text><text xml:space="preserve" font-family="SegoeUI-Light,Segoe UI" font-size="35.0" fill="#000000" transform="matrix(1.00, 0.00, -0.00, -1.00, 1162.0, 333.9)">y</text><text xml:space="preserve" font-family="SegoeUI-Light,Segoe UI" font-size="35.0" fill="#000000" transform="matrix(1.00, 0.00, -0.00, -1.00, 1177.8, 333.9)">o</text><text xml:space="preserve" font-family="SegoeUI-Light,Segoe UI" font-size="35.0" fill="#000000" transform="matrix(1.00, 0.00, -0.00, -1.00, 1197.5, 333.9)">u</text><text xml:space="preserve" font-family="SegoeUI-Light,Segoe UI" font-size="35.0" fill="#000000" transform="matrix(1.00, 0.00, -0.00, -1.00, 1216.2, 333.9)">’</text><text xml:space="preserve" font-family="SegoeUI-Light,Segoe UI" font-size="35.0" fill="#000000" transform="matrix(1.00, 0.00, -0.00, -1.00, 1223.7, 333.9)">l</text><text xml:space="preserve" font-family="SegoeUI-Light,Segoe UI" font-size="35.0" fill="#000000" transform="matrix(1.00, 0.00, -0.00, -1.00, 1230.9, 333.9)">l</text><text xml:space="preserve" font-family="SegoeUI-Light,Segoe UI" font-size="35.0" fill="#000000" transform="matrix(1.00, 0.00, -0.00, -1.00, 593.2, 286.9)">n</text><text xml:space="preserve" font-family="SegoeUI-Light,Segoe UI" font-size="35.0" fill="#000000" transform="matrix(1.00, 0.00, -0.00, -1.00, 611.9, 286.9)">e</text><text xml:space="preserve" font-family="SegoeUI-Light,Segoe UI" font-size="35.0" fill="#000000" transform="matrix(1.00, 0.00, -0.00, -1.00, 629.6, 286.9)">e</text><text xml:space="preserve" font-family="SegoeUI-Light,Segoe UI" font-size="35.0" fill="#000000" transform="matrix(1.00, 0.00, -0.00, -1.00, 647.3, 286.9)">d</text><text xml:space="preserve" font-family="SegoeUI-Light,Segoe UI" font-size="35.0" fill="#000000" transform="matrix(1.00, 0.00, -0.00, -1.00, 676.5, 286.9)">t</text><text xml:space="preserve" font-family="SegoeUI-Light,Segoe UI" font-size="35.0" fill="#000000" transform="matrix(1.00, 0.00, -0.00, -1.00, 686.9, 286.9)">o</text><text xml:space="preserve" font-family="SegoeUI-Light,Segoe UI" font-size="35.0" fill="#000000" transform="matrix(1.00, 0.00, -0.00, -1.00, 716.1, 286.9)">b</text><text xml:space="preserve" font-family="SegoeUI-Light,Segoe UI" font-size="35.0" fill="#000000" transform="matrix(1.00, 0.00, -0.00, -1.00, 735.7, 286.9)">e</text><text xml:space="preserve" font-family="SegoeUI-Light,Segoe UI" font-size="35.0" fill="#000000" transform="matrix(1.00, 0.00, -0.00, -1.00, 753.4, 286.9)">n</text><text xml:space="preserve" font-family="SegoeUI-Light,Segoe UI" font-size="35.0" fill="#000000" transform="matrix(1.00, 0.00, -0.00, -1.00, 772.1, 286.9)">d</text><text xml:space="preserve" font-family="SegoeUI-Light,Segoe UI" font-size="35.0" fill="#000000" transform="matrix(1.00, 0.00, -0.00, -1.00, 801.3, 286.9)">i</text><text xml:space="preserve" font-family="SegoeUI-Light,Segoe UI" font-size="35.0" fill="#000000" transform="matrix(1.00, 0.00, -0.00, -1.00, 808.5, 286.9)">t</text><text xml:space="preserve" font-family="SegoeUI-Light,Segoe UI" font-size="35.0" fill="#000000" transform="matrix(1.00, 0.00, -0.00, -1.00, 818.8, 286.9)">s</text><text xml:space="preserve" font-family="SegoeUI-Light,Segoe UI" font-size="35.0" fill="#000000" transform="matrix(1.00, 0.00, -0.00, -1.00, 842.0, 286.9)">l</text><text xml:space="preserve" font-family="SegoeUI-Light,Segoe UI" font-size="35.0" fill="#000000" transform="matrix(1.00, 0.00, -0.00, -1.00, 849.2, 286.9)">e</text><text xml:space="preserve" font-family="SegoeUI-Light,Segoe UI" font-size="35.0" fill="#000000" transform="matrix(1.00, 0.00, -0.00, -1.00, 866.9, 286.9)">g</text><text xml:space="preserve" font-family="SegoeUI-Light,Segoe UI" font-size="35.0" fill="#000000" transform="matrix(1.00, 0.00, -0.00, -1.00, 886.5, 286.9)">s</text><text xml:space="preserve" font-family="SegoeUI-Light,Segoe UI" font-size="35.0" fill="#000000" transform="matrix(1.00, 0.00, -0.00, -1.00, 900.1, 286.9)">,</text><text xml:space="preserve" font-family="SegoeUI-Light,Segoe UI" font-size="35.0" fill="#000000" transform="matrix(1.00, 0.00, -0.00, -1.00, 917.4, 286.9)">9</text><text xml:space="preserve" font-family="SegoeUI-Light,Segoe UI" font-size="35.0" fill="#000000" transform="matrix(1.00, 0.00, -0.00, -1.00, 935.4, 286.9)">0</text><text xml:space="preserve" font-family="SegoeUI-Light,Segoe UI" font-size="35.0" fill="#000000" transform="matrix(1.00, 0.00, -0.00, -1.00, 953.5, 286.9)">*</text><text xml:space="preserve" font-family="SegoeUI-Light,Segoe UI" font-size="35.0" fill="#000000" transform="matrix(1.00, 0.00, -0.00, -1.00, 977.3, 286.9)">d</text><text xml:space="preserve" font-family="SegoeUI-Light,Segoe UI" font-size="35.0" fill="#000000" transform="matrix(1.00, 0.00, -0.00, -1.00, 996.9, 286.9)">e</text><text xml:space="preserve" font-family="SegoeUI-Light,Segoe UI" font-size="35.0" fill="#000000" transform="matrix(1.00, 0.00, -0.00, -1.00, 1014.5, 286.9)">g</text><text xml:space="preserve" font-family="SegoeUI-Light,Segoe UI" font-size="35.0" fill="#000000" transform="matrix(1.00, 0.00, -0.00, -1.00, 1034.1, 286.9)">r</text><text xml:space="preserve" font-family="SegoeUI-Light,Segoe UI" font-size="35.0" fill="#000000" transform="matrix(1.00, 0.00, -0.00, -1.00, 1045.0, 286.9)">e</text><text xml:space="preserve" font-family="SegoeUI-Light,Segoe UI" font-size="35.0" fill="#000000" transform="matrix(1.00, 0.00, -0.00, -1.00, 1062.7, 286.9)">e</text><text xml:space="preserve" font-family="SegoeUI-Light,Segoe UI" font-size="35.0" fill="#000000" transform="matrix(1.00, 0.00, -0.00, -1.00, 1080.3, 286.9)">s</text><text xml:space="preserve" font-family="SegoeUI-Light,Segoe UI" font-size="35.0" fill="#000000" transform="matrix(1.00, 0.00, -0.00, -1.00, 1103.5, 286.9)">f</text><text xml:space="preserve" font-family="SegoeUI-Light,Segoe UI" font-size="35.0" fill="#000000" transform="matrix(1.00, 0.00, -0.00, -1.00, 1113.2, 286.9)">r</text><text xml:space="preserve" font-family="SegoeUI-Light,Segoe UI" font-size="35.0" fill="#000000" transform="matrix(1.00, 0.00, -0.00, -1.00, 1124.0, 286.9)">o</text><text xml:space="preserve" font-family="SegoeUI-Light,Segoe UI" font-size="35.0" fill="#000000" transform="matrix(1.00, 0.00, -0.00, -1.00, 1143.7, 286.9)">m</text><text xml:space="preserve" font-family="SegoeUI-Light,Segoe UI" font-size="35.0" fill="#000000" transform="matrix(1.00, 0.00, -0.00, -1.00, 1182.0, 286.9)">i</text><text xml:space="preserve" font-family="SegoeUI-Light,Segoe UI" font-size="35.0" fill="#000000" transform="matrix(1.00, 0.00, -0.00, -1.00, 1189.2, 286.9)">t</text><text xml:space="preserve" font-family="SegoeUI-Light,Segoe UI" font-size="35.0" fill="#000000" transform="matrix(1.00, 0.00, -0.00, -1.00, 1199.6, 286.9)">s</text><text xml:space="preserve" font-family="SegoeUI-Light,Segoe UI" font-size="35.0" fill="#000000" transform="matrix(1.00, 0.00, -0.00, -1.00, 784.8, 239.9)">c</text><text xml:space="preserve" font-family="SegoeUI-Light,Segoe UI" font-size="35.0" fill="#000000" transform="matrix(1.00, 0.00, -0.00, -1.00, 800.3, 239.9)">u</text><text xml:space="preserve" font-family="SegoeUI-Light,Segoe UI" font-size="35.0" fill="#000000" transform="matrix(1.00, 0.00, -0.00, -1.00, 819.1, 239.9)">r</text><text xml:space="preserve" font-family="SegoeUI-Light,Segoe UI" font-size="35.0" fill="#000000" transform="matrix(1.00, 0.00, -0.00, -1.00, 830.6, 239.9)">r</text><text xml:space="preserve" font-family="SegoeUI-Light,Segoe UI" font-size="35.0" fill="#000000" transform="matrix(1.00, 0.00, -0.00, -1.00, 841.5, 239.9)">e</text><text xml:space="preserve" font-family="SegoeUI-Light,Segoe UI" font-size="35.0" fill="#000000" transform="matrix(1.00, 0.00, -0.00, -1.00, 859.1, 239.9)">n</text><text xml:space="preserve" font-family="SegoeUI-Light,Segoe UI" font-size="35.0" fill="#000000" transform="matrix(1.00, 0.00, -0.00, -1.00, 877.9, 239.9)">t</text><text xml:space="preserve" font-family="SegoeUI-Light,Segoe UI" font-size="35.0" fill="#000000" transform="matrix(1.00, 0.00, -0.00, -1.00, 897.8, 239.9)">p</text><text xml:space="preserve" font-family="SegoeUI-Light,Segoe UI" font-size="35.0" fill="#000000" transform="matrix(1.00, 0.00, -0.00, -1.00, 917.5, 239.9)">o</text><text xml:space="preserve" font-family="SegoeUI-Light,Segoe UI" font-size="35.0" fill="#000000" transform="matrix(1.00, 0.00, -0.00, -1.00, 937.1, 239.9)">s</text><text xml:space="preserve" font-family="SegoeUI-Light,Segoe UI" font-size="35.0" fill="#000000" transform="matrix(1.00, 0.00, -0.00, -1.00, 950.7, 239.9)">i</text><text xml:space="preserve" font-family="SegoeUI-Light,Segoe UI" font-size="35.0" fill="#000000" transform="matrix(1.00, 0.00, -0.00, -1.00, 957.9, 239.9)">t</text><text xml:space="preserve" font-family="SegoeUI-Light,Segoe UI" font-size="35.0" fill="#000000" transform="matrix(1.00, 0.00, -0.00, -1.00, 968.2, 239.9)">i</text><text xml:space="preserve" font-family="SegoeUI-Light,Segoe UI" font-size="35.0" fill="#000000" transform="matrix(1.00, 0.00, -0.00, -1.00, 975.4, 239.9)">o</text><text xml:space="preserve" font-family="SegoeUI-Light,Segoe UI" font-size="35.0" fill="#000000" transform="matrix(1.00, 0.00, -0.00, -1.00, 995.1, 239.9)">n</text><text xml:space="preserve" font-family="SegoeUI-Light,Segoe UI" font-size="35.0" fill="#000000" transform="matrix(1.00, 0.00, -0.00, -1.00, 1013.8, 239.9)">.</text><image xlink:href="../../BED4E2EF-5046-4C4D-A73A-2E2E143FD3A8/assets/3BF5180710C48ED249B5F98B539F4359.png" width="250.00" height="202.00" transform="matrix(2.02, 0.00, -0.00, -2.02, 1379.0, 671.0)"></image></g></svg>