<?xml version="1.0" encoding="UTF-8" standalone="no"?><svg xmlns="http://www.w3.org/2000/svg" xmlns:xlink="http://www.w3.org/1999/xlink" clip-rule="evenodd" stroke-miterlimit="10" viewBox="0 0 651 118"><desc>SVG generated by Keynote</desc><defs></defs><g transform="matrix(1.00, 0.00, -0.00, -1.00, 0.0, 118.0)"><text xml:space="preserve" font-family="SegoeUI-Light,Segoe UI" font-size="50.0" fill="#000000" transform="matrix(1.00, 0.00, -0.00, -1.00, 223.7, 80.9)">I</text><text xml:space="preserve" font-family="SegoeUI-Light,Segoe UI" font-size="50.0" fill="#000000" transform="matrix(1.00, 0.00, -0.00, -1.00, 235.1, 80.9)"> </text><text xml:space="preserve" font-family="SegoeUI-Light,Segoe UI" font-size="50.0" fill="#000000" transform="matrix(1.00, 0.00, -0.00, -1.00, 248.7, 80.9)">a</text><text xml:space="preserve" font-family="SegoeUI-Light,Segoe UI" font-size="50.0" fill="#000000" transform="matrix(1.00, 0.00, -0.00, -1.00, 273.5, 80.9)">m</text><text xml:space="preserve" font-family="SegoeUI-Light,Segoe UI" font-size="50.0" fill="#000000" transform="matrix(1.00, 0.00, -0.00, -1.00, 314.5, 80.9)"> </text><text xml:space="preserve" font-family="SegoeUI-Light,Segoe UI" font-size="50.0" fill="#000000" transform="matrix(1.00, 0.00, -0.00, -1.00, 328.2, 80.9)">M</text><text xml:space="preserve" font-family="SegoeUI-Light,Segoe UI" font-size="50.0" fill="#000000" transform="matrix(1.00, 0.00, -0.00, -1.00, 369.9, 80.9)">i</text><text xml:space="preserve" font-family="SegoeUI-Light,Segoe UI" font-size="50.0" fill="#000000" transform="matrix(1.00, 0.00, -0.00, -1.00, 380.1, 80.9)">m</text><text xml:space="preserve" font-family="SegoeUI-Light,Segoe UI" font-size="50.0" fill="#000000" transform="matrix(1.00, 0.00, -0.00, -1.00, 421.2, 80.9)">.</text><text xml:space="preserve" font-family="SegoeUI-Light,Segoe UI" font-size="50.0" fill="#000000" transform="matrix(1.00, 0.00, -0.00, -1.00, 432.3, 80.9)"> </text><text xml:space="preserve" font-family="SegoeUI-Light,Segoe UI" font-size="50.0" fill="#000000" transform="matrix(1.00, 0.00, -0.00, -1.00, 1.4, 13.9)">A</text><text xml:space="preserve" font-family="SegoeUI-Light,Segoe UI" font-size="50.0" fill="#000000" transform="matrix(1.00, 0.00, -0.00, -1.00, 32.8, 13.9)">n</text><text xml:space="preserve" font-family="SegoeUI-Light,Segoe UI" font-size="50.0" fill="#000000" transform="matrix(1.00, 0.00, -0.00, -1.00, 59.6, 13.9)">d</text><text xml:space="preserve" font-family="SegoeUI-Light,Segoe UI" font-size="50.0" fill="#000000" transform="matrix(1.00, 0.00, -0.00, -1.00, 87.6, 13.9)"> </text><text xml:space="preserve" font-family="SegoeUI-Light,Segoe UI" font-size="50.0" fill="#000000" transform="matrix(1.00, 0.00, -0.00, -1.00, 101.3, 13.9)">I</text><text xml:space="preserve" font-family="SegoeUI-Light,Segoe UI" font-size="50.0" fill="#000000" transform="matrix(1.00, 0.00, -0.00, -1.00, 112.7, 13.9)"> </text><text xml:space="preserve" font-family="SegoeUI-Light,Segoe UI" font-size="50.0" fill="#000000" transform="matrix(1.00, 0.00, -0.00, -1.00, 126.4, 13.9)">h</text><text xml:space="preserve" font-family="SegoeUI-Light,Segoe UI" font-size="50.0" fill="#000000" transform="matrix(1.00, 0.00, -0.00, -1.00, 153.1, 13.9)">a</text><text xml:space="preserve" font-family="SegoeUI-Light,Segoe UI" font-size="50.0" fill="#000000" transform="matrix(1.00, 0.00, -0.00, -1.00, 177.8, 13.9)">v</text><text xml:space="preserve" font-family="SegoeUI-Light,Segoe UI" font-size="50.0" fill="#000000" transform="matrix(1.00, 0.00, -0.00, -1.00, 200.5, 13.9)">e</text><text xml:space="preserve" font-family="SegoeUI-Light,Segoe UI" font-size="50.0" fill="#000000" transform="matrix(1.00, 0.00, -0.00, -1.00, 225.7, 13.9)"> </text><text xml:space="preserve" font-family="SegoeUI-Light,Segoe UI" font-size="50.0" fill="#000000" transform="matrix(1.00, 0.00, -0.00, -1.00, 239.4, 13.9)">a</text><text xml:space="preserve" font-family="SegoeUI-Light,Segoe UI" font-size="50.0" fill="#000000" transform="matrix(1.00, 0.00, -0.00, -1.00, 264.1, 13.9)"> </text><text xml:space="preserve" font-family="SegoeUI-Light,Segoe UI" font-size="50.0" fill="#000000" transform="matrix(1.00, 0.00, -0.00, -1.00, 277.8, 13.9)">c</text><text xml:space="preserve" font-family="SegoeUI-Light,Segoe UI" font-size="50.0" fill="#000000" transform="matrix(1.00, 0.00, -0.00, -1.00, 300.0, 13.9)">h</text><text xml:space="preserve" font-family="SegoeUI-Light,Segoe UI" font-size="50.0" fill="#000000" transform="matrix(1.00, 0.00, -0.00, -1.00, 326.8, 13.9)">a</text><text xml:space="preserve" font-family="SegoeUI-Light,Segoe UI" font-size="50.0" fill="#000000" transform="matrix(1.00, 0.00, -0.00, -1.00, 351.5, 13.9)">l</text><text xml:space="preserve" font-family="SegoeUI-Light,Segoe UI" font-size="50.0" fill="#000000" transform="matrix(1.00, 0.00, -0.00, -1.00, 361.7, 13.9)">l</text><text xml:space="preserve" font-family="SegoeUI-Light,Segoe UI" font-size="50.0" fill="#000000" transform="matrix(1.00, 0.00, -0.00, -1.00, 372.0, 13.9)">e</text><text xml:space="preserve" font-family="SegoeUI-Light,Segoe UI" font-size="50.0" fill="#000000" transform="matrix(1.00, 0.00, -0.00, -1.00, 397.2, 13.9)">n</text><text xml:space="preserve" font-family="SegoeUI-Light,Segoe UI" font-size="50.0" fill="#000000" transform="matrix(1.00, 0.00, -0.00, -1.00, 424.0, 13.9)">g</text><text xml:space="preserve" font-family="SegoeUI-Light,Segoe UI" font-size="50.0" fill="#000000" transform="matrix(1.00, 0.00, -0.00, -1.00, 452.0, 13.9)">e</text><text xml:space="preserve" font-family="SegoeUI-Light,Segoe UI" font-size="50.0" fill="#000000" transform="matrix(1.00, 0.00, -0.00, -1.00, 477.3, 13.9)"> </text><text xml:space="preserve" font-family="SegoeUI-Light,Segoe UI" font-size="50.0" fill="#000000" transform="matrix(1.00, 0.00, -0.00, -1.00, 491.0, 13.9)">f</text><text xml:space="preserve" font-family="SegoeUI-Light,Segoe UI" font-size="50.0" fill="#000000" transform="matrix(1.00, 0.00, -0.00, -1.00, 504.7, 13.9)">o</text><text xml:space="preserve" font-family="SegoeUI-Light,Segoe UI" font-size="50.0" fill="#000000" transform="matrix(1.00, 0.00, -0.00, -1.00, 532.8, 13.9)">r</text><text xml:space="preserve" font-family="SegoeUI-Light,Segoe UI" font-size="50.0" fill="#000000" transform="matrix(1.00, 0.00, -0.00, -1.00, 549.3, 13.9)"> </text><text xml:space="preserve" font-family="SegoeUI-Light,Segoe UI" font-size="50.0" fill="#000000" transform="matrix(1.00, 0.00, -0.00, -1.00, 563.0, 13.9)">y</text><text xml:space="preserve" font-family="SegoeUI-Light,Segoe UI" font-size="50.0" fill="#000000" transform="matrix(1.00, 0.00, -0.00, -1.00, 585.7, 13.9)">o</text><text xml:space="preserve" font-family="SegoeUI-Light,Segoe UI" font-size="50.0" fill="#000000" transform="matrix(1.00, 0.00, -0.00, -1.00, 613.7, 13.9)">u</text><text xml:space="preserve" font-family="SegoeUI-Light,Segoe UI" font-size="50.0" fill="#000000" transform="matrix(1.00, 0.00, -0.00, -1.00, 640.5, 13.9)">!</text></g></svg>