<?xml version="1.0" encoding="UTF-8" standalone="no"?><svg xmlns="http://www.w3.org/2000/svg" xmlns:xlink="http://www.w3.org/1999/xlink" clip-rule="evenodd" stroke-miterlimit="10" viewBox="0 0 191 25"><desc>SVG generated by Keynote</desc><defs></defs><g transform="matrix(1.00, 0.00, -0.00, -1.00, 0.0, 25.0)"><text xml:space="preserve" font-family="SegoeUI-Light,Segoe UI" font-size="28.0" fill="#000000" transform="matrix(1.00, 0.00, -0.00, -1.00, 0.8, 2.4)">c</text><text xml:space="preserve" font-family="SegoeUI-Light,Segoe UI" font-size="28.0" fill="#000000" transform="matrix(1.00, 0.00, -0.00, -1.00, 13.2, 2.4)">l</text><text xml:space="preserve" font-family="SegoeUI-Light,Segoe UI" font-size="28.0" fill="#000000" transform="matrix(1.00, 0.00, -0.00, -1.00, 19.0, 2.4)">i</text><text xml:space="preserve" font-family="SegoeUI-Light,Segoe UI" font-size="28.0" fill="#000000" transform="matrix(1.00, 0.00, -0.00, -1.00, 24.7, 2.4)">c</text><text xml:space="preserve" font-family="SegoeUI-Light,Segoe UI" font-size="28.0" fill="#000000" transform="matrix(1.00, 0.00, -0.00, -1.00, 37.1, 2.4)">k</text><text xml:space="preserve" font-family="SegoeUI-Light,Segoe UI" font-size="28.0" fill="#000000" transform="matrix(1.00, 0.00, -0.00, -1.00, 49.6, 2.4)"> </text><text xml:space="preserve" font-family="SegoeUI-Light,Segoe UI" font-size="28.0" fill="#000000" transform="matrix(1.00, 0.00, -0.00, -1.00, 57.2, 2.4)">t</text><text xml:space="preserve" font-family="SegoeUI-Light,Segoe UI" font-size="28.0" fill="#000000" transform="matrix(1.00, 0.00, -0.00, -1.00, 65.5, 2.4)">o</text><text xml:space="preserve" font-family="SegoeUI-Light,Segoe UI" font-size="28.0" fill="#000000" transform="matrix(1.00, 0.00, -0.00, -1.00, 81.2, 2.4)"> </text><text xml:space="preserve" font-family="SegoeUI-Light,Segoe UI" font-size="28.0" fill="#000000" transform="matrix(1.00, 0.00, -0.00, -1.00, 88.9, 2.4)">c</text><text xml:space="preserve" font-family="SegoeUI-Light,Segoe UI" font-size="28.0" fill="#000000" transform="matrix(1.00, 0.00, -0.00, -1.00, 101.3, 2.4)">o</text><text xml:space="preserve" font-family="SegoeUI-Light,Segoe UI" font-size="28.0" fill="#000000" transform="matrix(1.00, 0.00, -0.00, -1.00, 117.0, 2.4)">n</text><text xml:space="preserve" font-family="SegoeUI-Light,Segoe UI" font-size="28.0" fill="#000000" transform="matrix(1.00, 0.00, -0.00, -1.00, 132.0, 2.4)">t</text><text xml:space="preserve" font-family="SegoeUI-Light,Segoe UI" font-size="28.0" fill="#000000" transform="matrix(1.00, 0.00, -0.00, -1.00, 140.3, 2.4)">i</text><text xml:space="preserve" font-family="SegoeUI-Light,Segoe UI" font-size="28.0" fill="#000000" transform="matrix(1.00, 0.00, -0.00, -1.00, 146.1, 2.4)">n</text><text xml:space="preserve" font-family="SegoeUI-Light,Segoe UI" font-size="28.0" fill="#000000" transform="matrix(1.00, 0.00, -0.00, -1.00, 161.1, 2.4)">u</text><text xml:space="preserve" font-family="SegoeUI-Light,Segoe UI" font-size="28.0" fill="#000000" transform="matrix(1.00, 0.00, -0.00, -1.00, 176.1, 2.4)">e</text></g></svg>