<?xml version="1.0" encoding="UTF-8" standalone="no"?><svg xmlns="http://www.w3.org/2000/svg" xmlns:xlink="http://www.w3.org/1999/xlink" clip-rule="evenodd" stroke-miterlimit="10" viewBox="0 0 522 102"><desc>SVG generated by Keynote</desc><defs></defs><g transform="matrix(1.00, 0.00, -0.00, -1.00, 0.0, 102.0)"><text xml:space="preserve" font-family="SegoeUI-Light,Segoe UI" font-size="100.0" fill="#A6AAA8" transform="matrix(1.00, 0.00, -0.00, -1.00, -6.1, 25.9)">I</text><text xml:space="preserve" font-family="SegoeUI-Light,Segoe UI" font-size="100.0" fill="#A6AAA8" transform="matrix(1.00, 0.00, -0.00, -1.00, 16.7, 25.9)">n</text><text xml:space="preserve" font-family="SegoeUI-Light,Segoe UI" font-size="100.0" fill="#A6AAA8" transform="matrix(1.00, 0.00, -0.00, -1.00, 70.2, 25.9)">s</text><text xml:space="preserve" font-family="SegoeUI-Light,Segoe UI" font-size="100.0" fill="#A6AAA8" transform="matrix(1.00, 0.00, -0.00, -1.00, 109.0, 25.9)">t</text><text xml:space="preserve" font-family="SegoeUI-Light,Segoe UI" font-size="100.0" fill="#A6AAA8" transform="matrix(1.00, 0.00, -0.00, -1.00, 138.7, 25.9)">a</text><text xml:space="preserve" font-family="SegoeUI-Light,Segoe UI" font-size="100.0" fill="#A6AAA8" transform="matrix(1.00, 0.00, -0.00, -1.00, 188.1, 25.9)">l</text><text xml:space="preserve" font-family="SegoeUI-Light,Segoe UI" font-size="100.0" fill="#A6AAA8" transform="matrix(1.00, 0.00, -0.00, -1.00, 208.7, 25.9)">l</text><text xml:space="preserve" font-family="SegoeUI-Light,Segoe UI" font-size="100.0" fill="#A6AAA8" transform="matrix(1.00, 0.00, -0.00, -1.00, 229.2, 25.9)">i</text><text xml:space="preserve" font-family="SegoeUI-Light,Segoe UI" font-size="100.0" fill="#A6AAA8" transform="matrix(1.00, 0.00, -0.00, -1.00, 249.7, 25.9)">n</text><text xml:space="preserve" font-family="SegoeUI-Light,Segoe UI" font-size="100.0" fill="#A6AAA8" transform="matrix(1.00, 0.00, -0.00, -1.00, 303.2, 25.9)">g</text><text xml:space="preserve" font-family="SegoeUI-Light,Segoe UI" font-size="100.0" fill="#A6AAA8" transform="matrix(1.00, 0.00, -0.00, -1.00, 359.2, 25.9)"> </text><text xml:space="preserve" font-family="SegoeUI-Light,Segoe UI" font-size="100.0" fill="#A6AAA8" transform="matrix(1.00, 0.00, -0.00, -1.00, 386.6, 25.9)">I</text><text xml:space="preserve" font-family="SegoeUI-Light,Segoe UI" font-size="100.0" fill="#A6AAA8" transform="matrix(1.00, 0.00, -0.00, -1.00, 409.4, 25.9)">D</text><text xml:space="preserve" font-family="SegoeUI-Light,Segoe UI" font-size="100.0" fill="#A6AAA8" transform="matrix(1.00, 0.00, -0.00, -1.00, 476.8, 25.9)">E</text></g></svg>