<?xml version="1.0" encoding="UTF-8" standalone="no"?><svg xmlns="http://www.w3.org/2000/svg" xmlns:xlink="http://www.w3.org/1999/xlink" clip-rule="evenodd" stroke-miterlimit="10" viewBox="0 0 1920 1080"><desc>SVG generated by Keynote</desc><defs></defs><g transform="matrix(1.00, 0.00, -0.00, -1.00, 0.0, 1080.0)"><path d="M 0.0 1080.0 L 1920.0 1080.0 L 1920.0 0.0 L 0.0 0.0 Z M 0.0 1080.0 " fill="#FEFFFF"></path><image xlink:href="../../F1A990F5-4D7A-4873-8BA9-AFE020F768BD/assets/2F071EC39E02784960643E7F5BBC72A8.png" width="200.00" height="200.00" transform="matrix(1.83, 0.00, -0.00, -1.83, 242.0, 738.0)"></image><g><clipPath id="clip0x7f8737792d80"><path d="M 966.0 810.9 L 1717.4 810.9 L 1717.4 918.9 L 966.0 918.9 Z M 966.0 810.9 "></path></clipPath><g clip-path="url(#clip0x7f8737792d80)"><image xlink:href="../../76EA4090-F291-457B-B962-4B2F171C1F14/assets/7CAFB60F03D52FB2DF531DADAD215553.png" width="749.00" height="106.00" transform="matrix(1.00, 0.00, -0.00, -1.00, 967.0, 917.9)" opacity="0.50"></image><path d="M 970.0 831.9 L 970.0 901.9 C 970.0 910.2 976.7 917.0 985.0 917.0 L 1698.4 917.0 C 1706.7 917.0 1713.0 910.2 1713.0 901.9 L 1713.0 831.9 C 1713.0 823.6 1706.7 817.0 1698.4 817.0 L 985.0 817.0 C 976.7 817.0 970.0 823.6 970.0 831.9 Z M 970.0 831.9 " fill="#FFCB2E"></path></g></g><g><clipPath id="clip0x7f87379470a0"><path d="M 966.0 816.9 L 1717.4 816.9 L 1717.4 916.9 L 966.0 916.9 Z M 966.0 816.9 "></path></clipPath><g clip-path="url(#clip0x7f87379470a0)"><text xml:space="preserve" font-family="Helvetica-Bold,Helvetica" font-weight="bold" font-size="32.0" fill="#000000" transform="matrix(1.00, 0.00, -0.00, -1.00, 1201.2, 854.9)">T</text><text xml:space="preserve" font-family="Helvetica-Bold,Helvetica" font-weight="bold" font-size="32.0" fill="#000000" transform="matrix(1.00, 0.00, -0.00, -1.00, 1220.8, 854.9)">h</text><text xml:space="preserve" font-family="Helvetica-Bold,Helvetica" font-weight="bold" font-size="32.0" fill="#000000" transform="matrix(1.00, 0.00, -0.00, -1.00, 1240.3, 854.9)">i</text><text xml:space="preserve" font-family="Helvetica-Bold,Helvetica" font-weight="bold" font-size="32.0" fill="#000000" transform="matrix(1.00, 0.00, -0.00, -1.00, 1249.2, 854.9)">n</text><text xml:space="preserve" font-family="Helvetica-Bold,Helvetica" font-weight="bold" font-size="32.0" fill="#000000" transform="matrix(1.00, 0.00, -0.00, -1.00, 1268.7, 854.9)">g</text><text xml:space="preserve" font-family="Helvetica-Bold,Helvetica" font-weight="bold" font-size="32.0" fill="#000000" transform="matrix(1.00, 0.00, -0.00, -1.00, 1288.3, 854.9)">s</text><text xml:space="preserve" font-family="Helvetica-Bold,Helvetica" font-weight="bold" font-size="32.0" fill="#000000" transform="matrix(1.00, 0.00, -0.00, -1.00, 1306.1, 854.9)"> </text><text xml:space="preserve" font-family="Helvetica-Bold,Helvetica" font-weight="bold" font-size="32.0" fill="#000000" transform="matrix(1.00, 0.00, -0.00, -1.00, 1314.9, 854.9)">y</text><text xml:space="preserve" font-family="Helvetica-Bold,Helvetica" font-weight="bold" font-size="32.0" fill="#000000" transform="matrix(1.00, 0.00, -0.00, -1.00, 1332.7, 854.9)">o</text><text xml:space="preserve" font-family="Helvetica-Bold,Helvetica" font-weight="bold" font-size="32.0" fill="#000000" transform="matrix(1.00, 0.00, -0.00, -1.00, 1352.3, 854.9)">u</text><text xml:space="preserve" font-family="Helvetica-Bold,Helvetica" font-weight="bold" font-size="32.0" fill="#000000" transform="matrix(1.00, 0.00, -0.00, -1.00, 1371.8, 854.9)">’</text><text xml:space="preserve" font-family="Helvetica-Bold,Helvetica" font-weight="bold" font-size="32.0" fill="#000000" transform="matrix(1.00, 0.00, -0.00, -1.00, 1380.7, 854.9)">l</text><text xml:space="preserve" font-family="Helvetica-Bold,Helvetica" font-weight="bold" font-size="32.0" fill="#000000" transform="matrix(1.00, 0.00, -0.00, -1.00, 1389.6, 854.9)">l</text><text xml:space="preserve" font-family="Helvetica-Bold,Helvetica" font-weight="bold" font-size="32.0" fill="#000000" transform="matrix(1.00, 0.00, -0.00, -1.00, 1398.5, 854.9)"> </text><text xml:space="preserve" font-family="Helvetica-Bold,Helvetica" font-weight="bold" font-size="32.0" fill="#000000" transform="matrix(1.00, 0.00, -0.00, -1.00, 1407.4, 854.9)">n</text><text xml:space="preserve" font-family="Helvetica-Bold,Helvetica" font-weight="bold" font-size="32.0" fill="#000000" transform="matrix(1.00, 0.00, -0.00, -1.00, 1426.9, 854.9)">e</text><text xml:space="preserve" font-family="Helvetica-Bold,Helvetica" font-weight="bold" font-size="32.0" fill="#000000" transform="matrix(1.00, 0.00, -0.00, -1.00, 1444.7, 854.9)">e</text><text xml:space="preserve" font-family="Helvetica-Bold,Helvetica" font-weight="bold" font-size="32.0" fill="#000000" transform="matrix(1.00, 0.00, -0.00, -1.00, 1462.5, 854.9)">d</text></g></g><g><clipPath id="clip0x7f87379ddea0"><path d="M 918.6 786.8 L 1072.7 786.8 L 1072.7 942.9 L 918.6 942.9 Z M 918.6 786.8 "></path></clipPath><g clip-path="url(#clip0x7f87379ddea0)"><image xlink:href="../../76EA4090-F291-457B-B962-4B2F171C1F14/assets/8F10CB0D277D93E7E519F15C02DB93F5.png" width="152.00" height="154.00" transform="matrix(1.00, 0.00, -0.00, -1.00, 919.6, 941.9)" opacity="0.50"></image><path d="M 1047.3 919.2 C 1075.8 890.3 1075.8 843.4 1047.3 814.5 C 1018.8 785.6 972.5 785.6 944.0 814.5 C 915.5 843.4 915.5 890.3 944.0 919.2 C 972.5 948.1 1018.8 948.1 1047.3 919.2 Z M 1047.3 919.2 " fill="#03B9FC"></path></g></g><g><clipPath id="clip0x7f8737a70e40"><path d="M 921.3 792.8 L 1070.1 792.8 L 1070.1 940.9 L 921.3 940.9 Z M 921.3 792.8 "></path></clipPath><g clip-path="url(#clip0x7f8737a70e40)"><text xml:space="preserve" font-family="Helvetica-Bold,Helvetica" font-weight="bold" font-size="50.0" fill="#FEFFFE" transform="matrix(1.00, 0.00, -0.00, -1.00, 981.8, 848.7)">1</text></g></g><g><clipPath id="clip0x7f87375f6340"><path d="M 966.0 647.4 L 1717.4 647.4 L 1717.4 755.4 L 966.0 755.4 Z M 966.0 647.4 "></path></clipPath><g clip-path="url(#clip0x7f87375f6340)"><image xlink:href="../../76EA4090-F291-457B-B962-4B2F171C1F14/assets/D288FC678DB02630C34FE80E8C5A2710.png" width="749.00" height="106.00" transform="matrix(1.00, 0.00, -0.00, -1.00, 967.0, 754.4)" opacity="0.50"></image><path d="M 970.0 668.4 L 970.0 738.4 C 970.0 746.7 976.7 753.0 985.0 753.0 L 1698.4 753.0 C 1706.7 753.0 1713.0 746.7 1713.0 738.4 L 1713.0 668.4 C 1713.0 660.1 1706.7 653.0 1698.4 653.0 L 985.0 653.0 C 976.7 653.0 970.0 660.1 970.0 668.4 Z M 970.0 668.4 " fill="#FFCB2E"></path></g></g><g><clipPath id="clip0x7f87379e0bd0"><path d="M 966.0 653.4 L 1717.4 653.4 L 1717.4 753.4 L 966.0 753.4 Z M 966.0 653.4 "></path></clipPath><g clip-path="url(#clip0x7f87379e0bd0)"><text xml:space="preserve" font-family="Helvetica-Bold,Helvetica" font-weight="bold" font-size="32.0" fill="#000000" transform="matrix(1.00, 0.00, -0.00, -1.00, 1196.8, 691.5)">A</text><text xml:space="preserve" font-family="Helvetica-Bold,Helvetica" font-weight="bold" font-size="32.0" fill="#000000" transform="matrix(1.00, 0.00, -0.00, -1.00, 1219.9, 691.5)">t</text><text xml:space="preserve" font-family="Helvetica-Bold,Helvetica" font-weight="bold" font-size="32.0" fill="#000000" transform="matrix(1.00, 0.00, -0.00, -1.00, 1230.5, 691.5)">t</text><text xml:space="preserve" font-family="Helvetica-Bold,Helvetica" font-weight="bold" font-size="32.0" fill="#000000" transform="matrix(1.00, 0.00, -0.00, -1.00, 1241.2, 691.5)">a</text><text xml:space="preserve" font-family="Helvetica-Bold,Helvetica" font-weight="bold" font-size="32.0" fill="#000000" transform="matrix(1.00, 0.00, -0.00, -1.00, 1259.0, 691.5)">c</text><text xml:space="preserve" font-family="Helvetica-Bold,Helvetica" font-weight="bold" font-size="32.0" fill="#000000" transform="matrix(1.00, 0.00, -0.00, -1.00, 1276.8, 691.5)">h</text><text xml:space="preserve" font-family="Helvetica-Bold,Helvetica" font-weight="bold" font-size="32.0" fill="#000000" transform="matrix(1.00, 0.00, -0.00, -1.00, 1296.4, 691.5)">i</text><text xml:space="preserve" font-family="Helvetica-Bold,Helvetica" font-weight="bold" font-size="32.0" fill="#000000" transform="matrix(1.00, 0.00, -0.00, -1.00, 1305.2, 691.5)">n</text><text xml:space="preserve" font-family="Helvetica-Bold,Helvetica" font-weight="bold" font-size="32.0" fill="#000000" transform="matrix(1.00, 0.00, -0.00, -1.00, 1324.8, 691.5)">g</text><text xml:space="preserve" font-family="Helvetica-Bold,Helvetica" font-weight="bold" font-size="32.0" fill="#000000" transform="matrix(1.00, 0.00, -0.00, -1.00, 1344.3, 691.5)"> </text><text xml:space="preserve" font-family="Helvetica-Bold,Helvetica" font-weight="bold" font-size="32.0" fill="#000000" transform="matrix(1.00, 0.00, -0.00, -1.00, 1353.2, 691.5)">s</text><text xml:space="preserve" font-family="Helvetica-Bold,Helvetica" font-weight="bold" font-size="32.0" fill="#000000" transform="matrix(1.00, 0.00, -0.00, -1.00, 1371.0, 691.5)">t</text><text xml:space="preserve" font-family="Helvetica-Bold,Helvetica" font-weight="bold" font-size="32.0" fill="#000000" transform="matrix(1.00, 0.00, -0.00, -1.00, 1381.7, 691.5)">r</text><text xml:space="preserve" font-family="Helvetica-Bold,Helvetica" font-weight="bold" font-size="32.0" fill="#000000" transform="matrix(1.00, 0.00, -0.00, -1.00, 1394.1, 691.5)">i</text><text xml:space="preserve" font-family="Helvetica-Bold,Helvetica" font-weight="bold" font-size="32.0" fill="#000000" transform="matrix(1.00, 0.00, -0.00, -1.00, 1403.0, 691.5)">n</text><text xml:space="preserve" font-family="Helvetica-Bold,Helvetica" font-weight="bold" font-size="32.0" fill="#000000" transform="matrix(1.00, 0.00, -0.00, -1.00, 1422.5, 691.5)">g</text><text xml:space="preserve" font-family="Helvetica-Bold,Helvetica" font-weight="bold" font-size="32.0" fill="#000000" transform="matrix(1.00, 0.00, -0.00, -1.00, 1442.1, 691.5)">s</text><text xml:space="preserve" font-family="Helvetica-Bold,Helvetica" font-weight="bold" font-size="32.0" fill="#000000" transform="matrix(1.00, 0.00, -0.00, -1.00, 1459.9, 691.5)"> </text><text xml:space="preserve" font-family="Helvetica-Bold,Helvetica" font-weight="bold" font-size="32.0" fill="#000000" transform="matrix(1.00, 0.00, -0.00, -1.00, 1468.8, 691.5)">1</text></g></g><g><clipPath id="clip0x7f8737935870"><path d="M 918.6 623.4 L 1072.7 623.4 L 1072.7 779.5 L 918.6 779.5 Z M 918.6 623.4 "></path></clipPath><g clip-path="url(#clip0x7f8737935870)"><image xlink:href="../../76EA4090-F291-457B-B962-4B2F171C1F14/assets/8F10CB0D277D93E7E519F15C02DB93F5.png" width="152.00" height="154.00" transform="matrix(1.00, 0.00, -0.00, -1.00, 919.6, 778.5)" opacity="0.50"></image><path d="M 1047.3 755.8 C 1075.8 726.9 1075.8 680.0 1047.3 651.1 C 1018.8 622.2 972.5 622.2 944.0 651.1 C 915.5 680.0 915.5 726.9 944.0 755.8 C 972.5 784.7 1018.8 784.7 1047.3 755.8 Z M 1047.3 755.8 " fill="#03B9FC"></path></g></g><g><clipPath id="clip0x7f8737794ee0"><path d="M 921.3 629.4 L 1070.1 629.4 L 1070.1 777.5 L 921.3 777.5 Z M 921.3 629.4 "></path></clipPath><g clip-path="url(#clip0x7f8737794ee0)"><text xml:space="preserve" font-family="Helvetica-Bold,Helvetica" font-weight="bold" font-size="50.0" fill="#FEFFFE" transform="matrix(1.00, 0.00, -0.00, -1.00, 981.8, 685.2)">2</text></g></g><g><clipPath id="clip0x7f8737b39ad0"><path d="M 966.0 484.0 L 1717.4 484.0 L 1717.4 592.0 L 966.0 592.0 Z M 966.0 484.0 "></path></clipPath><g clip-path="url(#clip0x7f8737b39ad0)"><image xlink:href="../../76EA4090-F291-457B-B962-4B2F171C1F14/assets/1A5055F2A74D7533EC6A39B7840B0B76.png" width="749.00" height="106.00" transform="matrix(1.00, 0.00, -0.00, -1.00, 967.0, 591.0)" opacity="0.50"></image><path d="M 970.0 505.0 L 970.0 575.0 C 970.0 583.3 976.7 590.0 985.0 590.0 L 1698.4 590.0 C 1706.7 590.0 1713.0 583.3 1713.0 575.0 L 1713.0 505.0 C 1713.0 496.7 1706.7 490.0 1698.4 490.0 L 985.0 490.0 C 976.7 490.0 970.0 496.7 970.0 505.0 Z M 970.0 505.0 " fill="#FFCB2E"></path></g></g><g><clipPath id="clip0x7f87379a3a90"><path d="M 966.0 490.0 L 1717.4 490.0 L 1717.4 590.0 L 966.0 590.0 Z M 966.0 490.0 "></path></clipPath><g clip-path="url(#clip0x7f87379a3a90)"><text xml:space="preserve" font-family="Helvetica-Bold,Helvetica" font-weight="bold" font-size="32.0" fill="#000000" transform="matrix(1.00, 0.00, -0.00, -1.00, 1196.8, 528.0)">A</text><text xml:space="preserve" font-family="Helvetica-Bold,Helvetica" font-weight="bold" font-size="32.0" fill="#000000" transform="matrix(1.00, 0.00, -0.00, -1.00, 1219.9, 528.0)">t</text><text xml:space="preserve" font-family="Helvetica-Bold,Helvetica" font-weight="bold" font-size="32.0" fill="#000000" transform="matrix(1.00, 0.00, -0.00, -1.00, 1230.5, 528.0)">t</text><text xml:space="preserve" font-family="Helvetica-Bold,Helvetica" font-weight="bold" font-size="32.0" fill="#000000" transform="matrix(1.00, 0.00, -0.00, -1.00, 1241.2, 528.0)">a</text><text xml:space="preserve" font-family="Helvetica-Bold,Helvetica" font-weight="bold" font-size="32.0" fill="#000000" transform="matrix(1.00, 0.00, -0.00, -1.00, 1259.0, 528.0)">c</text><text xml:space="preserve" font-family="Helvetica-Bold,Helvetica" font-weight="bold" font-size="32.0" fill="#000000" transform="matrix(1.00, 0.00, -0.00, -1.00, 1276.8, 528.0)">h</text><text xml:space="preserve" font-family="Helvetica-Bold,Helvetica" font-weight="bold" font-size="32.0" fill="#000000" transform="matrix(1.00, 0.00, -0.00, -1.00, 1296.4, 528.0)">i</text><text xml:space="preserve" font-family="Helvetica-Bold,Helvetica" font-weight="bold" font-size="32.0" fill="#000000" transform="matrix(1.00, 0.00, -0.00, -1.00, 1305.2, 528.0)">n</text><text xml:space="preserve" font-family="Helvetica-Bold,Helvetica" font-weight="bold" font-size="32.0" fill="#000000" transform="matrix(1.00, 0.00, -0.00, -1.00, 1324.8, 528.0)">g</text><text xml:space="preserve" font-family="Helvetica-Bold,Helvetica" font-weight="bold" font-size="32.0" fill="#000000" transform="matrix(1.00, 0.00, -0.00, -1.00, 1344.3, 528.0)"> </text><text xml:space="preserve" font-family="Helvetica-Bold,Helvetica" font-weight="bold" font-size="32.0" fill="#000000" transform="matrix(1.00, 0.00, -0.00, -1.00, 1353.2, 528.0)">s</text><text xml:space="preserve" font-family="Helvetica-Bold,Helvetica" font-weight="bold" font-size="32.0" fill="#000000" transform="matrix(1.00, 0.00, -0.00, -1.00, 1371.0, 528.0)">t</text><text xml:space="preserve" font-family="Helvetica-Bold,Helvetica" font-weight="bold" font-size="32.0" fill="#000000" transform="matrix(1.00, 0.00, -0.00, -1.00, 1381.7, 528.0)">r</text><text xml:space="preserve" font-family="Helvetica-Bold,Helvetica" font-weight="bold" font-size="32.0" fill="#000000" transform="matrix(1.00, 0.00, -0.00, -1.00, 1394.1, 528.0)">i</text><text xml:space="preserve" font-family="Helvetica-Bold,Helvetica" font-weight="bold" font-size="32.0" fill="#000000" transform="matrix(1.00, 0.00, -0.00, -1.00, 1403.0, 528.0)">n</text><text xml:space="preserve" font-family="Helvetica-Bold,Helvetica" font-weight="bold" font-size="32.0" fill="#000000" transform="matrix(1.00, 0.00, -0.00, -1.00, 1422.5, 528.0)">g</text><text xml:space="preserve" font-family="Helvetica-Bold,Helvetica" font-weight="bold" font-size="32.0" fill="#000000" transform="matrix(1.00, 0.00, -0.00, -1.00, 1442.1, 528.0)">s</text><text xml:space="preserve" font-family="Helvetica-Bold,Helvetica" font-weight="bold" font-size="32.0" fill="#000000" transform="matrix(1.00, 0.00, -0.00, -1.00, 1459.9, 528.0)"> </text><text xml:space="preserve" font-family="Helvetica-Bold,Helvetica" font-weight="bold" font-size="32.0" fill="#000000" transform="matrix(1.00, 0.00, -0.00, -1.00, 1468.8, 528.0)">2</text></g></g><g><clipPath id="clip0x7f87379a42f0"><path d="M 918.6 460.0 L 1072.7 460.0 L 1072.7 616.0 L 918.6 616.0 Z M 918.6 460.0 "></path></clipPath><g clip-path="url(#clip0x7f87379a42f0)"><image xlink:href="../../76EA4090-F291-457B-B962-4B2F171C1F14/assets/8F10CB0D277D93E7E519F15C02DB93F5.png" width="152.00" height="154.00" transform="matrix(1.00, 0.00, -0.00, -1.00, 919.6, 615.0)" opacity="0.50"></image><path d="M 1047.3 592.4 C 1075.8 563.4 1075.8 516.6 1047.3 487.6 C 1018.8 458.7 972.5 458.7 944.0 487.6 C 915.5 516.6 915.5 563.4 944.0 592.4 C 972.5 621.3 1018.8 621.3 1047.3 592.4 Z M 1047.3 592.4 " fill="#03B9FC"></path></g></g><g><clipPath id="clip0x7f87379b17f0"><path d="M 921.3 466.0 L 1070.1 466.0 L 1070.1 614.0 L 921.3 614.0 Z M 921.3 466.0 "></path></clipPath><g clip-path="url(#clip0x7f87379b17f0)"><text xml:space="preserve" font-family="Helvetica-Bold,Helvetica" font-weight="bold" font-size="50.0" fill="#FEFFFE" transform="matrix(1.00, 0.00, -0.00, -1.00, 981.8, 521.8)">3</text></g></g><g><clipPath id="clip0x7f87379bf110"><path d="M 966.0 320.6 L 1717.4 320.6 L 1717.4 428.6 L 966.0 428.6 Z M 966.0 320.6 "></path></clipPath><g clip-path="url(#clip0x7f87379bf110)"><image xlink:href="../../76EA4090-F291-457B-B962-4B2F171C1F14/assets/380A2F4AAC7BD39CEA023A3900A1A201.png" width="749.00" height="106.00" transform="matrix(1.00, 0.00, -0.00, -1.00, 967.0, 427.6)" opacity="0.50"></image><path d="M 970.0 341.6 L 970.0 411.6 C 970.0 419.9 976.7 427.0 985.0 427.0 L 1698.4 427.0 C 1706.7 427.0 1713.0 419.9 1713.0 411.6 L 1713.0 341.6 C 1713.0 333.3 1706.7 327.0 1698.4 327.0 L 985.0 327.0 C 976.7 327.0 970.0 333.3 970.0 341.6 Z M 970.0 341.6 " fill="#FFCB2E"></path></g></g><g><clipPath id="clip0x7f8737a5c430"><path d="M 966.0 326.6 L 1717.4 326.6 L 1717.4 426.6 L 966.0 426.6 Z M 966.0 326.6 "></path></clipPath><g clip-path="url(#clip0x7f8737a5c430)"><text xml:space="preserve" font-family="Helvetica-Bold,Helvetica" font-weight="bold" font-size="32.0" fill="#000000" transform="matrix(1.00, 0.00, -0.00, -1.00, 1216.6, 364.6)">W</text><text xml:space="preserve" font-family="Helvetica-Bold,Helvetica" font-weight="bold" font-size="32.0" fill="#000000" transform="matrix(1.00, 0.00, -0.00, -1.00, 1246.3, 364.6)">r</text><text xml:space="preserve" font-family="Helvetica-Bold,Helvetica" font-weight="bold" font-size="32.0" fill="#000000" transform="matrix(1.00, 0.00, -0.00, -1.00, 1258.7, 364.6)">i</text><text xml:space="preserve" font-family="Helvetica-Bold,Helvetica" font-weight="bold" font-size="32.0" fill="#000000" transform="matrix(1.00, 0.00, -0.00, -1.00, 1267.6, 364.6)">t</text><text xml:space="preserve" font-family="Helvetica-Bold,Helvetica" font-weight="bold" font-size="32.0" fill="#000000" transform="matrix(1.00, 0.00, -0.00, -1.00, 1278.3, 364.6)">i</text><text xml:space="preserve" font-family="Helvetica-Bold,Helvetica" font-weight="bold" font-size="32.0" fill="#000000" transform="matrix(1.00, 0.00, -0.00, -1.00, 1287.2, 364.6)">n</text><text xml:space="preserve" font-family="Helvetica-Bold,Helvetica" font-weight="bold" font-size="32.0" fill="#000000" transform="matrix(1.00, 0.00, -0.00, -1.00, 1306.7, 364.6)">g</text><text xml:space="preserve" font-family="Helvetica-Bold,Helvetica" font-weight="bold" font-size="32.0" fill="#000000" transform="matrix(1.00, 0.00, -0.00, -1.00, 1326.2, 364.6)"> </text><text xml:space="preserve" font-family="Helvetica-Bold,Helvetica" font-weight="bold" font-size="32.0" fill="#000000" transform="matrix(1.00, 0.00, -0.00, -1.00, 1335.1, 364.6)">t</text><text xml:space="preserve" font-family="Helvetica-Bold,Helvetica" font-weight="bold" font-size="32.0" fill="#000000" transform="matrix(1.00, 0.00, -0.00, -1.00, 1345.8, 364.6)">h</text><text xml:space="preserve" font-family="Helvetica-Bold,Helvetica" font-weight="bold" font-size="32.0" fill="#000000" transform="matrix(1.00, 0.00, -0.00, -1.00, 1365.3, 364.6)">e</text><text xml:space="preserve" font-family="Helvetica-Bold,Helvetica" font-weight="bold" font-size="32.0" fill="#000000" transform="matrix(1.00, 0.00, -0.00, -1.00, 1383.1, 364.6)"> </text><text xml:space="preserve" font-family="Helvetica-Bold,Helvetica" font-weight="bold" font-size="32.0" fill="#000000" transform="matrix(1.00, 0.00, -0.00, -1.00, 1392.0, 364.6)">c</text><text xml:space="preserve" font-family="Helvetica-Bold,Helvetica" font-weight="bold" font-size="32.0" fill="#000000" transform="matrix(1.00, 0.00, -0.00, -1.00, 1409.8, 364.6)">o</text><text xml:space="preserve" font-family="Helvetica-Bold,Helvetica" font-weight="bold" font-size="32.0" fill="#000000" transform="matrix(1.00, 0.00, -0.00, -1.00, 1429.3, 364.6)">d</text><text xml:space="preserve" font-family="Helvetica-Bold,Helvetica" font-weight="bold" font-size="32.0" fill="#000000" transform="matrix(1.00, 0.00, -0.00, -1.00, 1448.9, 364.6)">e</text></g></g><g><clipPath id="clip0x7f87375dace0"><path d="M 918.6 296.5 L 1072.7 296.5 L 1072.7 452.6 L 918.6 452.6 Z M 918.6 296.5 "></path></clipPath><g clip-path="url(#clip0x7f87375dace0)"><image xlink:href="../../76EA4090-F291-457B-B962-4B2F171C1F14/assets/8F10CB0D277D93E7E519F15C02DB93F5.png" width="152.00" height="154.00" transform="matrix(1.00, 0.00, -0.00, -1.00, 919.6, 451.6)" opacity="0.50"></image><path d="M 1047.3 428.9 C 1075.8 400.0 1075.8 353.1 1047.3 324.2 C 1018.8 295.3 972.5 295.3 944.0 324.2 C 915.5 353.1 915.5 400.0 944.0 428.9 C 972.5 457.8 1018.8 457.8 1047.3 428.9 Z M 1047.3 428.9 " fill="#03B9FC"></path></g></g><g><clipPath id="clip0x7f8737b3bd80"><path d="M 921.3 302.5 L 1070.1 302.5 L 1070.1 450.6 L 921.3 450.6 Z M 921.3 302.5 "></path></clipPath><g clip-path="url(#clip0x7f8737b3bd80)"><text xml:space="preserve" font-family="Helvetica-Bold,Helvetica" font-weight="bold" font-size="50.0" fill="#FEFFFE" transform="matrix(1.00, 0.00, -0.00, -1.00, 981.8, 358.4)">4</text></g></g><g><clipPath id="clip0x7f8737b3c6c0"><path d="M 966.0 157.1 L 1717.4 157.1 L 1717.4 265.1 L 966.0 265.1 Z M 966.0 157.1 "></path></clipPath><g clip-path="url(#clip0x7f8737b3c6c0)"><image xlink:href="../../76EA4090-F291-457B-B962-4B2F171C1F14/assets/AF4B3F2AC3B300DB35D72B7FE154FD3C.png" width="749.00" height="106.00" transform="matrix(1.00, 0.00, -0.00, -1.00, 967.0, 264.1)" opacity="0.50"></image><path d="M 970.0 178.1 L 970.0 248.1 C 970.0 256.4 976.7 263.0 985.0 263.0 L 1698.4 263.0 C 1706.7 263.0 1713.0 256.4 1713.0 248.1 L 1713.0 178.1 C 1713.0 169.8 1706.7 163.0 1698.4 163.0 L 985.0 163.0 C 976.7 163.0 970.0 169.8 970.0 178.1 Z M 970.0 178.1 " fill="#AAAAAA"></path></g></g><g><clipPath id="clip0x7f87379c3650"><path d="M 918.6 133.1 L 1072.7 133.1 L 1072.7 289.2 L 918.6 289.2 Z M 918.6 133.1 "></path></clipPath><g clip-path="url(#clip0x7f87379c3650)"><image xlink:href="../../76EA4090-F291-457B-B962-4B2F171C1F14/assets/8F10CB0D277D93E7E519F15C02DB93F5.png" width="152.00" height="154.00" transform="matrix(1.00, 0.00, -0.00, -1.00, 919.6, 288.2)" opacity="0.50"></image><path d="M 1047.3 265.5 C 1075.8 236.6 1075.8 189.7 1047.3 160.8 C 1018.8 131.9 972.5 131.9 944.0 160.8 C 915.5 189.7 915.5 236.6 944.0 265.5 C 972.5 294.4 1018.8 294.4 1047.3 265.5 Z M 1047.3 265.5 " fill="#AAAAAA"></path></g></g><text xml:space="preserve" font-family="SegoeUI-Light,Segoe UI" font-size="50.0" fill="#000000" transform="matrix(1.00, 0.00, -0.00, -1.00, 299.3, 333.0)">P</text><text xml:space="preserve" font-family="SegoeUI-Light,Segoe UI" font-size="50.0" fill="#000000" transform="matrix(1.00, 0.00, -0.00, -1.00, 326.5, 333.0)">u</text><text xml:space="preserve" font-family="SegoeUI-Light,Segoe UI" font-size="50.0" fill="#000000" transform="matrix(1.00, 0.00, -0.00, -1.00, 353.2, 333.0)">s</text><text xml:space="preserve" font-family="SegoeUI-Light,Segoe UI" font-size="50.0" fill="#000000" transform="matrix(1.00, 0.00, -0.00, -1.00, 372.7, 333.0)">h</text><text xml:space="preserve" font-family="SegoeUI-Light,Segoe UI" font-size="50.0" fill="#000000" transform="matrix(1.00, 0.00, -0.00, -1.00, 413.1, 333.0)">b</text><text xml:space="preserve" font-family="SegoeUI-Light,Segoe UI" font-size="50.0" fill="#000000" transform="matrix(1.00, 0.00, -0.00, -1.00, 441.1, 333.0)">u</text><text xml:space="preserve" font-family="SegoeUI-Light,Segoe UI" font-size="50.0" fill="#000000" transform="matrix(1.00, 0.00, -0.00, -1.00, 467.9, 333.0)">t</text><text xml:space="preserve" font-family="SegoeUI-Light,Segoe UI" font-size="50.0" fill="#000000" transform="matrix(1.00, 0.00, -0.00, -1.00, 482.7, 333.0)">t</text><text xml:space="preserve" font-family="SegoeUI-Light,Segoe UI" font-size="50.0" fill="#000000" transform="matrix(1.00, 0.00, -0.00, -1.00, 497.6, 333.0)">o</text><text xml:space="preserve" font-family="SegoeUI-Light,Segoe UI" font-size="50.0" fill="#000000" transform="matrix(1.00, 0.00, -0.00, -1.00, 525.6, 333.0)">n</text><path d="M 71.0 988.0 L 71.0 962.9 L 23.1 1000.4 L 71.0 1037.9 L 71.0 1012.0 L 84.0 1012.0 L 84.0 988.0 Z M 71.1 988.4 " fill="#000000"></path></g></svg>