<?xml version="1.0" encoding="UTF-8" standalone="no"?><svg xmlns="http://www.w3.org/2000/svg" xmlns:xlink="http://www.w3.org/1999/xlink" clip-rule="evenodd" stroke-miterlimit="10" viewBox="0 0 1920 1080"><desc>SVG generated by Keynote</desc><defs></defs><g transform="matrix(1.00, 0.00, -0.00, -1.00, 0.0, 1080.0)"><path d="M 0.0 1080.0 L 1920.0 1080.0 L 1920.0 0.0 L 0.0 0.0 Z M 0.0 1080.0 " fill="#FEFFFF"></path><text xml:space="preserve" font-family="SegoeUI-Light,Segoe UI" font-size="100.0" fill="#A6AAA8" transform="matrix(1.00, 0.00, -0.00, -1.00, 1134.6, 958.9)">A</text><text xml:space="preserve" font-family="SegoeUI-Light,Segoe UI" font-size="100.0" fill="#A6AAA8" transform="matrix(1.00, 0.00, -0.00, -1.00, 1195.5, 958.9)">t</text><text xml:space="preserve" font-family="SegoeUI-Light,Segoe UI" font-size="100.0" fill="#A6AAA8" transform="matrix(1.00, 0.00, -0.00, -1.00, 1225.2, 958.9)">t</text><text xml:space="preserve" font-family="SegoeUI-Light,Segoe UI" font-size="100.0" fill="#A6AAA8" transform="matrix(1.00, 0.00, -0.00, -1.00, 1254.9, 958.9)">a</text><text xml:space="preserve" font-family="SegoeUI-Light,Segoe UI" font-size="100.0" fill="#A6AAA8" transform="matrix(1.00, 0.00, -0.00, -1.00, 1304.3, 958.9)">c</text><text xml:space="preserve" font-family="SegoeUI-Light,Segoe UI" font-size="100.0" fill="#A6AAA8" transform="matrix(1.00, 0.00, -0.00, -1.00, 1348.6, 958.9)">h</text><text xml:space="preserve" font-family="SegoeUI-Light,Segoe UI" font-size="100.0" fill="#A6AAA8" transform="matrix(1.00, 0.00, -0.00, -1.00, 1402.2, 958.9)">i</text><text xml:space="preserve" font-family="SegoeUI-Light,Segoe UI" font-size="100.0" fill="#A6AAA8" transform="matrix(1.00, 0.00, -0.00, -1.00, 1422.6, 958.9)">n</text><text xml:space="preserve" font-family="SegoeUI-Light,Segoe UI" font-size="100.0" fill="#A6AAA8" transform="matrix(1.00, 0.00, -0.00, -1.00, 1476.2, 958.9)">g</text><text xml:space="preserve" font-family="SegoeUI-Light,Segoe UI" font-size="100.0" fill="#A6AAA8" transform="matrix(1.00, 0.00, -0.00, -1.00, 1532.2, 958.9)"> </text><text xml:space="preserve" font-family="SegoeUI-Light,Segoe UI" font-size="100.0" fill="#A6AAA8" transform="matrix(1.00, 0.00, -0.00, -1.00, 1559.5, 958.9)">s</text><text xml:space="preserve" font-family="SegoeUI-Light,Segoe UI" font-size="100.0" fill="#A6AAA8" transform="matrix(1.00, 0.00, -0.00, -1.00, 1598.3, 958.9)">t</text><text xml:space="preserve" font-family="SegoeUI-Light,Segoe UI" font-size="100.0" fill="#A6AAA8" transform="matrix(1.00, 0.00, -0.00, -1.00, 1628.0, 958.9)">r</text><text xml:space="preserve" font-family="SegoeUI-Light,Segoe UI" font-size="100.0" fill="#A6AAA8" transform="matrix(1.00, 0.00, -0.00, -1.00, 1661.0, 958.9)">i</text><text xml:space="preserve" font-family="SegoeUI-Light,Segoe UI" font-size="100.0" fill="#A6AAA8" transform="matrix(1.00, 0.00, -0.00, -1.00, 1681.5, 958.9)">n</text><text xml:space="preserve" font-family="SegoeUI-Light,Segoe UI" font-size="100.0" fill="#A6AAA8" transform="matrix(1.00, 0.00, -0.00, -1.00, 1735.0, 958.9)">g</text><text xml:space="preserve" font-family="SegoeUI-Light,Segoe UI" font-size="100.0" fill="#A6AAA8" transform="matrix(1.00, 0.00, -0.00, -1.00, 1791.0, 958.9)">s</text><text xml:space="preserve" font-family="SegoeUI-Light,Segoe UI" font-size="100.0" fill="#A6AAA8" transform="matrix(1.00, 0.00, -0.00, -1.00, 1829.8, 958.9)"> </text><text xml:space="preserve" font-family="SegoeUI-Light,Segoe UI" font-size="100.0" fill="#A6AAA8" transform="matrix(1.00, 0.00, -0.00, -1.00, 1857.2, 958.9)">2</text><path d="M 71.0 988.0 L 71.0 962.8 L 23.1 1000.3 L 71.0 1037.8 L 71.0 1012.0 L 84.0 1012.0 L 84.0 988.0 Z M 71.1 988.3 " fill="#3C3E3D"></path><path d="M 146.0 988.0 L 146.0 962.8 L 97.5 1000.3 L 146.0 1037.8 L 146.0 1012.0 L 158.0 1012.0 L 158.0 988.0 Z M 145.5 988.3 " fill="#A6AAA8"></path><image xlink:href="../../97183C39-81F2-4752-9C4A-6CD548A94125/assets/5E05278C11DE3BCDE170CA4A20E37AF3.png" width="600.00" height="469.00" transform="matrix(1.81, 0.00, -0.00, -1.81, 46.0, 881.0)"></image><image xlink:href="../../CDBF1758-6B34-457F-A42B-D31527B5D994/assets/54610BF25EAD9C6493A5D17B7DF6DAED.png" width="200.00" height="200.00" transform="matrix(1.36, 0.00, -0.00, -1.36, 1426.0, 646.0)"></image><text xml:space="preserve" font-family="SegoeUI-Light,Segoe UI" font-size="35.0" fill="#000000" transform="matrix(1.00, 0.00, -0.00, -1.00, 1302.5, 325.2)">T</text><text xml:space="preserve" font-family="SegoeUI-Light,Segoe UI" font-size="35.0" fill="#000000" transform="matrix(1.00, 0.00, -0.00, -1.00, 1320.4, 325.2)">h</text><text xml:space="preserve" font-family="SegoeUI-Light,Segoe UI" font-size="35.0" fill="#000000" transform="matrix(1.00, 0.00, -0.00, -1.00, 1339.2, 325.2)">e</text><text xml:space="preserve" font-family="SegoeUI-Light,Segoe UI" font-size="35.0" fill="#000000" transform="matrix(1.00, 0.00, -0.00, -1.00, 1366.4, 325.2)">d</text><text xml:space="preserve" font-family="SegoeUI-Light,Segoe UI" font-size="35.0" fill="#000000" transform="matrix(1.00, 0.00, -0.00, -1.00, 1386.0, 325.2)">i</text><text xml:space="preserve" font-family="SegoeUI-Light,Segoe UI" font-size="35.0" fill="#000000" transform="matrix(1.00, 0.00, -0.00, -1.00, 1393.2, 325.2)">a</text><text xml:space="preserve" font-family="SegoeUI-Light,Segoe UI" font-size="35.0" fill="#000000" transform="matrix(1.00, 0.00, -0.00, -1.00, 1410.5, 325.2)">g</text><text xml:space="preserve" font-family="SegoeUI-Light,Segoe UI" font-size="35.0" fill="#000000" transform="matrix(1.00, 0.00, -0.00, -1.00, 1430.1, 325.2)">r</text><text xml:space="preserve" font-family="SegoeUI-Light,Segoe UI" font-size="35.0" fill="#000000" transform="matrix(1.00, 0.00, -0.00, -1.00, 1441.7, 325.2)">a</text><text xml:space="preserve" font-family="SegoeUI-Light,Segoe UI" font-size="35.0" fill="#000000" transform="matrix(1.00, 0.00, -0.00, -1.00, 1459.0, 325.2)">m</text><text xml:space="preserve" font-family="SegoeUI-Light,Segoe UI" font-size="35.0" fill="#000000" transform="matrix(1.00, 0.00, -0.00, -1.00, 1497.3, 325.2)">s</text><text xml:space="preserve" font-family="SegoeUI-Light,Segoe UI" font-size="35.0" fill="#000000" transform="matrix(1.00, 0.00, -0.00, -1.00, 1510.9, 325.2)">h</text><text xml:space="preserve" font-family="SegoeUI-Light,Segoe UI" font-size="35.0" fill="#000000" transform="matrix(1.00, 0.00, -0.00, -1.00, 1529.6, 325.2)">o</text><text xml:space="preserve" font-family="SegoeUI-Light,Segoe UI" font-size="35.0" fill="#000000" transform="matrix(1.00, 0.00, -0.00, -1.00, 1549.3, 325.2)">w</text><text xml:space="preserve" font-family="SegoeUI-Light,Segoe UI" font-size="35.0" fill="#000000" transform="matrix(1.00, 0.00, -0.00, -1.00, 1572.9, 325.2)">s</text><text xml:space="preserve" font-family="SegoeUI-Light,Segoe UI" font-size="35.0" fill="#000000" transform="matrix(1.00, 0.00, -0.00, -1.00, 1596.1, 325.2)">h</text><text xml:space="preserve" font-family="SegoeUI-Light,Segoe UI" font-size="35.0" fill="#000000" transform="matrix(1.00, 0.00, -0.00, -1.00, 1614.8, 325.2)">o</text><text xml:space="preserve" font-family="SegoeUI-Light,Segoe UI" font-size="35.0" fill="#000000" transform="matrix(1.00, 0.00, -0.00, -1.00, 1634.5, 325.2)">w</text><text xml:space="preserve" font-family="SegoeUI-Light,Segoe UI" font-size="35.0" fill="#000000" transform="matrix(1.00, 0.00, -0.00, -1.00, 1667.8, 325.2)">e</text><text xml:space="preserve" font-family="SegoeUI-Light,Segoe UI" font-size="35.0" fill="#000000" transform="matrix(1.00, 0.00, -0.00, -1.00, 1685.4, 325.2)">v</text><text xml:space="preserve" font-family="SegoeUI-Light,Segoe UI" font-size="35.0" fill="#000000" transform="matrix(1.00, 0.00, -0.00, -1.00, 1701.3, 325.2)">e</text><text xml:space="preserve" font-family="SegoeUI-Light,Segoe UI" font-size="35.0" fill="#000000" transform="matrix(1.00, 0.00, -0.00, -1.00, 1719.0, 325.2)">r</text><text xml:space="preserve" font-family="SegoeUI-Light,Segoe UI" font-size="35.0" fill="#000000" transform="matrix(1.00, 0.00, -0.00, -1.00, 1732.6, 325.2)">y</text><text xml:space="preserve" font-family="SegoeUI-Light,Segoe UI" font-size="35.0" fill="#000000" transform="matrix(1.00, 0.00, -0.00, -1.00, 1748.5, 325.2)">t</text><text xml:space="preserve" font-family="SegoeUI-Light,Segoe UI" font-size="35.0" fill="#000000" transform="matrix(1.00, 0.00, -0.00, -1.00, 1758.9, 325.2)">h</text><text xml:space="preserve" font-family="SegoeUI-Light,Segoe UI" font-size="35.0" fill="#000000" transform="matrix(1.00, 0.00, -0.00, -1.00, 1777.6, 325.2)">i</text><text xml:space="preserve" font-family="SegoeUI-Light,Segoe UI" font-size="35.0" fill="#000000" transform="matrix(1.00, 0.00, -0.00, -1.00, 1784.8, 325.2)">n</text><text xml:space="preserve" font-family="SegoeUI-Light,Segoe UI" font-size="35.0" fill="#000000" transform="matrix(1.00, 0.00, -0.00, -1.00, 1803.5, 325.2)">g</text><text xml:space="preserve" font-family="SegoeUI-Light,Segoe UI" font-size="35.0" fill="#000000" transform="matrix(1.00, 0.00, -0.00, -1.00, 1373.6, 278.2)">i</text><text xml:space="preserve" font-family="SegoeUI-Light,Segoe UI" font-size="35.0" fill="#000000" transform="matrix(1.00, 0.00, -0.00, -1.00, 1380.8, 278.2)">s</text><text xml:space="preserve" font-family="SegoeUI-Light,Segoe UI" font-size="35.0" fill="#000000" transform="matrix(1.00, 0.00, -0.00, -1.00, 1404.0, 278.2)">c</text><text xml:space="preserve" font-family="SegoeUI-Light,Segoe UI" font-size="35.0" fill="#000000" transform="matrix(1.00, 0.00, -0.00, -1.00, 1419.5, 278.2)">o</text><text xml:space="preserve" font-family="SegoeUI-Light,Segoe UI" font-size="35.0" fill="#000000" transform="matrix(1.00, 0.00, -0.00, -1.00, 1439.1, 278.2)">n</text><text xml:space="preserve" font-family="SegoeUI-Light,Segoe UI" font-size="35.0" fill="#000000" transform="matrix(1.00, 0.00, -0.00, -1.00, 1457.9, 278.2)">n</text><text xml:space="preserve" font-family="SegoeUI-Light,Segoe UI" font-size="35.0" fill="#000000" transform="matrix(1.00, 0.00, -0.00, -1.00, 1476.6, 278.2)">e</text><text xml:space="preserve" font-family="SegoeUI-Light,Segoe UI" font-size="35.0" fill="#000000" transform="matrix(1.00, 0.00, -0.00, -1.00, 1494.3, 278.2)">c</text><text xml:space="preserve" font-family="SegoeUI-Light,Segoe UI" font-size="35.0" fill="#000000" transform="matrix(1.00, 0.00, -0.00, -1.00, 1509.8, 278.2)">t</text><text xml:space="preserve" font-family="SegoeUI-Light,Segoe UI" font-size="35.0" fill="#000000" transform="matrix(1.00, 0.00, -0.00, -1.00, 1520.2, 278.2)">e</text><text xml:space="preserve" font-family="SegoeUI-Light,Segoe UI" font-size="35.0" fill="#000000" transform="matrix(1.00, 0.00, -0.00, -1.00, 1537.9, 278.2)">d</text><text xml:space="preserve" font-family="SegoeUI-Light,Segoe UI" font-size="35.0" fill="#000000" transform="matrix(1.00, 0.00, -0.00, -1.00, 1567.0, 278.2)">i</text><text xml:space="preserve" font-family="SegoeUI-Light,Segoe UI" font-size="35.0" fill="#000000" transform="matrix(1.00, 0.00, -0.00, -1.00, 1574.2, 278.2)">n</text><text xml:space="preserve" font-family="SegoeUI-Light,Segoe UI" font-size="35.0" fill="#000000" transform="matrix(1.00, 0.00, -0.00, -1.00, 1602.5, 278.2)">t</text><text xml:space="preserve" font-family="SegoeUI-Light,Segoe UI" font-size="35.0" fill="#000000" transform="matrix(1.00, 0.00, -0.00, -1.00, 1612.9, 278.2)">h</text><text xml:space="preserve" font-family="SegoeUI-Light,Segoe UI" font-size="35.0" fill="#000000" transform="matrix(1.00, 0.00, -0.00, -1.00, 1631.7, 278.2)">e</text><text xml:space="preserve" font-family="SegoeUI-Light,Segoe UI" font-size="35.0" fill="#000000" transform="matrix(1.00, 0.00, -0.00, -1.00, 1658.9, 278.2)">c</text><text xml:space="preserve" font-family="SegoeUI-Light,Segoe UI" font-size="35.0" fill="#000000" transform="matrix(1.00, 0.00, -0.00, -1.00, 1674.4, 278.2)">i</text><text xml:space="preserve" font-family="SegoeUI-Light,Segoe UI" font-size="35.0" fill="#000000" transform="matrix(1.00, 0.00, -0.00, -1.00, 1681.6, 278.2)">r</text><text xml:space="preserve" font-family="SegoeUI-Light,Segoe UI" font-size="35.0" fill="#000000" transform="matrix(1.00, 0.00, -0.00, -1.00, 1692.5, 278.2)">c</text><text xml:space="preserve" font-family="SegoeUI-Light,Segoe UI" font-size="35.0" fill="#000000" transform="matrix(1.00, 0.00, -0.00, -1.00, 1708.0, 278.2)">u</text><text xml:space="preserve" font-family="SegoeUI-Light,Segoe UI" font-size="35.0" fill="#000000" transform="matrix(1.00, 0.00, -0.00, -1.00, 1726.7, 278.2)">i</text><text xml:space="preserve" font-family="SegoeUI-Light,Segoe UI" font-size="35.0" fill="#000000" transform="matrix(1.00, 0.00, -0.00, -1.00, 1733.9, 278.2)">t</text><text xml:space="preserve" font-family="SegoeUI-Light,Segoe UI" font-size="35.0" fill="#000000" transform="matrix(1.00, 0.00, -0.00, -1.00, 1744.3, 278.2)">.</text></g></svg>