<?xml version="1.0" encoding="UTF-8" standalone="no"?><svg xmlns="http://www.w3.org/2000/svg" xmlns:xlink="http://www.w3.org/1999/xlink" clip-rule="evenodd" stroke-miterlimit="10" viewBox="0 0 744 53"><desc>SVG generated by Keynote</desc><defs></defs><g transform="matrix(1.00, 0.00, -0.00, -1.00, 0.0, 53.0)"><text xml:space="preserve" font-family="SegoeUI-Light,Segoe UI" font-size="50.0" fill="#000000" transform="matrix(1.00, 0.00, -0.00, -1.00, -2.8, 13.6)">b</text><text xml:space="preserve" font-family="SegoeUI-Light,Segoe UI" font-size="50.0" fill="#000000" transform="matrix(1.00, 0.00, -0.00, -1.00, 25.2, 13.6)">a</text><text xml:space="preserve" font-family="SegoeUI-Light,Segoe UI" font-size="50.0" fill="#000000" transform="matrix(1.00, 0.00, -0.00, -1.00, 49.9, 13.6)">s</text><text xml:space="preserve" font-family="SegoeUI-Light,Segoe UI" font-size="50.0" fill="#000000" transform="matrix(1.00, 0.00, -0.00, -1.00, 69.3, 13.6)">e</text><text xml:space="preserve" font-family="SegoeUI-Light,Segoe UI" font-size="50.0" fill="#000000" transform="matrix(1.00, 0.00, -0.00, -1.00, 94.5, 13.6)">d</text><text xml:space="preserve" font-family="SegoeUI-Light,Segoe UI" font-size="50.0" fill="#000000" transform="matrix(1.00, 0.00, -0.00, -1.00, 122.5, 13.6)"> </text><text xml:space="preserve" font-family="SegoeUI-Light,Segoe UI" font-size="50.0" fill="#000000" transform="matrix(1.00, 0.00, -0.00, -1.00, 136.2, 13.6)">o</text><text xml:space="preserve" font-family="SegoeUI-Light,Segoe UI" font-size="50.0" fill="#000000" transform="matrix(1.00, 0.00, -0.00, -1.00, 164.3, 13.6)">n</text><text xml:space="preserve" font-family="SegoeUI-Light,Segoe UI" font-size="50.0" fill="#000000" transform="matrix(1.00, 0.00, -0.00, -1.00, 191.1, 13.6)"> </text><text xml:space="preserve" font-family="SegoeUI-Light,Segoe UI" font-size="50.0" fill="#000000" transform="matrix(1.00, 0.00, -0.00, -1.00, 204.7, 13.6)">t</text><text xml:space="preserve" font-family="SegoeUI-Light,Segoe UI" font-size="50.0" fill="#000000" transform="matrix(1.00, 0.00, -0.00, -1.00, 219.6, 13.6)">h</text><text xml:space="preserve" font-family="SegoeUI-Light,Segoe UI" font-size="50.0" fill="#000000" transform="matrix(1.00, 0.00, -0.00, -1.00, 246.4, 13.6)">e</text><text xml:space="preserve" font-family="SegoeUI-Light,Segoe UI" font-size="50.0" fill="#000000" transform="matrix(1.00, 0.00, -0.00, -1.00, 271.6, 13.6)"> </text><text xml:space="preserve" font-family="SegoeUI-Light,Segoe UI" font-size="50.0" fill="#000000" transform="matrix(1.00, 0.00, -0.00, -1.00, 285.3, 13.6)">b</text><text xml:space="preserve" font-family="SegoeUI-Light,Segoe UI" font-size="50.0" fill="#000000" transform="matrix(1.00, 0.00, -0.00, -1.00, 313.3, 13.6)">o</text><text xml:space="preserve" font-family="SegoeUI-Light,Segoe UI" font-size="50.0" fill="#000000" transform="matrix(1.00, 0.00, -0.00, -1.00, 341.3, 13.6)">o</text><text xml:space="preserve" font-family="SegoeUI-Light,Segoe UI" font-size="50.0" fill="#000000" transform="matrix(1.00, 0.00, -0.00, -1.00, 369.4, 13.6)">k</text><text xml:space="preserve" font-family="SegoeUI-Light,Segoe UI" font-size="50.0" fill="#000000" transform="matrix(1.00, 0.00, -0.00, -1.00, 391.6, 13.6)"> </text><text xml:space="preserve" font-family="SegoeUI-Light,Segoe UI" font-size="50.0" fill="#000000" transform="matrix(1.00, 0.00, -0.00, -1.00, 405.3, 13.6)">b</text><text xml:space="preserve" font-family="SegoeUI-Light,Segoe UI" font-size="50.0" fill="#000000" transform="matrix(1.00, 0.00, -0.00, -1.00, 433.3, 13.6)">y</text><text xml:space="preserve" font-family="SegoeUI-Light,Segoe UI" font-size="50.0" fill="#000000" transform="matrix(1.00, 0.00, -0.00, -1.00, 455.9, 13.6)"> </text><text xml:space="preserve" font-family="SegoeUI-Light,Segoe UI" font-size="50.0" fill="#000000" transform="matrix(1.00, 0.00, -0.00, -1.00, 469.6, 13.6)">N</text><text xml:space="preserve" font-family="SegoeUI-Light,Segoe UI" font-size="50.0" fill="#000000" transform="matrix(1.00, 0.00, -0.00, -1.00, 505.1, 13.6)">i</text><text xml:space="preserve" font-family="SegoeUI-Light,Segoe UI" font-size="50.0" fill="#000000" transform="matrix(1.00, 0.00, -0.00, -1.00, 515.3, 13.6)">r</text><text xml:space="preserve" font-family="SegoeUI-Light,Segoe UI" font-size="50.0" fill="#000000" transform="matrix(1.00, 0.00, -0.00, -1.00, 531.7, 13.6)">m</text><text xml:space="preserve" font-family="SegoeUI-Light,Segoe UI" font-size="50.0" fill="#000000" transform="matrix(1.00, 0.00, -0.00, -1.00, 572.8, 13.6)">a</text><text xml:space="preserve" font-family="SegoeUI-Light,Segoe UI" font-size="50.0" fill="#000000" transform="matrix(1.00, 0.00, -0.00, -1.00, 597.5, 13.6)">n</text><text xml:space="preserve" font-family="SegoeUI-Light,Segoe UI" font-size="50.0" fill="#000000" transform="matrix(1.00, 0.00, -0.00, -1.00, 624.3, 13.6)"> </text><text xml:space="preserve" font-family="SegoeUI-Light,Segoe UI" font-size="50.0" fill="#000000" transform="matrix(1.00, 0.00, -0.00, -1.00, 637.9, 13.6)">D</text><text xml:space="preserve" font-family="SegoeUI-Light,Segoe UI" font-size="50.0" fill="#000000" transform="matrix(1.00, 0.00, -0.00, -1.00, 671.6, 13.6)">a</text><text xml:space="preserve" font-family="SegoeUI-Light,Segoe UI" font-size="50.0" fill="#000000" transform="matrix(1.00, 0.00, -0.00, -1.00, 696.3, 13.6)">v</text><text xml:space="preserve" font-family="SegoeUI-Light,Segoe UI" font-size="50.0" fill="#000000" transform="matrix(1.00, 0.00, -0.00, -1.00, 719.0, 13.6)">e</text></g></svg>