<?xml version="1.0" encoding="UTF-8" standalone="no"?><svg xmlns="http://www.w3.org/2000/svg" xmlns:xlink="http://www.w3.org/1999/xlink" clip-rule="evenodd" stroke-miterlimit="10" viewBox="0 0 1920 1080"><desc>SVG generated by Keynote</desc><defs></defs><g transform="matrix(1.00, 0.00, -0.00, -1.00, 0.0, 1080.0)"><path d="M 0.0 1080.0 L 1920.0 1080.0 L 1920.0 0.0 L 0.0 0.0 Z M 0.0 1080.0 " fill="#FEFFFF"></path><text xml:space="preserve" font-family="SegoeUI-Light,Segoe UI" font-size="200.0" fill="#000000" transform="matrix(1.00, 0.00, -0.00, -1.00, 428.7, 807.8)">M</text><text xml:space="preserve" font-family="SegoeUI-Light,Segoe UI" font-size="200.0" fill="#000000" transform="matrix(1.00, 0.00, -0.00, -1.00, 595.3, 807.8)">a</text><text xml:space="preserve" font-family="SegoeUI-Light,Segoe UI" font-size="200.0" fill="#000000" transform="matrix(1.00, 0.00, -0.00, -1.00, 694.1, 807.8)">k</text><text xml:space="preserve" font-family="SegoeUI-Light,Segoe UI" font-size="200.0" fill="#000000" transform="matrix(1.00, 0.00, -0.00, -1.00, 782.9, 807.8)">e</text><text xml:space="preserve" font-family="SegoeUI-Light,Segoe UI" font-size="200.0" fill="#000000" transform="matrix(1.00, 0.00, -0.00, -1.00, 883.8, 807.8)"> </text><text xml:space="preserve" font-family="SegoeUI-Light,Segoe UI" font-size="200.0" fill="#000000" transform="matrix(1.00, 0.00, -0.00, -1.00, 938.6, 807.8)">i</text><text xml:space="preserve" font-family="SegoeUI-Light,Segoe UI" font-size="200.0" fill="#000000" transform="matrix(1.00, 0.00, -0.00, -1.00, 979.6, 807.8)">n</text><text xml:space="preserve" font-family="SegoeUI-Light,Segoe UI" font-size="200.0" fill="#000000" transform="matrix(1.00, 0.00, -0.00, -1.00, 1086.7, 807.8)">f</text><text xml:space="preserve" font-family="SegoeUI-Light,Segoe UI" font-size="200.0" fill="#000000" transform="matrix(1.00, 0.00, -0.00, -1.00, 1141.8, 807.8)">i</text><text xml:space="preserve" font-family="SegoeUI-Light,Segoe UI" font-size="200.0" fill="#000000" transform="matrix(1.00, 0.00, -0.00, -1.00, 1182.9, 807.8)">n</text><text xml:space="preserve" font-family="SegoeUI-Light,Segoe UI" font-size="200.0" fill="#000000" transform="matrix(1.00, 0.00, -0.00, -1.00, 1290.0, 807.8)">i</text><text xml:space="preserve" font-family="SegoeUI-Light,Segoe UI" font-size="200.0" fill="#000000" transform="matrix(1.00, 0.00, -0.00, -1.00, 1331.0, 807.8)">t</text><text xml:space="preserve" font-family="SegoeUI-Light,Segoe UI" font-size="200.0" fill="#000000" transform="matrix(1.00, 0.00, -0.00, -1.00, 1390.3, 807.8)">y</text><text xml:space="preserve" font-family="SegoeUI-Light,Segoe UI" font-size="50.0" fill="#000000" transform="matrix(1.00, 0.00, -0.00, -1.00, 635.2, 751.6)">b</text><text xml:space="preserve" font-family="SegoeUI-Light,Segoe UI" font-size="50.0" fill="#000000" transform="matrix(1.00, 0.00, -0.00, -1.00, 663.2, 751.6)">a</text><text xml:space="preserve" font-family="SegoeUI-Light,Segoe UI" font-size="50.0" fill="#000000" transform="matrix(1.00, 0.00, -0.00, -1.00, 687.9, 751.6)">s</text><text xml:space="preserve" font-family="SegoeUI-Light,Segoe UI" font-size="50.0" fill="#000000" transform="matrix(1.00, 0.00, -0.00, -1.00, 707.3, 751.6)">e</text><text xml:space="preserve" font-family="SegoeUI-Light,Segoe UI" font-size="50.0" fill="#000000" transform="matrix(1.00, 0.00, -0.00, -1.00, 732.5, 751.6)">d</text><text xml:space="preserve" font-family="SegoeUI-Light,Segoe UI" font-size="50.0" fill="#000000" transform="matrix(1.00, 0.00, -0.00, -1.00, 760.5, 751.6)"> </text><text xml:space="preserve" font-family="SegoeUI-Light,Segoe UI" font-size="50.0" fill="#000000" transform="matrix(1.00, 0.00, -0.00, -1.00, 774.2, 751.6)">o</text><text xml:space="preserve" font-family="SegoeUI-Light,Segoe UI" font-size="50.0" fill="#000000" transform="matrix(1.00, 0.00, -0.00, -1.00, 802.3, 751.6)">n</text><text xml:space="preserve" font-family="SegoeUI-Light,Segoe UI" font-size="50.0" fill="#000000" transform="matrix(1.00, 0.00, -0.00, -1.00, 829.1, 751.6)"> </text><text xml:space="preserve" font-family="SegoeUI-Light,Segoe UI" font-size="50.0" fill="#000000" transform="matrix(1.00, 0.00, -0.00, -1.00, 842.7, 751.6)">t</text><text xml:space="preserve" font-family="SegoeUI-Light,Segoe UI" font-size="50.0" fill="#000000" transform="matrix(1.00, 0.00, -0.00, -1.00, 857.6, 751.6)">h</text><text xml:space="preserve" font-family="SegoeUI-Light,Segoe UI" font-size="50.0" fill="#000000" transform="matrix(1.00, 0.00, -0.00, -1.00, 884.4, 751.6)">e</text><text xml:space="preserve" font-family="SegoeUI-Light,Segoe UI" font-size="50.0" fill="#000000" transform="matrix(1.00, 0.00, -0.00, -1.00, 909.6, 751.6)"> </text><text xml:space="preserve" font-family="SegoeUI-Light,Segoe UI" font-size="50.0" fill="#000000" transform="matrix(1.00, 0.00, -0.00, -1.00, 923.3, 751.6)">b</text><text xml:space="preserve" font-family="SegoeUI-Light,Segoe UI" font-size="50.0" fill="#000000" transform="matrix(1.00, 0.00, -0.00, -1.00, 951.3, 751.6)">o</text><text xml:space="preserve" font-family="SegoeUI-Light,Segoe UI" font-size="50.0" fill="#000000" transform="matrix(1.00, 0.00, -0.00, -1.00, 979.3, 751.6)">o</text><text xml:space="preserve" font-family="SegoeUI-Light,Segoe UI" font-size="50.0" fill="#000000" transform="matrix(1.00, 0.00, -0.00, -1.00, 1007.4, 751.6)">k</text><text xml:space="preserve" font-family="SegoeUI-Light,Segoe UI" font-size="50.0" fill="#000000" transform="matrix(1.00, 0.00, -0.00, -1.00, 1029.6, 751.6)"> </text><text xml:space="preserve" font-family="SegoeUI-Light,Segoe UI" font-size="50.0" fill="#000000" transform="matrix(1.00, 0.00, -0.00, -1.00, 1043.3, 751.6)">b</text><text xml:space="preserve" font-family="SegoeUI-Light,Segoe UI" font-size="50.0" fill="#000000" transform="matrix(1.00, 0.00, -0.00, -1.00, 1071.3, 751.6)">y</text><text xml:space="preserve" font-family="SegoeUI-Light,Segoe UI" font-size="50.0" fill="#000000" transform="matrix(1.00, 0.00, -0.00, -1.00, 1093.9, 751.6)"> </text><text xml:space="preserve" font-family="SegoeUI-Light,Segoe UI" font-size="50.0" fill="#000000" transform="matrix(1.00, 0.00, -0.00, -1.00, 1107.6, 751.6)">N</text><text xml:space="preserve" font-family="SegoeUI-Light,Segoe UI" font-size="50.0" fill="#000000" transform="matrix(1.00, 0.00, -0.00, -1.00, 1143.1, 751.6)">i</text><text xml:space="preserve" font-family="SegoeUI-Light,Segoe UI" font-size="50.0" fill="#000000" transform="matrix(1.00, 0.00, -0.00, -1.00, 1153.3, 751.6)">r</text><text xml:space="preserve" font-family="SegoeUI-Light,Segoe UI" font-size="50.0" fill="#000000" transform="matrix(1.00, 0.00, -0.00, -1.00, 1169.7, 751.6)">m</text><text xml:space="preserve" font-family="SegoeUI-Light,Segoe UI" font-size="50.0" fill="#000000" transform="matrix(1.00, 0.00, -0.00, -1.00, 1210.8, 751.6)">a</text><text xml:space="preserve" font-family="SegoeUI-Light,Segoe UI" font-size="50.0" fill="#000000" transform="matrix(1.00, 0.00, -0.00, -1.00, 1235.5, 751.6)">n</text><text xml:space="preserve" font-family="SegoeUI-Light,Segoe UI" font-size="50.0" fill="#000000" transform="matrix(1.00, 0.00, -0.00, -1.00, 1262.3, 751.6)"> </text><text xml:space="preserve" font-family="SegoeUI-Light,Segoe UI" font-size="50.0" fill="#000000" transform="matrix(1.00, 0.00, -0.00, -1.00, 1275.9, 751.6)">D</text><text xml:space="preserve" font-family="SegoeUI-Light,Segoe UI" font-size="50.0" fill="#000000" transform="matrix(1.00, 0.00, -0.00, -1.00, 1309.6, 751.6)">a</text><text xml:space="preserve" font-family="SegoeUI-Light,Segoe UI" font-size="50.0" fill="#000000" transform="matrix(1.00, 0.00, -0.00, -1.00, 1334.3, 751.6)">v</text><text xml:space="preserve" font-family="SegoeUI-Light,Segoe UI" font-size="50.0" fill="#000000" transform="matrix(1.00, 0.00, -0.00, -1.00, 1357.0, 751.6)">e</text><image xlink:href="../../55D36BD9-7887-4E55-8B3D-64EBEC353036/assets/A6189EA006AEA99AE28C6792EB1407F2.png" width="200.00" height="200.00" transform="matrix(1.37, 0.00, -0.00, -1.37, 1407.0, 991.0)"></image><text xml:space="preserve" font-family="SegoeUI-Light,Segoe UI" font-size="35.0" fill="#000000" transform="matrix(1.00, 0.00, -0.00, -1.00, 653.9, 434.6)">T</text><text xml:space="preserve" font-family="SegoeUI-Light,Segoe UI" font-size="35.0" fill="#000000" transform="matrix(1.00, 0.00, -0.00, -1.00, 671.8, 434.6)">h</text><text xml:space="preserve" font-family="SegoeUI-Light,Segoe UI" font-size="35.0" fill="#000000" transform="matrix(1.00, 0.00, -0.00, -1.00, 690.5, 434.6)">i</text><text xml:space="preserve" font-family="SegoeUI-Light,Segoe UI" font-size="35.0" fill="#000000" transform="matrix(1.00, 0.00, -0.00, -1.00, 697.7, 434.6)">s</text><text xml:space="preserve" font-family="SegoeUI-Light,Segoe UI" font-size="35.0" fill="#000000" transform="matrix(1.00, 0.00, -0.00, -1.00, 711.3, 434.6)"> </text><text xml:space="preserve" font-family="SegoeUI-Light,Segoe UI" font-size="35.0" fill="#000000" transform="matrix(1.00, 0.00, -0.00, -1.00, 720.9, 434.6)">i</text><text xml:space="preserve" font-family="SegoeUI-Light,Segoe UI" font-size="35.0" fill="#000000" transform="matrix(1.00, 0.00, -0.00, -1.00, 728.1, 434.6)">n</text><text xml:space="preserve" font-family="SegoeUI-Light,Segoe UI" font-size="35.0" fill="#000000" transform="matrix(1.00, 0.00, -0.00, -1.00, 746.8, 434.6)">t</text><text xml:space="preserve" font-family="SegoeUI-Light,Segoe UI" font-size="35.0" fill="#000000" transform="matrix(1.00, 0.00, -0.00, -1.00, 757.2, 434.6)">e</text><text xml:space="preserve" font-family="SegoeUI-Light,Segoe UI" font-size="35.0" fill="#000000" transform="matrix(1.00, 0.00, -0.00, -1.00, 774.8, 434.6)">r</text><text xml:space="preserve" font-family="SegoeUI-Light,Segoe UI" font-size="35.0" fill="#000000" transform="matrix(1.00, 0.00, -0.00, -1.00, 786.4, 434.6)">a</text><text xml:space="preserve" font-family="SegoeUI-Light,Segoe UI" font-size="35.0" fill="#000000" transform="matrix(1.00, 0.00, -0.00, -1.00, 803.7, 434.6)">c</text><text xml:space="preserve" font-family="SegoeUI-Light,Segoe UI" font-size="35.0" fill="#000000" transform="matrix(1.00, 0.00, -0.00, -1.00, 819.2, 434.6)">t</text><text xml:space="preserve" font-family="SegoeUI-Light,Segoe UI" font-size="35.0" fill="#000000" transform="matrix(1.00, 0.00, -0.00, -1.00, 829.6, 434.6)">i</text><text xml:space="preserve" font-family="SegoeUI-Light,Segoe UI" font-size="35.0" fill="#000000" transform="matrix(1.00, 0.00, -0.00, -1.00, 836.8, 434.6)">v</text><text xml:space="preserve" font-family="SegoeUI-Light,Segoe UI" font-size="35.0" fill="#000000" transform="matrix(1.00, 0.00, -0.00, -1.00, 852.7, 434.6)">e</text><text xml:space="preserve" font-family="SegoeUI-Light,Segoe UI" font-size="35.0" fill="#000000" transform="matrix(1.00, 0.00, -0.00, -1.00, 870.3, 434.6)"> </text><text xml:space="preserve" font-family="SegoeUI-Light,Segoe UI" font-size="35.0" fill="#000000" transform="matrix(1.00, 0.00, -0.00, -1.00, 879.9, 434.6)">i</text><text xml:space="preserve" font-family="SegoeUI-Light,Segoe UI" font-size="35.0" fill="#000000" transform="matrix(1.00, 0.00, -0.00, -1.00, 887.1, 434.6)">s</text><text xml:space="preserve" font-family="SegoeUI-Light,Segoe UI" font-size="35.0" fill="#000000" transform="matrix(1.00, 0.00, -0.00, -1.00, 900.7, 434.6)"> </text><text xml:space="preserve" font-family="SegoeUI-Light,Segoe UI" font-size="35.0" fill="#000000" transform="matrix(1.00, 0.00, -0.00, -1.00, 910.3, 434.6)">c</text><text xml:space="preserve" font-family="SegoeUI-Light,Segoe UI" font-size="35.0" fill="#000000" transform="matrix(1.00, 0.00, -0.00, -1.00, 925.8, 434.6)">r</text><text xml:space="preserve" font-family="SegoeUI-Light,Segoe UI" font-size="35.0" fill="#000000" transform="matrix(1.00, 0.00, -0.00, -1.00, 936.7, 434.6)">e</text><text xml:space="preserve" font-family="SegoeUI-Light,Segoe UI" font-size="35.0" fill="#000000" transform="matrix(1.00, 0.00, -0.00, -1.00, 954.3, 434.6)">a</text><text xml:space="preserve" font-family="SegoeUI-Light,Segoe UI" font-size="35.0" fill="#000000" transform="matrix(1.00, 0.00, -0.00, -1.00, 971.6, 434.6)">t</text><text xml:space="preserve" font-family="SegoeUI-Light,Segoe UI" font-size="35.0" fill="#000000" transform="matrix(1.00, 0.00, -0.00, -1.00, 982.0, 434.6)">e</text><text xml:space="preserve" font-family="SegoeUI-Light,Segoe UI" font-size="35.0" fill="#000000" transform="matrix(1.00, 0.00, -0.00, -1.00, 999.7, 434.6)">d</text><text xml:space="preserve" font-family="SegoeUI-Light,Segoe UI" font-size="35.0" fill="#000000" transform="matrix(1.00, 0.00, -0.00, -1.00, 1019.3, 434.6)"> </text><text xml:space="preserve" font-family="SegoeUI-Light,Segoe UI" font-size="35.0" fill="#000000" transform="matrix(1.00, 0.00, -0.00, -1.00, 1028.9, 434.6)">b</text><text xml:space="preserve" font-family="SegoeUI-Light,Segoe UI" font-size="35.0" fill="#000000" transform="matrix(1.00, 0.00, -0.00, -1.00, 1048.5, 434.6)">y</text><text xml:space="preserve" font-family="SegoeUI-Light,Segoe UI" font-size="35.0" fill="#000000" transform="matrix(1.00, 0.00, -0.00, -1.00, 1064.3, 434.6)"> </text><text xml:space="preserve" font-family="SegoeUI-Light,Segoe UI" font-size="35.0" fill="#000000" transform="matrix(1.00, 0.00, -0.00, -1.00, 1073.9, 434.6)">N</text><text xml:space="preserve" font-family="SegoeUI-Light,Segoe UI" font-size="35.0" fill="#000000" transform="matrix(1.00, 0.00, -0.00, -1.00, 1098.7, 434.6)">i</text><text xml:space="preserve" font-family="SegoeUI-Light,Segoe UI" font-size="35.0" fill="#000000" transform="matrix(1.00, 0.00, -0.00, -1.00, 1105.9, 434.6)">r</text><text xml:space="preserve" font-family="SegoeUI-Light,Segoe UI" font-size="35.0" fill="#000000" transform="matrix(1.00, 0.00, -0.00, -1.00, 1117.4, 434.6)">m</text><text xml:space="preserve" font-family="SegoeUI-Light,Segoe UI" font-size="35.0" fill="#000000" transform="matrix(1.00, 0.00, -0.00, -1.00, 1146.1, 434.6)">a</text><text xml:space="preserve" font-family="SegoeUI-Light,Segoe UI" font-size="35.0" fill="#000000" transform="matrix(1.00, 0.00, -0.00, -1.00, 1163.4, 434.6)">n</text><text xml:space="preserve" font-family="SegoeUI-Light,Segoe UI" font-size="35.0" fill="#000000" transform="matrix(1.00, 0.00, -0.00, -1.00, 1182.2, 434.6)"> </text><text xml:space="preserve" font-family="SegoeUI-Light,Segoe UI" font-size="35.0" fill="#000000" transform="matrix(1.00, 0.00, -0.00, -1.00, 1191.7, 434.6)">D</text><text xml:space="preserve" font-family="SegoeUI-Light,Segoe UI" font-size="35.0" fill="#000000" transform="matrix(1.00, 0.00, -0.00, -1.00, 1215.3, 434.6)">a</text><text xml:space="preserve" font-family="SegoeUI-Light,Segoe UI" font-size="35.0" fill="#000000" transform="matrix(1.00, 0.00, -0.00, -1.00, 1232.6, 434.6)">v</text><text xml:space="preserve" font-family="SegoeUI-Light,Segoe UI" font-size="35.0" fill="#000000" transform="matrix(1.00, 0.00, -0.00, -1.00, 1248.5, 434.6)">e</text><text xml:space="preserve" font-family="SegoeUI-Light,Segoe UI" font-size="35.0" fill="#000000" transform="matrix(1.00, 0.00, -0.00, -1.00, 1266.1, 434.6)"> </text><text xml:space="preserve" font-family="SegoeUI-Light,Segoe UI" font-size="35.0" fill="#000000" transform="matrix(1.00, 0.00, -0.00, -1.00, 684.3, 387.6)">A</text><text xml:space="preserve" font-family="SegoeUI-Light,Segoe UI" font-size="35.0" fill="#000000" transform="matrix(1.00, 0.00, -0.00, -1.00, 706.3, 387.6)">n</text><text xml:space="preserve" font-family="SegoeUI-Light,Segoe UI" font-size="35.0" fill="#000000" transform="matrix(1.00, 0.00, -0.00, -1.00, 725.1, 387.6)"> </text><text xml:space="preserve" font-family="SegoeUI-Light,Segoe UI" font-size="35.0" fill="#000000" transform="matrix(1.00, 0.00, -0.00, -1.00, 734.7, 387.6)">i</text><text xml:space="preserve" font-family="SegoeUI-Light,Segoe UI" font-size="35.0" fill="#000000" transform="matrix(1.00, 0.00, -0.00, -1.00, 741.8, 387.6)">n</text><text xml:space="preserve" font-family="SegoeUI-Light,Segoe UI" font-size="35.0" fill="#000000" transform="matrix(1.00, 0.00, -0.00, -1.00, 760.6, 387.6)">i</text><text xml:space="preserve" font-family="SegoeUI-Light,Segoe UI" font-size="35.0" fill="#000000" transform="matrix(1.00, 0.00, -0.00, -1.00, 767.8, 387.6)">t</text><text xml:space="preserve" font-family="SegoeUI-Light,Segoe UI" font-size="35.0" fill="#000000" transform="matrix(1.00, 0.00, -0.00, -1.00, 778.1, 387.6)">i</text><text xml:space="preserve" font-family="SegoeUI-Light,Segoe UI" font-size="35.0" fill="#000000" transform="matrix(1.00, 0.00, -0.00, -1.00, 785.3, 387.6)">a</text><text xml:space="preserve" font-family="SegoeUI-Light,Segoe UI" font-size="35.0" fill="#000000" transform="matrix(1.00, 0.00, -0.00, -1.00, 802.6, 387.6)">t</text><text xml:space="preserve" font-family="SegoeUI-Light,Segoe UI" font-size="35.0" fill="#000000" transform="matrix(1.00, 0.00, -0.00, -1.00, 813.0, 387.6)">i</text><text xml:space="preserve" font-family="SegoeUI-Light,Segoe UI" font-size="35.0" fill="#000000" transform="matrix(1.00, 0.00, -0.00, -1.00, 820.2, 387.6)">v</text><text xml:space="preserve" font-family="SegoeUI-Light,Segoe UI" font-size="35.0" fill="#000000" transform="matrix(1.00, 0.00, -0.00, -1.00, 836.1, 387.6)">e</text><text xml:space="preserve" font-family="SegoeUI-Light,Segoe UI" font-size="35.0" fill="#000000" transform="matrix(1.00, 0.00, -0.00, -1.00, 853.7, 387.6)"> </text><text xml:space="preserve" font-family="SegoeUI-Light,Segoe UI" font-size="35.0" fill="#000000" transform="matrix(1.00, 0.00, -0.00, -1.00, 863.3, 387.6)">b</text><text xml:space="preserve" font-family="SegoeUI-Light,Segoe UI" font-size="35.0" fill="#000000" transform="matrix(1.00, 0.00, -0.00, -1.00, 882.9, 387.6)">y</text><text xml:space="preserve" font-family="SegoeUI-Light,Segoe UI" font-size="35.0" fill="#000000" transform="matrix(1.00, 0.00, -0.00, -1.00, 898.8, 387.6)"> </text><text xml:space="preserve" font-family="SegoeUI-Light,Segoe UI" font-size="35.0" fill="#000000" transform="matrix(1.00, 0.00, -0.00, -1.00, 908.4, 387.6)">I</text><text xml:space="preserve" font-family="SegoeUI-Light,Segoe UI" font-size="35.0" fill="#000000" transform="matrix(1.00, 0.00, -0.00, -1.00, 916.3, 387.6)">n</text><text xml:space="preserve" font-family="SegoeUI-Light,Segoe UI" font-size="35.0" fill="#000000" transform="matrix(1.00, 0.00, -0.00, -1.00, 935.1, 387.6)">t</text><text xml:space="preserve" font-family="SegoeUI-Light,Segoe UI" font-size="35.0" fill="#000000" transform="matrix(1.00, 0.00, -0.00, -1.00, 945.5, 387.6)">e</text><text xml:space="preserve" font-family="SegoeUI-Light,Segoe UI" font-size="35.0" fill="#000000" transform="matrix(1.00, 0.00, -0.00, -1.00, 963.1, 387.6)">l</text><text xml:space="preserve" font-family="SegoeUI-Light,Segoe UI" font-size="35.0" fill="#000000" transform="matrix(1.00, 0.00, -0.00, -1.00, 970.3, 387.6)">®</text><text xml:space="preserve" font-family="SegoeUI-Light,Segoe UI" font-size="35.0" fill="#000000" transform="matrix(1.00, 0.00, -0.00, -1.00, 1001.1, 387.6)"> </text><text xml:space="preserve" font-family="SegoeUI-Light,Segoe UI" font-size="35.0" fill="#000000" transform="matrix(1.00, 0.00, -0.00, -1.00, 1010.7, 387.6)">E</text><text xml:space="preserve" font-family="SegoeUI-Light,Segoe UI" font-size="35.0" fill="#000000" transform="matrix(1.00, 0.00, -0.00, -1.00, 1028.2, 387.6)">d</text><text xml:space="preserve" font-family="SegoeUI-Light,Segoe UI" font-size="35.0" fill="#000000" transform="matrix(1.00, 0.00, -0.00, -1.00, 1047.8, 387.6)">u</text><text xml:space="preserve" font-family="SegoeUI-Light,Segoe UI" font-size="35.0" fill="#000000" transform="matrix(1.00, 0.00, -0.00, -1.00, 1066.5, 387.6)">c</text><text xml:space="preserve" font-family="SegoeUI-Light,Segoe UI" font-size="35.0" fill="#000000" transform="matrix(1.00, 0.00, -0.00, -1.00, 1082.1, 387.6)">a</text><text xml:space="preserve" font-family="SegoeUI-Light,Segoe UI" font-size="35.0" fill="#000000" transform="matrix(1.00, 0.00, -0.00, -1.00, 1099.4, 387.6)">t</text><text xml:space="preserve" font-family="SegoeUI-Light,Segoe UI" font-size="35.0" fill="#000000" transform="matrix(1.00, 0.00, -0.00, -1.00, 1109.8, 387.6)">i</text><text xml:space="preserve" font-family="SegoeUI-Light,Segoe UI" font-size="35.0" fill="#000000" transform="matrix(1.00, 0.00, -0.00, -1.00, 1116.9, 387.6)">o</text><text xml:space="preserve" font-family="SegoeUI-Light,Segoe UI" font-size="35.0" fill="#000000" transform="matrix(1.00, 0.00, -0.00, -1.00, 1136.6, 387.6)">n</text><text xml:space="preserve" font-family="SegoeUI-Light,Segoe UI" font-size="35.0" fill="#000000" transform="matrix(1.00, 0.00, -0.00, -1.00, 1155.3, 387.6)"> </text><text xml:space="preserve" font-family="SegoeUI-Light,Segoe UI" font-size="35.0" fill="#000000" transform="matrix(1.00, 0.00, -0.00, -1.00, 1164.9, 387.6)">I</text><text xml:space="preserve" font-family="SegoeUI-Light,Segoe UI" font-size="35.0" fill="#000000" transform="matrix(1.00, 0.00, -0.00, -1.00, 1172.9, 387.6)">n</text><text xml:space="preserve" font-family="SegoeUI-Light,Segoe UI" font-size="35.0" fill="#000000" transform="matrix(1.00, 0.00, -0.00, -1.00, 1191.6, 387.6)">d</text><text xml:space="preserve" font-family="SegoeUI-Light,Segoe UI" font-size="35.0" fill="#000000" transform="matrix(1.00, 0.00, -0.00, -1.00, 1211.2, 387.6)">i</text><text xml:space="preserve" font-family="SegoeUI-Light,Segoe UI" font-size="35.0" fill="#000000" transform="matrix(1.00, 0.00, -0.00, -1.00, 1218.4, 387.6)">a</text><text xml:space="preserve" font-family="SegoeUI-Light,Segoe UI" font-size="28.0" fill="#0432FF" transform="matrix(1.00, 0.00, -0.00, -1.00, 9.8, 18.4)">I</text><text xml:space="preserve" font-family="SegoeUI-Light,Segoe UI" font-size="28.0" fill="#0432FF" transform="matrix(1.00, 0.00, -0.00, -1.00, 16.2, 18.4)">n</text><text xml:space="preserve" font-family="SegoeUI-Light,Segoe UI" font-size="28.0" fill="#0432FF" transform="matrix(1.00, 0.00, -0.00, -1.00, 31.2, 18.4)">t</text><text xml:space="preserve" font-family="SegoeUI-Light,Segoe UI" font-size="28.0" fill="#0432FF" transform="matrix(1.00, 0.00, -0.00, -1.00, 39.5, 18.4)">e</text><text xml:space="preserve" font-family="SegoeUI-Light,Segoe UI" font-size="28.0" fill="#0432FF" transform="matrix(1.00, 0.00, -0.00, -1.00, 53.6, 18.4)">l</text><text xml:space="preserve" font-family="SegoeUI-Light,Segoe UI" font-size="28.0" fill="#0432FF" transform="matrix(1.00, 0.00, -0.00, -1.00, 59.4, 18.4)">®</text><text xml:space="preserve" font-family="SegoeUI-Light,Segoe UI" font-size="28.0" fill="#0432FF" transform="matrix(1.00, 0.00, -0.00, -1.00, 84.0, 18.4)"> </text><text xml:space="preserve" font-family="SegoeUI-Light,Segoe UI" font-size="28.0" fill="#0432FF" transform="matrix(1.00, 0.00, -0.00, -1.00, 91.7, 18.4)">E</text><text xml:space="preserve" font-family="SegoeUI-Light,Segoe UI" font-size="28.0" fill="#0432FF" transform="matrix(1.00, 0.00, -0.00, -1.00, 105.7, 18.4)">d</text><text xml:space="preserve" font-family="SegoeUI-Light,Segoe UI" font-size="28.0" fill="#0432FF" transform="matrix(1.00, 0.00, -0.00, -1.00, 121.4, 18.4)">u</text><text xml:space="preserve" font-family="SegoeUI-Light,Segoe UI" font-size="28.0" fill="#0432FF" transform="matrix(1.00, 0.00, -0.00, -1.00, 136.4, 18.4)">c</text><text xml:space="preserve" font-family="SegoeUI-Light,Segoe UI" font-size="28.0" fill="#0432FF" transform="matrix(1.00, 0.00, -0.00, -1.00, 148.8, 18.4)">a</text><text xml:space="preserve" font-family="SegoeUI-Light,Segoe UI" font-size="28.0" fill="#0432FF" transform="matrix(1.00, 0.00, -0.00, -1.00, 162.6, 18.4)">t</text><text xml:space="preserve" font-family="SegoeUI-Light,Segoe UI" font-size="28.0" fill="#0432FF" transform="matrix(1.00, 0.00, -0.00, -1.00, 170.9, 18.4)">i</text><text xml:space="preserve" font-family="SegoeUI-Light,Segoe UI" font-size="28.0" fill="#0432FF" transform="matrix(1.00, 0.00, -0.00, -1.00, 176.7, 18.4)">o</text><text xml:space="preserve" font-family="SegoeUI-Light,Segoe UI" font-size="28.0" fill="#0432FF" transform="matrix(1.00, 0.00, -0.00, -1.00, 192.4, 18.4)">n</text><text xml:space="preserve" font-family="SegoeUI-Light,Segoe UI" font-size="28.0" fill="#0432FF" transform="matrix(1.00, 0.00, -0.00, -1.00, 207.4, 18.4)"> </text><text xml:space="preserve" font-family="SegoeUI-Light,Segoe UI" font-size="28.0" fill="#0432FF" transform="matrix(1.00, 0.00, -0.00, -1.00, 215.1, 18.4)">I</text><text xml:space="preserve" font-family="SegoeUI-Light,Segoe UI" font-size="28.0" fill="#0432FF" transform="matrix(1.00, 0.00, -0.00, -1.00, 221.4, 18.4)">n</text><text xml:space="preserve" font-family="SegoeUI-Light,Segoe UI" font-size="28.0" fill="#0432FF" transform="matrix(1.00, 0.00, -0.00, -1.00, 236.4, 18.4)">d</text><text xml:space="preserve" font-family="SegoeUI-Light,Segoe UI" font-size="28.0" fill="#0432FF" transform="matrix(1.00, 0.00, -0.00, -1.00, 252.1, 18.4)">i</text><text xml:space="preserve" font-family="SegoeUI-Light,Segoe UI" font-size="28.0" fill="#0432FF" transform="matrix(1.00, 0.00, -0.00, -1.00, 257.9, 18.4)">a</text><text xml:space="preserve" font-family="SegoeUI-Light,Segoe UI" font-size="28.0" fill="#0432FF" transform="matrix(1.00, 0.00, -0.00, -1.00, 1752.9, 18.4)">N</text><text xml:space="preserve" font-family="SegoeUI-Light,Segoe UI" font-size="28.0" fill="#0432FF" transform="matrix(1.00, 0.00, -0.00, -1.00, 1772.7, 18.4)">i</text><text xml:space="preserve" font-family="SegoeUI-Light,Segoe UI" font-size="28.0" fill="#0432FF" transform="matrix(1.00, 0.00, -0.00, -1.00, 1778.5, 18.4)">r</text><text xml:space="preserve" font-family="SegoeUI-Light,Segoe UI" font-size="28.0" fill="#0432FF" transform="matrix(1.00, 0.00, -0.00, -1.00, 1787.6, 18.4)">m</text><text xml:space="preserve" font-family="SegoeUI-Light,Segoe UI" font-size="28.0" fill="#0432FF" transform="matrix(1.00, 0.00, -0.00, -1.00, 1810.6, 18.4)">a</text><text xml:space="preserve" font-family="SegoeUI-Light,Segoe UI" font-size="28.0" fill="#0432FF" transform="matrix(1.00, 0.00, -0.00, -1.00, 1824.5, 18.4)">n</text><text xml:space="preserve" font-family="SegoeUI-Light,Segoe UI" font-size="28.0" fill="#0432FF" transform="matrix(1.00, 0.00, -0.00, -1.00, 1839.5, 18.4)"> </text><text xml:space="preserve" font-family="SegoeUI-Light,Segoe UI" font-size="28.0" fill="#0432FF" transform="matrix(1.00, 0.00, -0.00, -1.00, 1847.1, 18.4)">D</text><text xml:space="preserve" font-family="SegoeUI-Light,Segoe UI" font-size="28.0" fill="#0432FF" transform="matrix(1.00, 0.00, -0.00, -1.00, 1866.0, 18.4)">a</text><text xml:space="preserve" font-family="SegoeUI-Light,Segoe UI" font-size="28.0" fill="#0432FF" transform="matrix(1.00, 0.00, -0.00, -1.00, 1879.8, 18.4)">v</text><text xml:space="preserve" font-family="SegoeUI-Light,Segoe UI" font-size="28.0" fill="#0432FF" transform="matrix(1.00, 0.00, -0.00, -1.00, 1892.5, 18.4)">e</text><text xml:space="preserve" font-family="SegoeUI-Light,Segoe UI" font-size="28.0" fill="#0432FF" transform="matrix(1.00, 0.00, -0.00, -1.00, 863.6, 18.4)">G</text><text xml:space="preserve" font-family="SegoeUI-Light,Segoe UI" font-size="28.0" fill="#0432FF" transform="matrix(1.00, 0.00, -0.00, -1.00, 882.3, 18.4)">a</text><text xml:space="preserve" font-family="SegoeUI-Light,Segoe UI" font-size="28.0" fill="#0432FF" transform="matrix(1.00, 0.00, -0.00, -1.00, 896.2, 18.4)">l</text><text xml:space="preserve" font-family="SegoeUI-Light,Segoe UI" font-size="28.0" fill="#0432FF" transform="matrix(1.00, 0.00, -0.00, -1.00, 901.9, 18.4)">i</text><text xml:space="preserve" font-family="SegoeUI-Light,Segoe UI" font-size="28.0" fill="#0432FF" transform="matrix(1.00, 0.00, -0.00, -1.00, 907.6, 18.4)">l</text><text xml:space="preserve" font-family="SegoeUI-Light,Segoe UI" font-size="28.0" fill="#0432FF" transform="matrix(1.00, 0.00, -0.00, -1.00, 913.4, 18.4)">e</text><text xml:space="preserve" font-family="SegoeUI-Light,Segoe UI" font-size="28.0" fill="#0432FF" transform="matrix(1.00, 0.00, -0.00, -1.00, 927.5, 18.4)">o</text><text xml:space="preserve" font-family="SegoeUI-Light,Segoe UI" font-size="28.0" fill="#0432FF" transform="matrix(1.00, 0.00, -0.00, -1.00, 943.2, 18.4)"> </text><text xml:space="preserve" font-family="SegoeUI-Light,Segoe UI" font-size="28.0" fill="#0432FF" transform="matrix(1.00, 0.00, -0.00, -1.00, 950.9, 18.4)">H</text><text xml:space="preserve" font-family="SegoeUI-Light,Segoe UI" font-size="28.0" fill="#0432FF" transform="matrix(1.00, 0.00, -0.00, -1.00, 969.8, 18.4)">e</text><text xml:space="preserve" font-family="SegoeUI-Light,Segoe UI" font-size="28.0" fill="#0432FF" transform="matrix(1.00, 0.00, -0.00, -1.00, 984.0, 18.4)">l</text><text xml:space="preserve" font-family="SegoeUI-Light,Segoe UI" font-size="28.0" fill="#0432FF" transform="matrix(1.00, 0.00, -0.00, -1.00, 989.7, 18.4)">p</text><text xml:space="preserve" font-family="SegoeUI-Light,Segoe UI" font-size="28.0" fill="#0432FF" transform="matrix(1.00, 0.00, -0.00, -1.00, 1005.4, 18.4)">l</text><text xml:space="preserve" font-family="SegoeUI-Light,Segoe UI" font-size="28.0" fill="#0432FF" transform="matrix(1.00, 0.00, -0.00, -1.00, 1011.1, 18.4)">i</text><text xml:space="preserve" font-family="SegoeUI-Light,Segoe UI" font-size="28.0" fill="#0432FF" transform="matrix(1.00, 0.00, -0.00, -1.00, 1016.9, 18.4)">n</text><text xml:space="preserve" font-family="SegoeUI-Light,Segoe UI" font-size="28.0" fill="#0432FF" transform="matrix(1.00, 0.00, -0.00, -1.00, 1031.9, 18.4)">e</text><g><clipPath id="clip0x7f8721429dd0"><path d="M 41.3 1030.4 L 162.6 1030.4 L 162.6 1064.4 L 41.3 1064.4 Z M 41.3 1030.4 "></path></clipPath><g clip-path="url(#clip0x7f8721429dd0)"><text xml:space="preserve" font-family="Helvetica-Light,Helvetica" font-size="20.0" fill="#0264C0" transform="matrix(1.00, 0.00, -0.00, -1.00, 52.5, 1040.0)">M</text><text xml:space="preserve" font-family="Helvetica-Light,Helvetica" font-size="20.0" fill="#0264C0" transform="matrix(1.00, 0.00, -0.00, -1.00, 69.2, 1040.0)">a</text><text xml:space="preserve" font-family="Helvetica-Light,Helvetica" font-size="20.0" fill="#0264C0" transform="matrix(1.00, 0.00, -0.00, -1.00, 80.3, 1040.0)">i</text><text xml:space="preserve" font-family="Helvetica-Light,Helvetica" font-size="20.0" fill="#0264C0" transform="matrix(1.00, 0.00, -0.00, -1.00, 84.7, 1040.0)">n</text><text xml:space="preserve" font-family="Helvetica-Light,Helvetica" font-size="20.0" fill="#0264C0" transform="matrix(1.00, 0.00, -0.00, -1.00, 95.9, 1040.0)"> </text><text xml:space="preserve" font-family="Helvetica-Light,Helvetica" font-size="20.0" fill="#0264C0" transform="matrix(1.00, 0.00, -0.00, -1.00, 101.4, 1040.0)">m</text><text xml:space="preserve" font-family="Helvetica-Light,Helvetica" font-size="20.0" fill="#0264C0" transform="matrix(1.00, 0.00, -0.00, -1.00, 118.1, 1040.0)">e</text><text xml:space="preserve" font-family="Helvetica-Light,Helvetica" font-size="20.0" fill="#0264C0" transform="matrix(1.00, 0.00, -0.00, -1.00, 129.2, 1040.0)">n</text><text xml:space="preserve" font-family="Helvetica-Light,Helvetica" font-size="20.0" fill="#0264C0" transform="matrix(1.00, 0.00, -0.00, -1.00, 140.3, 1040.0)">u</text></g></g><g><clipPath id="clip0x7f87217137d0"><path d="M 7.6 1028.1 L 46.7 1028.1 L 46.7 1068.0 L 7.6 1068.0 Z M 7.6 1028.1 "></path></clipPath><g clip-path="url(#clip0x7f87217137d0)"><path d="M 29.9 5.3 C 36.8 12.3 36.8 23.6 29.9 30.6 C 23.1 37.6 12.0 37.6 5.1 30.6 C -1.7 23.6 -1.7 12.3 5.1 5.3 C 12.0 -1.8 23.1 -1.8 29.9 5.3 Z M 29.9 5.3 " fill="none" stroke="#000000" stroke-width="2.00" transform="matrix(1.00, 0.00, 0.00, -1.00, 9.6, 1066.0)"></path></g></g><g><clipPath id="clip0x7f8721c40cc0"><path d="M 9.6 1030.1 L 44.7 1030.1 L 44.7 1066.0 L 9.6 1066.0 Z M 9.6 1030.1 "></path></clipPath><g clip-path="url(#clip0x7f8721c40cc0)"><text xml:space="preserve" font-family="Helvetica-Light,Helvetica" font-size="15.0" fill="#000000" transform="matrix(1.00, 0.00, -0.00, -1.00, 20.9, 1042.9)">M</text></g></g><g><clipPath id="clip0x7f8721c41fc0"><path d="M 201.3 1030.4 L 322.6 1030.4 L 322.6 1064.4 L 201.3 1064.4 Z M 201.3 1030.4 "></path></clipPath><g clip-path="url(#clip0x7f8721c41fc0)"><text xml:space="preserve" font-family="Helvetica-Light,Helvetica" font-size="20.0" fill="#0264C0" transform="matrix(1.00, 0.00, -0.00, -1.00, 219.0, 1040.0)">S</text><text xml:space="preserve" font-family="Helvetica-Light,Helvetica" font-size="20.0" fill="#0264C0" transform="matrix(1.00, 0.00, -0.00, -1.00, 231.2, 1040.0)">t</text><text xml:space="preserve" font-family="Helvetica-Light,Helvetica" font-size="20.0" fill="#0264C0" transform="matrix(1.00, 0.00, -0.00, -1.00, 236.8, 1040.0)">a</text><text xml:space="preserve" font-family="Helvetica-Light,Helvetica" font-size="20.0" fill="#0264C0" transform="matrix(1.00, 0.00, -0.00, -1.00, 247.9, 1040.0)">r</text><text xml:space="preserve" font-family="Helvetica-Light,Helvetica" font-size="20.0" fill="#0264C0" transform="matrix(1.00, 0.00, -0.00, -1.00, 254.9, 1040.0)">t</text><text xml:space="preserve" font-family="Helvetica-Light,Helvetica" font-size="20.0" fill="#0264C0" transform="matrix(1.00, 0.00, -0.00, -1.00, 260.5, 1040.0)"> </text><text xml:space="preserve" font-family="Helvetica-Light,Helvetica" font-size="20.0" fill="#0264C0" transform="matrix(1.00, 0.00, -0.00, -1.00, 266.0, 1040.0)">o</text><text xml:space="preserve" font-family="Helvetica-Light,Helvetica" font-size="20.0" fill="#0264C0" transform="matrix(1.00, 0.00, -0.00, -1.00, 277.1, 1040.0)">v</text><text xml:space="preserve" font-family="Helvetica-Light,Helvetica" font-size="20.0" fill="#0264C0" transform="matrix(1.00, 0.00, -0.00, -1.00, 287.1, 1040.0)">e</text><text xml:space="preserve" font-family="Helvetica-Light,Helvetica" font-size="20.0" fill="#0264C0" transform="matrix(1.00, 0.00, -0.00, -1.00, 298.3, 1040.0)">r</text></g></g><g><clipPath id="clip0x7f8721d6f570"><path d="M 173.3 1028.1 L 212.3 1028.1 L 212.3 1068.0 L 173.3 1068.0 Z M 173.3 1028.1 "></path></clipPath><g clip-path="url(#clip0x7f8721d6f570)"><path d="M 29.9 5.3 C 36.8 12.3 36.8 23.6 29.9 30.6 C 23.1 37.6 12.0 37.6 5.1 30.6 C -1.7 23.6 -1.7 12.3 5.1 5.3 C 12.0 -1.8 23.1 -1.8 29.9 5.3 Z M 29.9 5.3 " fill="none" stroke="#000000" stroke-width="2.00" transform="matrix(1.00, 0.00, 0.00, -1.00, 175.3, 1066.0)"></path></g></g><g><clipPath id="clip0x7f8721a954f0"><path d="M 175.3 1030.1 L 210.3 1030.1 L 210.3 1066.0 L 175.3 1066.0 Z M 175.3 1030.1 "></path></clipPath><g clip-path="url(#clip0x7f8721a954f0)"><text xml:space="preserve" font-family="Helvetica-Light,Helvetica" font-size="15.0" fill="#000000" transform="matrix(1.00, 0.00, -0.00, -1.00, 188.2, 1042.2)">S</text></g></g></g></svg>