<?xml version="1.0" encoding="UTF-8" standalone="no"?><svg xmlns="http://www.w3.org/2000/svg" xmlns:xlink="http://www.w3.org/1999/xlink" clip-rule="evenodd" stroke-miterlimit="10" viewBox="0 0 156 40"><desc>SVG generated by Keynote</desc><defs></defs><g transform="matrix(1.00, 0.00, -0.00, -1.00, 0.0, 40.0)"><g><clipPath id="clip0x7f8721b0b820"><path d="M 34.3 2.4 L 155.6 2.4 L 155.6 36.4 L 34.3 36.4 Z M 34.3 2.4 "></path></clipPath><g clip-path="url(#clip0x7f8721b0b820)"><text xml:space="preserve" font-family="Helvetica-Light,Helvetica" font-size="20.0" fill="#0264C0" transform="matrix(1.00, 0.00, -0.00, -1.00, 45.5, 12.0)">M</text><text xml:space="preserve" font-family="Helvetica-Light,Helvetica" font-size="20.0" fill="#0264C0" transform="matrix(1.00, 0.00, -0.00, -1.00, 62.2, 12.0)">a</text><text xml:space="preserve" font-family="Helvetica-Light,Helvetica" font-size="20.0" fill="#0264C0" transform="matrix(1.00, 0.00, -0.00, -1.00, 73.3, 12.0)">i</text><text xml:space="preserve" font-family="Helvetica-Light,Helvetica" font-size="20.0" fill="#0264C0" transform="matrix(1.00, 0.00, -0.00, -1.00, 77.7, 12.0)">n</text><text xml:space="preserve" font-family="Helvetica-Light,Helvetica" font-size="20.0" fill="#0264C0" transform="matrix(1.00, 0.00, -0.00, -1.00, 88.9, 12.0)"> </text><text xml:space="preserve" font-family="Helvetica-Light,Helvetica" font-size="20.0" fill="#0264C0" transform="matrix(1.00, 0.00, -0.00, -1.00, 94.4, 12.0)">m</text><text xml:space="preserve" font-family="Helvetica-Light,Helvetica" font-size="20.0" fill="#0264C0" transform="matrix(1.00, 0.00, -0.00, -1.00, 111.1, 12.0)">e</text><text xml:space="preserve" font-family="Helvetica-Light,Helvetica" font-size="20.0" fill="#0264C0" transform="matrix(1.00, 0.00, -0.00, -1.00, 122.2, 12.0)">n</text><text xml:space="preserve" font-family="Helvetica-Light,Helvetica" font-size="20.0" fill="#0264C0" transform="matrix(1.00, 0.00, -0.00, -1.00, 133.3, 12.0)">u</text></g></g><g><clipPath id="clip0x7f8721ada790"><path d="M 0.6 0.1 L 39.7 0.1 L 39.7 40.0 L 0.6 40.0 Z M 0.6 0.1 "></path></clipPath><g clip-path="url(#clip0x7f8721ada790)"><path d="M 29.9 5.3 C 36.8 12.3 36.8 23.6 29.9 30.6 C 23.1 37.6 12.0 37.6 5.1 30.6 C -1.7 23.6 -1.7 12.3 5.1 5.3 C 12.0 -1.8 23.1 -1.8 29.9 5.3 Z M 29.9 5.3 " fill="none" stroke="#000000" stroke-width="2.00" transform="matrix(1.00, 0.00, 0.00, -1.00, 2.6, 38.0)"></path></g></g><g><clipPath id="clip0x7f8721adbe60"><path d="M 2.6 2.1 L 37.7 2.1 L 37.7 38.0 L 2.6 38.0 Z M 2.6 2.1 "></path></clipPath><g clip-path="url(#clip0x7f8721adbe60)"><text xml:space="preserve" font-family="Helvetica-Light,Helvetica" font-size="15.0" fill="#000000" transform="matrix(1.00, 0.00, -0.00, -1.00, 13.9, 14.9)">M</text></g></g></g></svg>