<?xml version="1.0" encoding="UTF-8" standalone="no"?><svg xmlns="http://www.w3.org/2000/svg" xmlns:xlink="http://www.w3.org/1999/xlink" clip-rule="evenodd" stroke-miterlimit="10" viewBox="0 0 615 85"><desc>SVG generated by Keynote</desc><defs></defs><g transform="matrix(1.00, 0.00, -0.00, -1.00, 0.0, 85.0)"><text xml:space="preserve" font-family="SegoeUI-Light,Segoe UI" font-size="35.0" fill="#000000" transform="matrix(1.00, 0.00, -0.00, -1.00, 0.9, 57.6)">T</text><text xml:space="preserve" font-family="SegoeUI-Light,Segoe UI" font-size="35.0" fill="#000000" transform="matrix(1.00, 0.00, -0.00, -1.00, 18.8, 57.6)">h</text><text xml:space="preserve" font-family="SegoeUI-Light,Segoe UI" font-size="35.0" fill="#000000" transform="matrix(1.00, 0.00, -0.00, -1.00, 37.5, 57.6)">i</text><text xml:space="preserve" font-family="SegoeUI-Light,Segoe UI" font-size="35.0" fill="#000000" transform="matrix(1.00, 0.00, -0.00, -1.00, 44.7, 57.6)">s</text><text xml:space="preserve" font-family="SegoeUI-Light,Segoe UI" font-size="35.0" fill="#000000" transform="matrix(1.00, 0.00, -0.00, -1.00, 58.3, 57.6)"> </text><text xml:space="preserve" font-family="SegoeUI-Light,Segoe UI" font-size="35.0" fill="#000000" transform="matrix(1.00, 0.00, -0.00, -1.00, 67.9, 57.6)">i</text><text xml:space="preserve" font-family="SegoeUI-Light,Segoe UI" font-size="35.0" fill="#000000" transform="matrix(1.00, 0.00, -0.00, -1.00, 75.1, 57.6)">n</text><text xml:space="preserve" font-family="SegoeUI-Light,Segoe UI" font-size="35.0" fill="#000000" transform="matrix(1.00, 0.00, -0.00, -1.00, 93.8, 57.6)">t</text><text xml:space="preserve" font-family="SegoeUI-Light,Segoe UI" font-size="35.0" fill="#000000" transform="matrix(1.00, 0.00, -0.00, -1.00, 104.2, 57.6)">e</text><text xml:space="preserve" font-family="SegoeUI-Light,Segoe UI" font-size="35.0" fill="#000000" transform="matrix(1.00, 0.00, -0.00, -1.00, 121.8, 57.6)">r</text><text xml:space="preserve" font-family="SegoeUI-Light,Segoe UI" font-size="35.0" fill="#000000" transform="matrix(1.00, 0.00, -0.00, -1.00, 133.4, 57.6)">a</text><text xml:space="preserve" font-family="SegoeUI-Light,Segoe UI" font-size="35.0" fill="#000000" transform="matrix(1.00, 0.00, -0.00, -1.00, 150.7, 57.6)">c</text><text xml:space="preserve" font-family="SegoeUI-Light,Segoe UI" font-size="35.0" fill="#000000" transform="matrix(1.00, 0.00, -0.00, -1.00, 166.2, 57.6)">t</text><text xml:space="preserve" font-family="SegoeUI-Light,Segoe UI" font-size="35.0" fill="#000000" transform="matrix(1.00, 0.00, -0.00, -1.00, 176.6, 57.6)">i</text><text xml:space="preserve" font-family="SegoeUI-Light,Segoe UI" font-size="35.0" fill="#000000" transform="matrix(1.00, 0.00, -0.00, -1.00, 183.8, 57.6)">v</text><text xml:space="preserve" font-family="SegoeUI-Light,Segoe UI" font-size="35.0" fill="#000000" transform="matrix(1.00, 0.00, -0.00, -1.00, 199.7, 57.6)">e</text><text xml:space="preserve" font-family="SegoeUI-Light,Segoe UI" font-size="35.0" fill="#000000" transform="matrix(1.00, 0.00, -0.00, -1.00, 217.3, 57.6)"> </text><text xml:space="preserve" font-family="SegoeUI-Light,Segoe UI" font-size="35.0" fill="#000000" transform="matrix(1.00, 0.00, -0.00, -1.00, 226.9, 57.6)">i</text><text xml:space="preserve" font-family="SegoeUI-Light,Segoe UI" font-size="35.0" fill="#000000" transform="matrix(1.00, 0.00, -0.00, -1.00, 234.1, 57.6)">s</text><text xml:space="preserve" font-family="SegoeUI-Light,Segoe UI" font-size="35.0" fill="#000000" transform="matrix(1.00, 0.00, -0.00, -1.00, 247.7, 57.6)"> </text><text xml:space="preserve" font-family="SegoeUI-Light,Segoe UI" font-size="35.0" fill="#000000" transform="matrix(1.00, 0.00, -0.00, -1.00, 257.3, 57.6)">c</text><text xml:space="preserve" font-family="SegoeUI-Light,Segoe UI" font-size="35.0" fill="#000000" transform="matrix(1.00, 0.00, -0.00, -1.00, 272.8, 57.6)">r</text><text xml:space="preserve" font-family="SegoeUI-Light,Segoe UI" font-size="35.0" fill="#000000" transform="matrix(1.00, 0.00, -0.00, -1.00, 283.7, 57.6)">e</text><text xml:space="preserve" font-family="SegoeUI-Light,Segoe UI" font-size="35.0" fill="#000000" transform="matrix(1.00, 0.00, -0.00, -1.00, 301.3, 57.6)">a</text><text xml:space="preserve" font-family="SegoeUI-Light,Segoe UI" font-size="35.0" fill="#000000" transform="matrix(1.00, 0.00, -0.00, -1.00, 318.6, 57.6)">t</text><text xml:space="preserve" font-family="SegoeUI-Light,Segoe UI" font-size="35.0" fill="#000000" transform="matrix(1.00, 0.00, -0.00, -1.00, 329.0, 57.6)">e</text><text xml:space="preserve" font-family="SegoeUI-Light,Segoe UI" font-size="35.0" fill="#000000" transform="matrix(1.00, 0.00, -0.00, -1.00, 346.7, 57.6)">d</text><text xml:space="preserve" font-family="SegoeUI-Light,Segoe UI" font-size="35.0" fill="#000000" transform="matrix(1.00, 0.00, -0.00, -1.00, 366.3, 57.6)"> </text><text xml:space="preserve" font-family="SegoeUI-Light,Segoe UI" font-size="35.0" fill="#000000" transform="matrix(1.00, 0.00, -0.00, -1.00, 375.9, 57.6)">b</text><text xml:space="preserve" font-family="SegoeUI-Light,Segoe UI" font-size="35.0" fill="#000000" transform="matrix(1.00, 0.00, -0.00, -1.00, 395.5, 57.6)">y</text><text xml:space="preserve" font-family="SegoeUI-Light,Segoe UI" font-size="35.0" fill="#000000" transform="matrix(1.00, 0.00, -0.00, -1.00, 411.3, 57.6)"> </text><text xml:space="preserve" font-family="SegoeUI-Light,Segoe UI" font-size="35.0" fill="#000000" transform="matrix(1.00, 0.00, -0.00, -1.00, 420.9, 57.6)">N</text><text xml:space="preserve" font-family="SegoeUI-Light,Segoe UI" font-size="35.0" fill="#000000" transform="matrix(1.00, 0.00, -0.00, -1.00, 445.7, 57.6)">i</text><text xml:space="preserve" font-family="SegoeUI-Light,Segoe UI" font-size="35.0" fill="#000000" transform="matrix(1.00, 0.00, -0.00, -1.00, 452.9, 57.6)">r</text><text xml:space="preserve" font-family="SegoeUI-Light,Segoe UI" font-size="35.0" fill="#000000" transform="matrix(1.00, 0.00, -0.00, -1.00, 464.4, 57.6)">m</text><text xml:space="preserve" font-family="SegoeUI-Light,Segoe UI" font-size="35.0" fill="#000000" transform="matrix(1.00, 0.00, -0.00, -1.00, 493.1, 57.6)">a</text><text xml:space="preserve" font-family="SegoeUI-Light,Segoe UI" font-size="35.0" fill="#000000" transform="matrix(1.00, 0.00, -0.00, -1.00, 510.4, 57.6)">n</text><text xml:space="preserve" font-family="SegoeUI-Light,Segoe UI" font-size="35.0" fill="#000000" transform="matrix(1.00, 0.00, -0.00, -1.00, 529.2, 57.6)"> </text><text xml:space="preserve" font-family="SegoeUI-Light,Segoe UI" font-size="35.0" fill="#000000" transform="matrix(1.00, 0.00, -0.00, -1.00, 538.7, 57.6)">D</text><text xml:space="preserve" font-family="SegoeUI-Light,Segoe UI" font-size="35.0" fill="#000000" transform="matrix(1.00, 0.00, -0.00, -1.00, 562.3, 57.6)">a</text><text xml:space="preserve" font-family="SegoeUI-Light,Segoe UI" font-size="35.0" fill="#000000" transform="matrix(1.00, 0.00, -0.00, -1.00, 579.6, 57.6)">v</text><text xml:space="preserve" font-family="SegoeUI-Light,Segoe UI" font-size="35.0" fill="#000000" transform="matrix(1.00, 0.00, -0.00, -1.00, 595.5, 57.6)">e</text><text xml:space="preserve" font-family="SegoeUI-Light,Segoe UI" font-size="35.0" fill="#000000" transform="matrix(1.00, 0.00, -0.00, -1.00, 613.1, 57.6)"> </text><text xml:space="preserve" font-family="SegoeUI-Light,Segoe UI" font-size="35.0" fill="#000000" transform="matrix(1.00, 0.00, -0.00, -1.00, 31.3, 10.6)">A</text><text xml:space="preserve" font-family="SegoeUI-Light,Segoe UI" font-size="35.0" fill="#000000" transform="matrix(1.00, 0.00, -0.00, -1.00, 53.3, 10.6)">n</text><text xml:space="preserve" font-family="SegoeUI-Light,Segoe UI" font-size="35.0" fill="#000000" transform="matrix(1.00, 0.00, -0.00, -1.00, 72.1, 10.6)"> </text><text xml:space="preserve" font-family="SegoeUI-Light,Segoe UI" font-size="35.0" fill="#000000" transform="matrix(1.00, 0.00, -0.00, -1.00, 81.7, 10.6)">i</text><text xml:space="preserve" font-family="SegoeUI-Light,Segoe UI" font-size="35.0" fill="#000000" transform="matrix(1.00, 0.00, -0.00, -1.00, 88.8, 10.6)">n</text><text xml:space="preserve" font-family="SegoeUI-Light,Segoe UI" font-size="35.0" fill="#000000" transform="matrix(1.00, 0.00, -0.00, -1.00, 107.6, 10.6)">i</text><text xml:space="preserve" font-family="SegoeUI-Light,Segoe UI" font-size="35.0" fill="#000000" transform="matrix(1.00, 0.00, -0.00, -1.00, 114.8, 10.6)">t</text><text xml:space="preserve" font-family="SegoeUI-Light,Segoe UI" font-size="35.0" fill="#000000" transform="matrix(1.00, 0.00, -0.00, -1.00, 125.1, 10.6)">i</text><text xml:space="preserve" font-family="SegoeUI-Light,Segoe UI" font-size="35.0" fill="#000000" transform="matrix(1.00, 0.00, -0.00, -1.00, 132.3, 10.6)">a</text><text xml:space="preserve" font-family="SegoeUI-Light,Segoe UI" font-size="35.0" fill="#000000" transform="matrix(1.00, 0.00, -0.00, -1.00, 149.6, 10.6)">t</text><text xml:space="preserve" font-family="SegoeUI-Light,Segoe UI" font-size="35.0" fill="#000000" transform="matrix(1.00, 0.00, -0.00, -1.00, 160.0, 10.6)">i</text><text xml:space="preserve" font-family="SegoeUI-Light,Segoe UI" font-size="35.0" fill="#000000" transform="matrix(1.00, 0.00, -0.00, -1.00, 167.2, 10.6)">v</text><text xml:space="preserve" font-family="SegoeUI-Light,Segoe UI" font-size="35.0" fill="#000000" transform="matrix(1.00, 0.00, -0.00, -1.00, 183.1, 10.6)">e</text><text xml:space="preserve" font-family="SegoeUI-Light,Segoe UI" font-size="35.0" fill="#000000" transform="matrix(1.00, 0.00, -0.00, -1.00, 200.7, 10.6)"> </text><text xml:space="preserve" font-family="SegoeUI-Light,Segoe UI" font-size="35.0" fill="#000000" transform="matrix(1.00, 0.00, -0.00, -1.00, 210.3, 10.6)">b</text><text xml:space="preserve" font-family="SegoeUI-Light,Segoe UI" font-size="35.0" fill="#000000" transform="matrix(1.00, 0.00, -0.00, -1.00, 229.9, 10.6)">y</text><text xml:space="preserve" font-family="SegoeUI-Light,Segoe UI" font-size="35.0" fill="#000000" transform="matrix(1.00, 0.00, -0.00, -1.00, 245.8, 10.6)"> </text><text xml:space="preserve" font-family="SegoeUI-Light,Segoe UI" font-size="35.0" fill="#000000" transform="matrix(1.00, 0.00, -0.00, -1.00, 255.4, 10.6)">I</text><text xml:space="preserve" font-family="SegoeUI-Light,Segoe UI" font-size="35.0" fill="#000000" transform="matrix(1.00, 0.00, -0.00, -1.00, 263.3, 10.6)">n</text><text xml:space="preserve" font-family="SegoeUI-Light,Segoe UI" font-size="35.0" fill="#000000" transform="matrix(1.00, 0.00, -0.00, -1.00, 282.1, 10.6)">t</text><text xml:space="preserve" font-family="SegoeUI-Light,Segoe UI" font-size="35.0" fill="#000000" transform="matrix(1.00, 0.00, -0.00, -1.00, 292.5, 10.6)">e</text><text xml:space="preserve" font-family="SegoeUI-Light,Segoe UI" font-size="35.0" fill="#000000" transform="matrix(1.00, 0.00, -0.00, -1.00, 310.1, 10.6)">l</text><text xml:space="preserve" font-family="SegoeUI-Light,Segoe UI" font-size="35.0" fill="#000000" transform="matrix(1.00, 0.00, -0.00, -1.00, 317.3, 10.6)">®</text><text xml:space="preserve" font-family="SegoeUI-Light,Segoe UI" font-size="35.0" fill="#000000" transform="matrix(1.00, 0.00, -0.00, -1.00, 348.1, 10.6)"> </text><text xml:space="preserve" font-family="SegoeUI-Light,Segoe UI" font-size="35.0" fill="#000000" transform="matrix(1.00, 0.00, -0.00, -1.00, 357.7, 10.6)">E</text><text xml:space="preserve" font-family="SegoeUI-Light,Segoe UI" font-size="35.0" fill="#000000" transform="matrix(1.00, 0.00, -0.00, -1.00, 375.2, 10.6)">d</text><text xml:space="preserve" font-family="SegoeUI-Light,Segoe UI" font-size="35.0" fill="#000000" transform="matrix(1.00, 0.00, -0.00, -1.00, 394.8, 10.6)">u</text><text xml:space="preserve" font-family="SegoeUI-Light,Segoe UI" font-size="35.0" fill="#000000" transform="matrix(1.00, 0.00, -0.00, -1.00, 413.5, 10.6)">c</text><text xml:space="preserve" font-family="SegoeUI-Light,Segoe UI" font-size="35.0" fill="#000000" transform="matrix(1.00, 0.00, -0.00, -1.00, 429.1, 10.6)">a</text><text xml:space="preserve" font-family="SegoeUI-Light,Segoe UI" font-size="35.0" fill="#000000" transform="matrix(1.00, 0.00, -0.00, -1.00, 446.4, 10.6)">t</text><text xml:space="preserve" font-family="SegoeUI-Light,Segoe UI" font-size="35.0" fill="#000000" transform="matrix(1.00, 0.00, -0.00, -1.00, 456.8, 10.6)">i</text><text xml:space="preserve" font-family="SegoeUI-Light,Segoe UI" font-size="35.0" fill="#000000" transform="matrix(1.00, 0.00, -0.00, -1.00, 463.9, 10.6)">o</text><text xml:space="preserve" font-family="SegoeUI-Light,Segoe UI" font-size="35.0" fill="#000000" transform="matrix(1.00, 0.00, -0.00, -1.00, 483.6, 10.6)">n</text><text xml:space="preserve" font-family="SegoeUI-Light,Segoe UI" font-size="35.0" fill="#000000" transform="matrix(1.00, 0.00, -0.00, -1.00, 502.3, 10.6)"> </text><text xml:space="preserve" font-family="SegoeUI-Light,Segoe UI" font-size="35.0" fill="#000000" transform="matrix(1.00, 0.00, -0.00, -1.00, 511.9, 10.6)">I</text><text xml:space="preserve" font-family="SegoeUI-Light,Segoe UI" font-size="35.0" fill="#000000" transform="matrix(1.00, 0.00, -0.00, -1.00, 519.9, 10.6)">n</text><text xml:space="preserve" font-family="SegoeUI-Light,Segoe UI" font-size="35.0" fill="#000000" transform="matrix(1.00, 0.00, -0.00, -1.00, 538.6, 10.6)">d</text><text xml:space="preserve" font-family="SegoeUI-Light,Segoe UI" font-size="35.0" fill="#000000" transform="matrix(1.00, 0.00, -0.00, -1.00, 558.2, 10.6)">i</text><text xml:space="preserve" font-family="SegoeUI-Light,Segoe UI" font-size="35.0" fill="#000000" transform="matrix(1.00, 0.00, -0.00, -1.00, 565.4, 10.6)">a</text></g></svg>