<?xml version="1.0" encoding="UTF-8" standalone="no"?><svg xmlns="http://www.w3.org/2000/svg" xmlns:xlink="http://www.w3.org/1999/xlink" clip-rule="evenodd" stroke-miterlimit="10" viewBox="0 0 1038 200"><desc>SVG generated by Keynote</desc><defs></defs><g transform="matrix(1.00, 0.00, -0.00, -1.00, 0.0, 200.0)"><text xml:space="preserve" font-family="SegoeUI-Light,Segoe UI" font-size="200.0" fill="#000000" transform="matrix(1.00, 0.00, -0.00, -1.00, -15.3, 48.8)">M</text><text xml:space="preserve" font-family="SegoeUI-Light,Segoe UI" font-size="200.0" fill="#000000" transform="matrix(1.00, 0.00, -0.00, -1.00, 151.3, 48.8)">a</text><text xml:space="preserve" font-family="SegoeUI-Light,Segoe UI" font-size="200.0" fill="#000000" transform="matrix(1.00, 0.00, -0.00, -1.00, 250.1, 48.8)">k</text><text xml:space="preserve" font-family="SegoeUI-Light,Segoe UI" font-size="200.0" fill="#000000" transform="matrix(1.00, 0.00, -0.00, -1.00, 338.9, 48.8)">e</text><text xml:space="preserve" font-family="SegoeUI-Light,Segoe UI" font-size="200.0" fill="#000000" transform="matrix(1.00, 0.00, -0.00, -1.00, 439.8, 48.8)"> </text><text xml:space="preserve" font-family="SegoeUI-Light,Segoe UI" font-size="200.0" fill="#000000" transform="matrix(1.00, 0.00, -0.00, -1.00, 494.6, 48.8)">i</text><text xml:space="preserve" font-family="SegoeUI-Light,Segoe UI" font-size="200.0" fill="#000000" transform="matrix(1.00, 0.00, -0.00, -1.00, 535.6, 48.8)">n</text><text xml:space="preserve" font-family="SegoeUI-Light,Segoe UI" font-size="200.0" fill="#000000" transform="matrix(1.00, 0.00, -0.00, -1.00, 642.7, 48.8)">f</text><text xml:space="preserve" font-family="SegoeUI-Light,Segoe UI" font-size="200.0" fill="#000000" transform="matrix(1.00, 0.00, -0.00, -1.00, 697.8, 48.8)">i</text><text xml:space="preserve" font-family="SegoeUI-Light,Segoe UI" font-size="200.0" fill="#000000" transform="matrix(1.00, 0.00, -0.00, -1.00, 738.9, 48.8)">n</text><text xml:space="preserve" font-family="SegoeUI-Light,Segoe UI" font-size="200.0" fill="#000000" transform="matrix(1.00, 0.00, -0.00, -1.00, 846.0, 48.8)">i</text><text xml:space="preserve" font-family="SegoeUI-Light,Segoe UI" font-size="200.0" fill="#000000" transform="matrix(1.00, 0.00, -0.00, -1.00, 887.0, 48.8)">t</text><text xml:space="preserve" font-family="SegoeUI-Light,Segoe UI" font-size="200.0" fill="#000000" transform="matrix(1.00, 0.00, -0.00, -1.00, 946.3, 48.8)">y</text></g></svg>