<?xml version="1.0" encoding="UTF-8" standalone="no"?><svg xmlns="http://www.w3.org/2000/svg" xmlns:xlink="http://www.w3.org/1999/xlink" clip-rule="evenodd" stroke-miterlimit="10" viewBox="0 0 150 40"><desc>SVG generated by Keynote</desc><defs></defs><g transform="matrix(1.00, 0.00, -0.00, -1.00, 0.0, 40.0)"><g><clipPath id="clip0x7f8721b0fa50"><path d="M 28.3 2.4 L 149.6 2.4 L 149.6 36.4 L 28.3 36.4 Z M 28.3 2.4 "></path></clipPath><g clip-path="url(#clip0x7f8721b0fa50)"><text xml:space="preserve" font-family="Helvetica-Light,Helvetica" font-size="20.0" fill="#0264C0" transform="matrix(1.00, 0.00, -0.00, -1.00, 46.0, 12.0)">S</text><text xml:space="preserve" font-family="Helvetica-Light,Helvetica" font-size="20.0" fill="#0264C0" transform="matrix(1.00, 0.00, -0.00, -1.00, 58.2, 12.0)">t</text><text xml:space="preserve" font-family="Helvetica-Light,Helvetica" font-size="20.0" fill="#0264C0" transform="matrix(1.00, 0.00, -0.00, -1.00, 63.8, 12.0)">a</text><text xml:space="preserve" font-family="Helvetica-Light,Helvetica" font-size="20.0" fill="#0264C0" transform="matrix(1.00, 0.00, -0.00, -1.00, 74.9, 12.0)">r</text><text xml:space="preserve" font-family="Helvetica-Light,Helvetica" font-size="20.0" fill="#0264C0" transform="matrix(1.00, 0.00, -0.00, -1.00, 81.9, 12.0)">t</text><text xml:space="preserve" font-family="Helvetica-Light,Helvetica" font-size="20.0" fill="#0264C0" transform="matrix(1.00, 0.00, -0.00, -1.00, 87.5, 12.0)"> </text><text xml:space="preserve" font-family="Helvetica-Light,Helvetica" font-size="20.0" fill="#0264C0" transform="matrix(1.00, 0.00, -0.00, -1.00, 93.0, 12.0)">o</text><text xml:space="preserve" font-family="Helvetica-Light,Helvetica" font-size="20.0" fill="#0264C0" transform="matrix(1.00, 0.00, -0.00, -1.00, 104.1, 12.0)">v</text><text xml:space="preserve" font-family="Helvetica-Light,Helvetica" font-size="20.0" fill="#0264C0" transform="matrix(1.00, 0.00, -0.00, -1.00, 114.1, 12.0)">e</text><text xml:space="preserve" font-family="Helvetica-Light,Helvetica" font-size="20.0" fill="#0264C0" transform="matrix(1.00, 0.00, -0.00, -1.00, 125.3, 12.0)">r</text></g></g><g><clipPath id="clip0x7f8721c17960"><path d="M 0.3 0.1 L 39.3 0.1 L 39.3 40.0 L 0.3 40.0 Z M 0.3 0.1 "></path></clipPath><g clip-path="url(#clip0x7f8721c17960)"><path d="M 29.9 5.3 C 36.8 12.3 36.8 23.6 29.9 30.6 C 23.1 37.6 12.0 37.6 5.1 30.6 C -1.7 23.6 -1.7 12.3 5.1 5.3 C 12.0 -1.8 23.1 -1.8 29.9 5.3 Z M 29.9 5.3 " fill="none" stroke="#000000" stroke-width="2.00" transform="matrix(1.00, 0.00, 0.00, -1.00, 2.3, 38.0)"></path></g></g><g><clipPath id="clip0x7f8721d360c0"><path d="M 2.3 2.1 L 37.3 2.1 L 37.3 38.0 L 2.3 38.0 Z M 2.3 2.1 "></path></clipPath><g clip-path="url(#clip0x7f8721d360c0)"><text xml:space="preserve" font-family="Helvetica-Light,Helvetica" font-size="15.0" fill="#000000" transform="matrix(1.00, 0.00, -0.00, -1.00, 15.2, 14.2)">S</text></g></g></g></svg>