<?xml version="1.0" encoding="UTF-8" standalone="no"?><svg xmlns="http://www.w3.org/2000/svg" xmlns:xlink="http://www.w3.org/1999/xlink" clip-rule="evenodd" stroke-miterlimit="10" viewBox="0 0 800 157"><desc>SVG generated by Keynote</desc><defs></defs><g transform="matrix(1.00, 0.00, -0.00, -1.00, 0.0, 157.0)"><g><clipPath id="clip0x7f87304810c0"><path d="M 48.0 24.9 L 799.4 24.9 L 799.4 132.9 L 48.0 132.9 Z M 48.0 24.9 "></path></clipPath><g clip-path="url(#clip0x7f87304810c0)"><image xlink:href="../../76EA4090-F291-457B-B962-4B2F171C1F14/assets/7CAFB60F03D52FB2DF531DADAD215553.png" width="749.00" height="106.00" transform="matrix(1.00, 0.00, -0.00, -1.00, 49.0, 131.9)" opacity="0.50"></image><path d="M 52.0 45.9 L 52.0 115.9 C 52.0 124.2 58.7 131.0 67.0 131.0 L 780.4 131.0 C 788.7 131.0 795.0 124.2 795.0 115.9 L 795.0 45.9 C 795.0 37.6 788.7 31.0 780.4 31.0 L 67.0 31.0 C 58.7 31.0 52.0 37.6 52.0 45.9 Z M 52.0 45.9 " fill="#FFCB2E"></path></g></g><g><clipPath id="clip0x7f8757d76220"><path d="M 48.0 30.9 L 799.4 30.9 L 799.4 130.9 L 48.0 130.9 Z M 48.0 30.9 "></path></clipPath><g clip-path="url(#clip0x7f8757d76220)"><text xml:space="preserve" font-family="Helvetica-Bold,Helvetica" font-weight="bold" font-size="32.0" fill="#000000" transform="matrix(1.00, 0.00, -0.00, -1.00, 283.2, 68.9)">T</text><text xml:space="preserve" font-family="Helvetica-Bold,Helvetica" font-weight="bold" font-size="32.0" fill="#000000" transform="matrix(1.00, 0.00, -0.00, -1.00, 302.8, 68.9)">h</text><text xml:space="preserve" font-family="Helvetica-Bold,Helvetica" font-weight="bold" font-size="32.0" fill="#000000" transform="matrix(1.00, 0.00, -0.00, -1.00, 322.3, 68.9)">i</text><text xml:space="preserve" font-family="Helvetica-Bold,Helvetica" font-weight="bold" font-size="32.0" fill="#000000" transform="matrix(1.00, 0.00, -0.00, -1.00, 331.2, 68.9)">n</text><text xml:space="preserve" font-family="Helvetica-Bold,Helvetica" font-weight="bold" font-size="32.0" fill="#000000" transform="matrix(1.00, 0.00, -0.00, -1.00, 350.7, 68.9)">g</text><text xml:space="preserve" font-family="Helvetica-Bold,Helvetica" font-weight="bold" font-size="32.0" fill="#000000" transform="matrix(1.00, 0.00, -0.00, -1.00, 370.3, 68.9)">s</text><text xml:space="preserve" font-family="Helvetica-Bold,Helvetica" font-weight="bold" font-size="32.0" fill="#000000" transform="matrix(1.00, 0.00, -0.00, -1.00, 388.1, 68.9)"> </text><text xml:space="preserve" font-family="Helvetica-Bold,Helvetica" font-weight="bold" font-size="32.0" fill="#000000" transform="matrix(1.00, 0.00, -0.00, -1.00, 396.9, 68.9)">y</text><text xml:space="preserve" font-family="Helvetica-Bold,Helvetica" font-weight="bold" font-size="32.0" fill="#000000" transform="matrix(1.00, 0.00, -0.00, -1.00, 414.7, 68.9)">o</text><text xml:space="preserve" font-family="Helvetica-Bold,Helvetica" font-weight="bold" font-size="32.0" fill="#000000" transform="matrix(1.00, 0.00, -0.00, -1.00, 434.3, 68.9)">u</text><text xml:space="preserve" font-family="Helvetica-Bold,Helvetica" font-weight="bold" font-size="32.0" fill="#000000" transform="matrix(1.00, 0.00, -0.00, -1.00, 453.8, 68.9)">’</text><text xml:space="preserve" font-family="Helvetica-Bold,Helvetica" font-weight="bold" font-size="32.0" fill="#000000" transform="matrix(1.00, 0.00, -0.00, -1.00, 462.7, 68.9)">l</text><text xml:space="preserve" font-family="Helvetica-Bold,Helvetica" font-weight="bold" font-size="32.0" fill="#000000" transform="matrix(1.00, 0.00, -0.00, -1.00, 471.6, 68.9)">l</text><text xml:space="preserve" font-family="Helvetica-Bold,Helvetica" font-weight="bold" font-size="32.0" fill="#000000" transform="matrix(1.00, 0.00, -0.00, -1.00, 480.5, 68.9)"> </text><text xml:space="preserve" font-family="Helvetica-Bold,Helvetica" font-weight="bold" font-size="32.0" fill="#000000" transform="matrix(1.00, 0.00, -0.00, -1.00, 489.4, 68.9)">n</text><text xml:space="preserve" font-family="Helvetica-Bold,Helvetica" font-weight="bold" font-size="32.0" fill="#000000" transform="matrix(1.00, 0.00, -0.00, -1.00, 508.9, 68.9)">e</text><text xml:space="preserve" font-family="Helvetica-Bold,Helvetica" font-weight="bold" font-size="32.0" fill="#000000" transform="matrix(1.00, 0.00, -0.00, -1.00, 526.7, 68.9)">e</text><text xml:space="preserve" font-family="Helvetica-Bold,Helvetica" font-weight="bold" font-size="32.0" fill="#000000" transform="matrix(1.00, 0.00, -0.00, -1.00, 544.5, 68.9)">d</text></g></g><g><clipPath id="clip0x7f872ffa98e0"><path d="M 0.6 0.8 L 154.7 0.8 L 154.7 156.9 L 0.6 156.9 Z M 0.6 0.8 "></path></clipPath><g clip-path="url(#clip0x7f872ffa98e0)"><image xlink:href="../../76EA4090-F291-457B-B962-4B2F171C1F14/assets/8F10CB0D277D93E7E519F15C02DB93F5.png" width="152.00" height="154.00" transform="matrix(1.00, 0.00, -0.00, -1.00, 1.6, 155.9)" opacity="0.50"></image><path d="M 129.3 133.2 C 157.8 104.3 157.8 57.4 129.3 28.5 C 100.8 -0.4 54.5 -0.4 26.0 28.5 C -2.5 57.4 -2.5 104.3 26.0 133.2 C 54.5 162.1 100.8 162.1 129.3 133.2 Z M 129.3 133.2 " fill="#03B9FC"></path></g></g><g><clipPath id="clip0x7f872ffa74d0"><path d="M 3.3 6.8 L 152.1 6.8 L 152.1 154.9 L 3.3 154.9 Z M 3.3 6.8 "></path></clipPath><g clip-path="url(#clip0x7f872ffa74d0)"><text xml:space="preserve" font-family="Helvetica-Bold,Helvetica" font-weight="bold" font-size="50.0" fill="#FEFFFE" transform="matrix(1.00, 0.00, -0.00, -1.00, 63.8, 62.7)">1</text></g></g></g></svg>