<?xml version="1.0" encoding="UTF-8" standalone="no"?><svg xmlns="http://www.w3.org/2000/svg" xmlns:xlink="http://www.w3.org/1999/xlink" clip-rule="evenodd" stroke-miterlimit="10" viewBox="0 0 325 24"><desc>SVG generated by Keynote</desc><defs></defs><g transform="matrix(1.00, 0.00, -0.00, -1.00, 0.0, 24.0)"><text xml:space="preserve" font-family="SegoeUI-Semibold,Segoe UI" font-weight="bold" font-size="20.0" fill="#FF2600" transform="matrix(1.00, 0.00, -0.00, -1.00, 1.6, 6.9)">t</text><text xml:space="preserve" font-family="SegoeUI-Semibold,Segoe UI" font-weight="bold" font-size="20.0" fill="#FF2600" transform="matrix(1.00, 0.00, -0.00, -1.00, 8.9, 6.9)">h</text><text xml:space="preserve" font-family="SegoeUI-Semibold,Segoe UI" font-weight="bold" font-size="20.0" fill="#FF2600" transform="matrix(1.00, 0.00, -0.00, -1.00, 20.5, 6.9)">i</text><text xml:space="preserve" font-family="SegoeUI-Semibold,Segoe UI" font-weight="bold" font-size="20.0" fill="#FF2600" transform="matrix(1.00, 0.00, -0.00, -1.00, 25.7, 6.9)">s</text><text xml:space="preserve" font-family="SegoeUI-Semibold,Segoe UI" font-weight="bold" font-size="20.0" fill="#FF2600" transform="matrix(1.00, 0.00, -0.00, -1.00, 34.4, 6.9)"> </text><text xml:space="preserve" font-family="SegoeUI-Semibold,Segoe UI" font-weight="bold" font-size="20.0" fill="#FF2600" transform="matrix(1.00, 0.00, -0.00, -1.00, 39.9, 6.9)">p</text><text xml:space="preserve" font-family="SegoeUI-Semibold,Segoe UI" font-weight="bold" font-size="20.0" fill="#FF2600" transform="matrix(1.00, 0.00, -0.00, -1.00, 51.7, 6.9)">a</text><text xml:space="preserve" font-family="SegoeUI-Semibold,Segoe UI" font-weight="bold" font-size="20.0" fill="#FF2600" transform="matrix(1.00, 0.00, -0.00, -1.00, 62.1, 6.9)">g</text><text xml:space="preserve" font-family="SegoeUI-Semibold,Segoe UI" font-weight="bold" font-size="20.0" fill="#FF2600" transform="matrix(1.00, 0.00, -0.00, -1.00, 74.1, 6.9)">e</text><text xml:space="preserve" font-family="SegoeUI-Semibold,Segoe UI" font-weight="bold" font-size="20.0" fill="#FF2600" transform="matrix(1.00, 0.00, -0.00, -1.00, 84.8, 6.9)"> </text><text xml:space="preserve" font-family="SegoeUI-Semibold,Segoe UI" font-weight="bold" font-size="20.0" fill="#FF2600" transform="matrix(1.00, 0.00, -0.00, -1.00, 90.3, 6.9)">i</text><text xml:space="preserve" font-family="SegoeUI-Semibold,Segoe UI" font-weight="bold" font-size="20.0" fill="#FF2600" transform="matrix(1.00, 0.00, -0.00, -1.00, 95.5, 6.9)">s</text><text xml:space="preserve" font-family="SegoeUI-Semibold,Segoe UI" font-weight="bold" font-size="20.0" fill="#FF2600" transform="matrix(1.00, 0.00, -0.00, -1.00, 104.1, 6.9)"> </text><text xml:space="preserve" font-family="SegoeUI-Semibold,Segoe UI" font-weight="bold" font-size="20.0" fill="#FF2600" transform="matrix(1.00, 0.00, -0.00, -1.00, 109.6, 6.9)">f</text><text xml:space="preserve" font-family="SegoeUI-Semibold,Segoe UI" font-weight="bold" font-size="20.0" fill="#FF2600" transform="matrix(1.00, 0.00, -0.00, -1.00, 116.5, 6.9)">o</text><text xml:space="preserve" font-family="SegoeUI-Semibold,Segoe UI" font-weight="bold" font-size="20.0" fill="#FF2600" transform="matrix(1.00, 0.00, -0.00, -1.00, 128.5, 6.9)">r</text><text xml:space="preserve" font-family="SegoeUI-Semibold,Segoe UI" font-weight="bold" font-size="20.0" fill="#FF2600" transform="matrix(1.00, 0.00, -0.00, -1.00, 135.9, 6.9)"> </text><text xml:space="preserve" font-family="SegoeUI-Semibold,Segoe UI" font-weight="bold" font-size="20.0" fill="#FF2600" transform="matrix(1.00, 0.00, -0.00, -1.00, 141.4, 6.9)">W</text><text xml:space="preserve" font-family="SegoeUI-Semibold,Segoe UI" font-weight="bold" font-size="20.0" fill="#FF2600" transform="matrix(1.00, 0.00, -0.00, -1.00, 160.7, 6.9)">i</text><text xml:space="preserve" font-family="SegoeUI-Semibold,Segoe UI" font-weight="bold" font-size="20.0" fill="#FF2600" transform="matrix(1.00, 0.00, -0.00, -1.00, 165.9, 6.9)">n</text><text xml:space="preserve" font-family="SegoeUI-Semibold,Segoe UI" font-weight="bold" font-size="20.0" fill="#FF2600" transform="matrix(1.00, 0.00, -0.00, -1.00, 177.6, 6.9)">d</text><text xml:space="preserve" font-family="SegoeUI-Semibold,Segoe UI" font-weight="bold" font-size="20.0" fill="#FF2600" transform="matrix(1.00, 0.00, -0.00, -1.00, 189.6, 6.9)">o</text><text xml:space="preserve" font-family="SegoeUI-Semibold,Segoe UI" font-weight="bold" font-size="20.0" fill="#FF2600" transform="matrix(1.00, 0.00, -0.00, -1.00, 201.6, 6.9)">w</text><text xml:space="preserve" font-family="SegoeUI-Semibold,Segoe UI" font-weight="bold" font-size="20.0" fill="#FF2600" transform="matrix(1.00, 0.00, -0.00, -1.00, 216.7, 6.9)">s</text><text xml:space="preserve" font-family="SegoeUI-Semibold,Segoe UI" font-weight="bold" font-size="20.0" fill="#FF2600" transform="matrix(1.00, 0.00, -0.00, -1.00, 225.3, 6.9)"> </text><text xml:space="preserve" font-family="SegoeUI-Semibold,Segoe UI" font-weight="bold" font-size="20.0" fill="#FF2600" transform="matrix(1.00, 0.00, -0.00, -1.00, 230.8, 6.9)">u</text><text xml:space="preserve" font-family="SegoeUI-Semibold,Segoe UI" font-weight="bold" font-size="20.0" fill="#FF2600" transform="matrix(1.00, 0.00, -0.00, -1.00, 242.5, 6.9)">s</text><text xml:space="preserve" font-family="SegoeUI-Semibold,Segoe UI" font-weight="bold" font-size="20.0" fill="#FF2600" transform="matrix(1.00, 0.00, -0.00, -1.00, 251.1, 6.9)">e</text><text xml:space="preserve" font-family="SegoeUI-Semibold,Segoe UI" font-weight="bold" font-size="20.0" fill="#FF2600" transform="matrix(1.00, 0.00, -0.00, -1.00, 261.8, 6.9)">r</text><text xml:space="preserve" font-family="SegoeUI-Semibold,Segoe UI" font-weight="bold" font-size="20.0" fill="#FF2600" transform="matrix(1.00, 0.00, -0.00, -1.00, 269.3, 6.9)">s</text><text xml:space="preserve" font-family="SegoeUI-Semibold,Segoe UI" font-weight="bold" font-size="20.0" fill="#FF2600" transform="matrix(1.00, 0.00, -0.00, -1.00, 277.9, 6.9)"> </text><text xml:space="preserve" font-family="SegoeUI-Semibold,Segoe UI" font-weight="bold" font-size="20.0" fill="#FF2600" transform="matrix(1.00, 0.00, -0.00, -1.00, 283.4, 6.9)">o</text><text xml:space="preserve" font-family="SegoeUI-Semibold,Segoe UI" font-weight="bold" font-size="20.0" fill="#FF2600" transform="matrix(1.00, 0.00, -0.00, -1.00, 295.4, 6.9)">n</text><text xml:space="preserve" font-family="SegoeUI-Semibold,Segoe UI" font-weight="bold" font-size="20.0" fill="#FF2600" transform="matrix(1.00, 0.00, -0.00, -1.00, 307.0, 6.9)">l</text><text xml:space="preserve" font-family="SegoeUI-Semibold,Segoe UI" font-weight="bold" font-size="20.0" fill="#FF2600" transform="matrix(1.00, 0.00, -0.00, -1.00, 312.3, 6.9)">y</text></g></svg>