<?xml version="1.0" encoding="UTF-8" standalone="no"?><svg xmlns="http://www.w3.org/2000/svg" xmlns:xlink="http://www.w3.org/1999/xlink" clip-rule="evenodd" stroke-miterlimit="10" viewBox="0 0 800 157"><desc>SVG generated by Keynote</desc><defs></defs><g transform="matrix(1.00, 0.00, -0.00, -1.00, 0.0, 157.0)"><g><clipPath id="clip0x7f87403034d0"><path d="M 48.0 24.4 L 799.4 24.4 L 799.4 132.4 L 48.0 132.4 Z M 48.0 24.4 "></path></clipPath><g clip-path="url(#clip0x7f87403034d0)"><image xlink:href="../../76EA4090-F291-457B-B962-4B2F171C1F14/assets/D288FC678DB02630C34FE80E8C5A2710.png" width="749.00" height="106.00" transform="matrix(1.00, 0.00, -0.00, -1.00, 49.0, 131.4)" opacity="0.50"></image><path d="M 52.0 45.4 L 52.0 115.4 C 52.0 123.7 58.7 130.0 67.0 130.0 L 780.4 130.0 C 788.7 130.0 795.0 123.7 795.0 115.4 L 795.0 45.4 C 795.0 37.1 788.7 30.0 780.4 30.0 L 67.0 30.0 C 58.7 30.0 52.0 37.1 52.0 45.4 Z M 52.0 45.4 " fill="#FFCB2E"></path></g></g><g><clipPath id="clip0x7f87403092a0"><path d="M 48.0 30.4 L 799.4 30.4 L 799.4 130.4 L 48.0 130.4 Z M 48.0 30.4 "></path></clipPath><g clip-path="url(#clip0x7f87403092a0)"><text xml:space="preserve" font-family="Helvetica-Bold,Helvetica" font-weight="bold" font-size="32.0" fill="#000000" transform="matrix(1.00, 0.00, -0.00, -1.00, 278.8, 68.5)">A</text><text xml:space="preserve" font-family="Helvetica-Bold,Helvetica" font-weight="bold" font-size="32.0" fill="#000000" transform="matrix(1.00, 0.00, -0.00, -1.00, 301.9, 68.5)">t</text><text xml:space="preserve" font-family="Helvetica-Bold,Helvetica" font-weight="bold" font-size="32.0" fill="#000000" transform="matrix(1.00, 0.00, -0.00, -1.00, 312.5, 68.5)">t</text><text xml:space="preserve" font-family="Helvetica-Bold,Helvetica" font-weight="bold" font-size="32.0" fill="#000000" transform="matrix(1.00, 0.00, -0.00, -1.00, 323.2, 68.5)">a</text><text xml:space="preserve" font-family="Helvetica-Bold,Helvetica" font-weight="bold" font-size="32.0" fill="#000000" transform="matrix(1.00, 0.00, -0.00, -1.00, 341.0, 68.5)">c</text><text xml:space="preserve" font-family="Helvetica-Bold,Helvetica" font-weight="bold" font-size="32.0" fill="#000000" transform="matrix(1.00, 0.00, -0.00, -1.00, 358.8, 68.5)">h</text><text xml:space="preserve" font-family="Helvetica-Bold,Helvetica" font-weight="bold" font-size="32.0" fill="#000000" transform="matrix(1.00, 0.00, -0.00, -1.00, 378.4, 68.5)">i</text><text xml:space="preserve" font-family="Helvetica-Bold,Helvetica" font-weight="bold" font-size="32.0" fill="#000000" transform="matrix(1.00, 0.00, -0.00, -1.00, 387.2, 68.5)">n</text><text xml:space="preserve" font-family="Helvetica-Bold,Helvetica" font-weight="bold" font-size="32.0" fill="#000000" transform="matrix(1.00, 0.00, -0.00, -1.00, 406.8, 68.5)">g</text><text xml:space="preserve" font-family="Helvetica-Bold,Helvetica" font-weight="bold" font-size="32.0" fill="#000000" transform="matrix(1.00, 0.00, -0.00, -1.00, 426.3, 68.5)"> </text><text xml:space="preserve" font-family="Helvetica-Bold,Helvetica" font-weight="bold" font-size="32.0" fill="#000000" transform="matrix(1.00, 0.00, -0.00, -1.00, 435.2, 68.5)">s</text><text xml:space="preserve" font-family="Helvetica-Bold,Helvetica" font-weight="bold" font-size="32.0" fill="#000000" transform="matrix(1.00, 0.00, -0.00, -1.00, 453.0, 68.5)">t</text><text xml:space="preserve" font-family="Helvetica-Bold,Helvetica" font-weight="bold" font-size="32.0" fill="#000000" transform="matrix(1.00, 0.00, -0.00, -1.00, 463.7, 68.5)">r</text><text xml:space="preserve" font-family="Helvetica-Bold,Helvetica" font-weight="bold" font-size="32.0" fill="#000000" transform="matrix(1.00, 0.00, -0.00, -1.00, 476.1, 68.5)">i</text><text xml:space="preserve" font-family="Helvetica-Bold,Helvetica" font-weight="bold" font-size="32.0" fill="#000000" transform="matrix(1.00, 0.00, -0.00, -1.00, 485.0, 68.5)">n</text><text xml:space="preserve" font-family="Helvetica-Bold,Helvetica" font-weight="bold" font-size="32.0" fill="#000000" transform="matrix(1.00, 0.00, -0.00, -1.00, 504.5, 68.5)">g</text><text xml:space="preserve" font-family="Helvetica-Bold,Helvetica" font-weight="bold" font-size="32.0" fill="#000000" transform="matrix(1.00, 0.00, -0.00, -1.00, 524.1, 68.5)">s</text><text xml:space="preserve" font-family="Helvetica-Bold,Helvetica" font-weight="bold" font-size="32.0" fill="#000000" transform="matrix(1.00, 0.00, -0.00, -1.00, 541.9, 68.5)"> </text><text xml:space="preserve" font-family="Helvetica-Bold,Helvetica" font-weight="bold" font-size="32.0" fill="#000000" transform="matrix(1.00, 0.00, -0.00, -1.00, 550.8, 68.5)">1</text></g></g><g><clipPath id="clip0x7f874030ac40"><path d="M 0.6 0.4 L 154.7 0.4 L 154.7 156.5 L 0.6 156.5 Z M 0.6 0.4 "></path></clipPath><g clip-path="url(#clip0x7f874030ac40)"><image xlink:href="../../76EA4090-F291-457B-B962-4B2F171C1F14/assets/8F10CB0D277D93E7E519F15C02DB93F5.png" width="152.00" height="154.00" transform="matrix(1.00, 0.00, -0.00, -1.00, 1.6, 155.5)" opacity="0.50"></image><path d="M 129.3 132.8 C 157.8 103.9 157.8 57.0 129.3 28.1 C 100.8 -0.8 54.5 -0.8 26.0 28.1 C -2.5 57.0 -2.5 103.9 26.0 132.8 C 54.5 161.7 100.8 161.7 129.3 132.8 Z M 129.3 132.8 " fill="#03B9FC"></path></g></g><g><clipPath id="clip0x7f8740340a90"><path d="M 3.3 6.4 L 152.1 6.4 L 152.1 154.5 L 3.3 154.5 Z M 3.3 6.4 "></path></clipPath><g clip-path="url(#clip0x7f8740340a90)"><text xml:space="preserve" font-family="Helvetica-Bold,Helvetica" font-weight="bold" font-size="50.0" fill="#FEFFFE" transform="matrix(1.00, 0.00, -0.00, -1.00, 63.8, 62.2)">2</text></g></g></g></svg>