<?xml version="1.0" encoding="UTF-8" standalone="no"?><svg xmlns="http://www.w3.org/2000/svg" xmlns:xlink="http://www.w3.org/1999/xlink" clip-rule="evenodd" stroke-miterlimit="10" viewBox="0 0 991 53"><desc>SVG generated by Keynote</desc><defs></defs><g transform="matrix(1.00, 0.00, -0.00, -1.00, 0.0, 53.0)"><text xml:space="preserve" font-family="SegoeUI-Light,Segoe UI" font-size="50.0" fill="#000000" transform="matrix(1.00, 0.00, -0.00, -1.00, 1.2, 14.5)">A</text><text xml:space="preserve" font-family="SegoeUI-Light,Segoe UI" font-size="50.0" fill="#000000" transform="matrix(1.00, 0.00, -0.00, -1.00, 32.7, 14.5)">n</text><text xml:space="preserve" font-family="SegoeUI-Light,Segoe UI" font-size="50.0" fill="#000000" transform="matrix(1.00, 0.00, -0.00, -1.00, 59.5, 14.5)">d</text><text xml:space="preserve" font-family="SegoeUI-Light,Segoe UI" font-size="50.0" fill="#000000" transform="matrix(1.00, 0.00, -0.00, -1.00, 87.5, 14.5)"> </text><text xml:space="preserve" font-family="SegoeUI-Light,Segoe UI" font-size="50.0" fill="#000000" transform="matrix(1.00, 0.00, -0.00, -1.00, 101.2, 14.5)">t</text><text xml:space="preserve" font-family="SegoeUI-Light,Segoe UI" font-size="50.0" fill="#000000" transform="matrix(1.00, 0.00, -0.00, -1.00, 116.0, 14.5)">o</text><text xml:space="preserve" font-family="SegoeUI-Light,Segoe UI" font-size="50.0" fill="#000000" transform="matrix(1.00, 0.00, -0.00, -1.00, 144.0, 14.5)">d</text><text xml:space="preserve" font-family="SegoeUI-Light,Segoe UI" font-size="50.0" fill="#000000" transform="matrix(1.00, 0.00, -0.00, -1.00, 172.1, 14.5)">a</text><text xml:space="preserve" font-family="SegoeUI-Light,Segoe UI" font-size="50.0" fill="#000000" transform="matrix(1.00, 0.00, -0.00, -1.00, 196.8, 14.5)">y</text><text xml:space="preserve" font-family="SegoeUI-Light,Segoe UI" font-size="50.0" fill="#000000" transform="matrix(1.00, 0.00, -0.00, -1.00, 215.6, 14.5)">,</text><text xml:space="preserve" font-family="SegoeUI-Light,Segoe UI" font-size="50.0" fill="#000000" transform="matrix(1.00, 0.00, -0.00, -1.00, 226.7, 14.5)"> </text><text xml:space="preserve" font-family="SegoeUI-Light,Segoe UI" font-size="50.0" fill="#000000" transform="matrix(1.00, 0.00, -0.00, -1.00, 240.4, 14.5)">w</text><text xml:space="preserve" font-family="SegoeUI-Light,Segoe UI" font-size="50.0" fill="#000000" transform="matrix(1.00, 0.00, -0.00, -1.00, 274.3, 14.5)">e</text><text xml:space="preserve" font-family="SegoeUI-Light,Segoe UI" font-size="50.0" fill="#000000" transform="matrix(1.00, 0.00, -0.00, -1.00, 299.5, 14.5)"> </text><text xml:space="preserve" font-family="SegoeUI-Light,Segoe UI" font-size="50.0" fill="#000000" transform="matrix(1.00, 0.00, -0.00, -1.00, 313.2, 14.5)">w</text><text xml:space="preserve" font-family="SegoeUI-Light,Segoe UI" font-size="50.0" fill="#000000" transform="matrix(1.00, 0.00, -0.00, -1.00, 347.0, 14.5)">i</text><text xml:space="preserve" font-family="SegoeUI-Light,Segoe UI" font-size="50.0" fill="#000000" transform="matrix(1.00, 0.00, -0.00, -1.00, 357.3, 14.5)">l</text><text xml:space="preserve" font-family="SegoeUI-Light,Segoe UI" font-size="50.0" fill="#000000" transform="matrix(1.00, 0.00, -0.00, -1.00, 367.5, 14.5)">l</text><text xml:space="preserve" font-family="SegoeUI-Light,Segoe UI" font-size="50.0" fill="#000000" transform="matrix(1.00, 0.00, -0.00, -1.00, 377.8, 14.5)"> </text><text xml:space="preserve" font-family="SegoeUI-Light,Segoe UI" font-size="50.0" fill="#000000" transform="matrix(1.00, 0.00, -0.00, -1.00, 391.5, 14.5)">d</text><text xml:space="preserve" font-family="SegoeUI-Light,Segoe UI" font-size="50.0" fill="#000000" transform="matrix(1.00, 0.00, -0.00, -1.00, 419.5, 14.5)">o</text><text xml:space="preserve" font-family="SegoeUI-Light,Segoe UI" font-size="50.0" fill="#000000" transform="matrix(1.00, 0.00, -0.00, -1.00, 447.5, 14.5)"> </text><text xml:space="preserve" font-family="SegoeUI-Light,Segoe UI" font-size="50.0" fill="#000000" transform="matrix(1.00, 0.00, -0.00, -1.00, 461.2, 14.5)">s</text><text xml:space="preserve" font-family="SegoeUI-Light,Segoe UI" font-size="50.0" fill="#000000" transform="matrix(1.00, 0.00, -0.00, -1.00, 480.7, 14.5)">o</text><text xml:space="preserve" font-family="SegoeUI-Light,Segoe UI" font-size="50.0" fill="#000000" transform="matrix(1.00, 0.00, -0.00, -1.00, 508.7, 14.5)">m</text><text xml:space="preserve" font-family="SegoeUI-Light,Segoe UI" font-size="50.0" fill="#000000" transform="matrix(1.00, 0.00, -0.00, -1.00, 549.8, 14.5)">e</text><text xml:space="preserve" font-family="SegoeUI-Light,Segoe UI" font-size="50.0" fill="#000000" transform="matrix(1.00, 0.00, -0.00, -1.00, 575.0, 14.5)"> </text><text xml:space="preserve" font-family="SegoeUI-Light,Segoe UI" font-size="50.0" fill="#000000" transform="matrix(1.00, 0.00, -0.00, -1.00, 588.7, 14.5)">e</text><text xml:space="preserve" font-family="SegoeUI-Light,Segoe UI" font-size="50.0" fill="#000000" transform="matrix(1.00, 0.00, -0.00, -1.00, 614.0, 14.5)">x</text><text xml:space="preserve" font-family="SegoeUI-Light,Segoe UI" font-size="50.0" fill="#000000" transform="matrix(1.00, 0.00, -0.00, -1.00, 635.0, 14.5)">p</text><text xml:space="preserve" font-family="SegoeUI-Light,Segoe UI" font-size="50.0" fill="#000000" transform="matrix(1.00, 0.00, -0.00, -1.00, 663.0, 14.5)">e</text><text xml:space="preserve" font-family="SegoeUI-Light,Segoe UI" font-size="50.0" fill="#000000" transform="matrix(1.00, 0.00, -0.00, -1.00, 688.2, 14.5)">r</text><text xml:space="preserve" font-family="SegoeUI-Light,Segoe UI" font-size="50.0" fill="#000000" transform="matrix(1.00, 0.00, -0.00, -1.00, 704.8, 14.5)">i</text><text xml:space="preserve" font-family="SegoeUI-Light,Segoe UI" font-size="50.0" fill="#000000" transform="matrix(1.00, 0.00, -0.00, -1.00, 715.0, 14.5)">m</text><text xml:space="preserve" font-family="SegoeUI-Light,Segoe UI" font-size="50.0" fill="#000000" transform="matrix(1.00, 0.00, -0.00, -1.00, 756.1, 14.5)">e</text><text xml:space="preserve" font-family="SegoeUI-Light,Segoe UI" font-size="50.0" fill="#000000" transform="matrix(1.00, 0.00, -0.00, -1.00, 781.3, 14.5)">n</text><text xml:space="preserve" font-family="SegoeUI-Light,Segoe UI" font-size="50.0" fill="#000000" transform="matrix(1.00, 0.00, -0.00, -1.00, 808.1, 14.5)">t</text><text xml:space="preserve" font-family="SegoeUI-Light,Segoe UI" font-size="50.0" fill="#000000" transform="matrix(1.00, 0.00, -0.00, -1.00, 822.9, 14.5)">s</text><text xml:space="preserve" font-family="SegoeUI-Light,Segoe UI" font-size="50.0" fill="#000000" transform="matrix(1.00, 0.00, -0.00, -1.00, 842.4, 14.5)"> </text><text xml:space="preserve" font-family="SegoeUI-Light,Segoe UI" font-size="50.0" fill="#000000" transform="matrix(1.00, 0.00, -0.00, -1.00, 856.0, 14.5)">w</text><text xml:space="preserve" font-family="SegoeUI-Light,Segoe UI" font-size="50.0" fill="#000000" transform="matrix(1.00, 0.00, -0.00, -1.00, 889.9, 14.5)">i</text><text xml:space="preserve" font-family="SegoeUI-Light,Segoe UI" font-size="50.0" fill="#000000" transform="matrix(1.00, 0.00, -0.00, -1.00, 900.1, 14.5)">t</text><text xml:space="preserve" font-family="SegoeUI-Light,Segoe UI" font-size="50.0" fill="#000000" transform="matrix(1.00, 0.00, -0.00, -1.00, 915.0, 14.5)">h</text><text xml:space="preserve" font-family="SegoeUI-Light,Segoe UI" font-size="50.0" fill="#000000" transform="matrix(1.00, 0.00, -0.00, -1.00, 941.7, 14.5)"> </text><text xml:space="preserve" font-family="SegoeUI-Light,Segoe UI" font-size="50.0" fill="#000000" transform="matrix(1.00, 0.00, -0.00, -1.00, 955.4, 14.5)">i</text><text xml:space="preserve" font-family="SegoeUI-Light,Segoe UI" font-size="50.0" fill="#000000" transform="matrix(1.00, 0.00, -0.00, -1.00, 965.7, 14.5)">t</text><text xml:space="preserve" font-family="SegoeUI-Light,Segoe UI" font-size="50.0" fill="#000000" transform="matrix(1.00, 0.00, -0.00, -1.00, 980.5, 14.5)">!</text></g></svg>