<?xml version="1.0" encoding="UTF-8" standalone="no"?><svg xmlns="http://www.w3.org/2000/svg" xmlns:xlink="http://www.w3.org/1999/xlink" clip-rule="evenodd" stroke-miterlimit="10" viewBox="0 0 800 157"><desc>SVG generated by Keynote</desc><defs></defs><g transform="matrix(1.00, 0.00, -0.00, -1.00, 0.0, 157.0)"><g><clipPath id="clip0x7f87498752e0"><path d="M 48.0 24.1 L 799.4 24.1 L 799.4 132.1 L 48.0 132.1 Z M 48.0 24.1 "></path></clipPath><g clip-path="url(#clip0x7f87498752e0)"><image xlink:href="../../76EA4090-F291-457B-B962-4B2F171C1F14/assets/AF4B3F2AC3B300DB35D72B7FE154FD3C.png" width="749.00" height="106.00" transform="matrix(1.00, 0.00, -0.00, -1.00, 49.0, 131.1)" opacity="0.50"></image><path d="M 52.0 45.1 L 52.0 115.1 C 52.0 123.4 58.7 130.0 67.0 130.0 L 780.4 130.0 C 788.7 130.0 795.0 123.4 795.0 115.1 L 795.0 45.1 C 795.0 36.8 788.7 30.0 780.4 30.0 L 67.0 30.0 C 58.7 30.0 52.0 36.8 52.0 45.1 Z M 52.0 45.1 " fill="#FFCB2E"></path></g></g><g><clipPath id="clip0x7f8749864ce0"><path d="M 48.0 30.1 L 799.4 30.1 L 799.4 130.1 L 48.0 130.1 Z M 48.0 30.1 "></path></clipPath><g clip-path="url(#clip0x7f8749864ce0)"><text xml:space="preserve" font-family="Helvetica-Bold,Helvetica" font-weight="bold" font-size="32.0" fill="#000000" transform="matrix(1.00, 0.00, -0.00, -1.00, 298.6, 68.2)">W</text><text xml:space="preserve" font-family="Helvetica-Bold,Helvetica" font-weight="bold" font-size="32.0" fill="#000000" transform="matrix(1.00, 0.00, -0.00, -1.00, 328.3, 68.2)">r</text><text xml:space="preserve" font-family="Helvetica-Bold,Helvetica" font-weight="bold" font-size="32.0" fill="#000000" transform="matrix(1.00, 0.00, -0.00, -1.00, 340.7, 68.2)">i</text><text xml:space="preserve" font-family="Helvetica-Bold,Helvetica" font-weight="bold" font-size="32.0" fill="#000000" transform="matrix(1.00, 0.00, -0.00, -1.00, 349.6, 68.2)">t</text><text xml:space="preserve" font-family="Helvetica-Bold,Helvetica" font-weight="bold" font-size="32.0" fill="#000000" transform="matrix(1.00, 0.00, -0.00, -1.00, 360.3, 68.2)">i</text><text xml:space="preserve" font-family="Helvetica-Bold,Helvetica" font-weight="bold" font-size="32.0" fill="#000000" transform="matrix(1.00, 0.00, -0.00, -1.00, 369.2, 68.2)">n</text><text xml:space="preserve" font-family="Helvetica-Bold,Helvetica" font-weight="bold" font-size="32.0" fill="#000000" transform="matrix(1.00, 0.00, -0.00, -1.00, 388.7, 68.2)">g</text><text xml:space="preserve" font-family="Helvetica-Bold,Helvetica" font-weight="bold" font-size="32.0" fill="#000000" transform="matrix(1.00, 0.00, -0.00, -1.00, 408.2, 68.2)"> </text><text xml:space="preserve" font-family="Helvetica-Bold,Helvetica" font-weight="bold" font-size="32.0" fill="#000000" transform="matrix(1.00, 0.00, -0.00, -1.00, 417.1, 68.2)">t</text><text xml:space="preserve" font-family="Helvetica-Bold,Helvetica" font-weight="bold" font-size="32.0" fill="#000000" transform="matrix(1.00, 0.00, -0.00, -1.00, 427.8, 68.2)">h</text><text xml:space="preserve" font-family="Helvetica-Bold,Helvetica" font-weight="bold" font-size="32.0" fill="#000000" transform="matrix(1.00, 0.00, -0.00, -1.00, 447.3, 68.2)">e</text><text xml:space="preserve" font-family="Helvetica-Bold,Helvetica" font-weight="bold" font-size="32.0" fill="#000000" transform="matrix(1.00, 0.00, -0.00, -1.00, 465.1, 68.2)"> </text><text xml:space="preserve" font-family="Helvetica-Bold,Helvetica" font-weight="bold" font-size="32.0" fill="#000000" transform="matrix(1.00, 0.00, -0.00, -1.00, 474.0, 68.2)">c</text><text xml:space="preserve" font-family="Helvetica-Bold,Helvetica" font-weight="bold" font-size="32.0" fill="#000000" transform="matrix(1.00, 0.00, -0.00, -1.00, 491.8, 68.2)">o</text><text xml:space="preserve" font-family="Helvetica-Bold,Helvetica" font-weight="bold" font-size="32.0" fill="#000000" transform="matrix(1.00, 0.00, -0.00, -1.00, 511.3, 68.2)">d</text><text xml:space="preserve" font-family="Helvetica-Bold,Helvetica" font-weight="bold" font-size="32.0" fill="#000000" transform="matrix(1.00, 0.00, -0.00, -1.00, 530.9, 68.2)">e</text></g></g><g><clipPath id="clip0x7f874986b9a0"><path d="M 0.6 0.1 L 154.7 0.1 L 154.7 156.2 L 0.6 156.2 Z M 0.6 0.1 "></path></clipPath><g clip-path="url(#clip0x7f874986b9a0)"><image xlink:href="../../76EA4090-F291-457B-B962-4B2F171C1F14/assets/8F10CB0D277D93E7E519F15C02DB93F5.png" width="152.00" height="154.00" transform="matrix(1.00, 0.00, -0.00, -1.00, 1.6, 155.2)" opacity="0.50"></image><path d="M 129.3 132.5 C 157.8 103.6 157.8 56.7 129.3 27.8 C 100.8 -1.1 54.5 -1.1 26.0 27.8 C -2.5 56.7 -2.5 103.6 26.0 132.5 C 54.5 161.4 100.8 161.4 129.3 132.5 Z M 129.3 132.5 " fill="#03B9FC"></path></g></g><g><clipPath id="clip0x7f87487bb6e0"><path d="M 3.3 6.1 L 152.1 6.1 L 152.1 154.2 L 3.3 154.2 Z M 3.3 6.1 "></path></clipPath><g clip-path="url(#clip0x7f87487bb6e0)"><text xml:space="preserve" font-family="Helvetica-Bold,Helvetica" font-weight="bold" font-size="50.0" fill="#FEFFFE" transform="matrix(1.00, 0.00, -0.00, -1.00, 63.8, 61.9)">5</text></g></g></g></svg>