<?xml version="1.0" encoding="UTF-8" standalone="no"?><svg xmlns="http://www.w3.org/2000/svg" xmlns:xlink="http://www.w3.org/1999/xlink" clip-rule="evenodd" stroke-miterlimit="10" viewBox="0 0 800 158"><desc>SVG generated by Keynote</desc><defs></defs><g transform="matrix(1.00, 0.00, -0.00, -1.00, 0.0, 158.0)"><g><clipPath id="clip0x7f8749984ef0"><path d="M 48.0 25.0 L 799.4 25.0 L 799.4 133.0 L 48.0 133.0 Z M 48.0 25.0 "></path></clipPath><g clip-path="url(#clip0x7f8749984ef0)"><image xlink:href="../../76EA4090-F291-457B-B962-4B2F171C1F14/assets/1A5055F2A74D7533EC6A39B7840B0B76.png" width="749.00" height="106.00" transform="matrix(1.00, 0.00, -0.00, -1.00, 49.0, 132.0)" opacity="0.50"></image><path d="M 52.0 46.0 L 52.0 116.0 C 52.0 124.3 58.7 131.0 67.0 131.0 L 780.4 131.0 C 788.7 131.0 795.0 124.3 795.0 116.0 L 795.0 46.0 C 795.0 37.7 788.7 31.0 780.4 31.0 L 67.0 31.0 C 58.7 31.0 52.0 37.7 52.0 46.0 Z M 52.0 46.0 " fill="#FFCB2E"></path></g></g><g><clipPath id="clip0x7f87487f0840"><path d="M 48.0 31.0 L 799.4 31.0 L 799.4 131.0 L 48.0 131.0 Z M 48.0 31.0 "></path></clipPath><g clip-path="url(#clip0x7f87487f0840)"><text xml:space="preserve" font-family="Helvetica-Bold,Helvetica" font-weight="bold" font-size="32.0" fill="#000000" transform="matrix(1.00, 0.00, -0.00, -1.00, 278.8, 69.0)">A</text><text xml:space="preserve" font-family="Helvetica-Bold,Helvetica" font-weight="bold" font-size="32.0" fill="#000000" transform="matrix(1.00, 0.00, -0.00, -1.00, 301.9, 69.0)">t</text><text xml:space="preserve" font-family="Helvetica-Bold,Helvetica" font-weight="bold" font-size="32.0" fill="#000000" transform="matrix(1.00, 0.00, -0.00, -1.00, 312.5, 69.0)">t</text><text xml:space="preserve" font-family="Helvetica-Bold,Helvetica" font-weight="bold" font-size="32.0" fill="#000000" transform="matrix(1.00, 0.00, -0.00, -1.00, 323.2, 69.0)">a</text><text xml:space="preserve" font-family="Helvetica-Bold,Helvetica" font-weight="bold" font-size="32.0" fill="#000000" transform="matrix(1.00, 0.00, -0.00, -1.00, 341.0, 69.0)">c</text><text xml:space="preserve" font-family="Helvetica-Bold,Helvetica" font-weight="bold" font-size="32.0" fill="#000000" transform="matrix(1.00, 0.00, -0.00, -1.00, 358.8, 69.0)">h</text><text xml:space="preserve" font-family="Helvetica-Bold,Helvetica" font-weight="bold" font-size="32.0" fill="#000000" transform="matrix(1.00, 0.00, -0.00, -1.00, 378.4, 69.0)">i</text><text xml:space="preserve" font-family="Helvetica-Bold,Helvetica" font-weight="bold" font-size="32.0" fill="#000000" transform="matrix(1.00, 0.00, -0.00, -1.00, 387.2, 69.0)">n</text><text xml:space="preserve" font-family="Helvetica-Bold,Helvetica" font-weight="bold" font-size="32.0" fill="#000000" transform="matrix(1.00, 0.00, -0.00, -1.00, 406.8, 69.0)">g</text><text xml:space="preserve" font-family="Helvetica-Bold,Helvetica" font-weight="bold" font-size="32.0" fill="#000000" transform="matrix(1.00, 0.00, -0.00, -1.00, 426.3, 69.0)"> </text><text xml:space="preserve" font-family="Helvetica-Bold,Helvetica" font-weight="bold" font-size="32.0" fill="#000000" transform="matrix(1.00, 0.00, -0.00, -1.00, 435.2, 69.0)">s</text><text xml:space="preserve" font-family="Helvetica-Bold,Helvetica" font-weight="bold" font-size="32.0" fill="#000000" transform="matrix(1.00, 0.00, -0.00, -1.00, 453.0, 69.0)">t</text><text xml:space="preserve" font-family="Helvetica-Bold,Helvetica" font-weight="bold" font-size="32.0" fill="#000000" transform="matrix(1.00, 0.00, -0.00, -1.00, 463.7, 69.0)">r</text><text xml:space="preserve" font-family="Helvetica-Bold,Helvetica" font-weight="bold" font-size="32.0" fill="#000000" transform="matrix(1.00, 0.00, -0.00, -1.00, 476.1, 69.0)">i</text><text xml:space="preserve" font-family="Helvetica-Bold,Helvetica" font-weight="bold" font-size="32.0" fill="#000000" transform="matrix(1.00, 0.00, -0.00, -1.00, 485.0, 69.0)">n</text><text xml:space="preserve" font-family="Helvetica-Bold,Helvetica" font-weight="bold" font-size="32.0" fill="#000000" transform="matrix(1.00, 0.00, -0.00, -1.00, 504.5, 69.0)">g</text><text xml:space="preserve" font-family="Helvetica-Bold,Helvetica" font-weight="bold" font-size="32.0" fill="#000000" transform="matrix(1.00, 0.00, -0.00, -1.00, 524.1, 69.0)">s</text><text xml:space="preserve" font-family="Helvetica-Bold,Helvetica" font-weight="bold" font-size="32.0" fill="#000000" transform="matrix(1.00, 0.00, -0.00, -1.00, 541.9, 69.0)"> </text><text xml:space="preserve" font-family="Helvetica-Bold,Helvetica" font-weight="bold" font-size="32.0" fill="#000000" transform="matrix(1.00, 0.00, -0.00, -1.00, 550.8, 69.0)">2</text></g></g><g><clipPath id="clip0x7f87487b7570"><path d="M 0.6 1.0 L 154.7 1.0 L 154.7 157.0 L 0.6 157.0 Z M 0.6 1.0 "></path></clipPath><g clip-path="url(#clip0x7f87487b7570)"><image xlink:href="../../76EA4090-F291-457B-B962-4B2F171C1F14/assets/8F10CB0D277D93E7E519F15C02DB93F5.png" width="152.00" height="154.00" transform="matrix(1.00, 0.00, -0.00, -1.00, 1.6, 156.0)" opacity="0.50"></image><path d="M 129.3 133.4 C 157.8 104.4 157.8 57.6 129.3 28.6 C 100.8 -0.3 54.5 -0.3 26.0 28.6 C -2.5 57.6 -2.5 104.4 26.0 133.4 C 54.5 162.3 100.8 162.3 129.3 133.4 Z M 129.3 133.4 " fill="#03B9FC"></path></g></g><g><clipPath id="clip0x7f8748f57600"><path d="M 3.3 7.0 L 152.1 7.0 L 152.1 155.0 L 3.3 155.0 Z M 3.3 7.0 "></path></clipPath><g clip-path="url(#clip0x7f8748f57600)"><text xml:space="preserve" font-family="Helvetica-Bold,Helvetica" font-weight="bold" font-size="50.0" fill="#FEFFFE" transform="matrix(1.00, 0.00, -0.00, -1.00, 63.8, 62.8)">3</text></g></g></g></svg>