<?xml version="1.0" encoding="UTF-8" standalone="no"?><svg xmlns="http://www.w3.org/2000/svg" xmlns:xlink="http://www.w3.org/1999/xlink" clip-rule="evenodd" stroke-miterlimit="10" viewBox="0 0 800 157"><desc>SVG generated by Keynote</desc><defs></defs><g transform="matrix(1.00, 0.00, -0.00, -1.00, 0.0, 157.0)"><g><clipPath id="clip0x7f87568ca130"><path d="M 48.0 24.6 L 799.4 24.6 L 799.4 132.6 L 48.0 132.6 Z M 48.0 24.6 "></path></clipPath><g clip-path="url(#clip0x7f87568ca130)"><image xlink:href="380A2F4AAC7BD39CEA023A3900A1A201.png" width="749.00" height="106.00" transform="matrix(1.00, 0.00, -0.00, -1.00, 49.0, 131.6)" opacity="0.50"></image><path d="M 52.0 45.6 L 52.0 115.6 C 52.0 123.9 58.7 131.0 67.0 131.0 L 780.4 131.0 C 788.7 131.0 795.0 123.9 795.0 115.6 L 795.0 45.6 C 795.0 37.3 788.7 31.0 780.4 31.0 L 67.0 31.0 C 58.7 31.0 52.0 37.3 52.0 45.6 Z M 52.0 45.6 " fill="#6FBF40"></path></g></g><g><clipPath id="clip0x7f8757e18710"><path d="M 48.0 30.6 L 799.4 30.6 L 799.4 130.6 L 48.0 130.6 Z M 48.0 30.6 "></path></clipPath><g clip-path="url(#clip0x7f8757e18710)"><text xml:space="preserve" font-family="Helvetica-Bold,Helvetica" font-weight="bold" font-size="32.0" fill="#FEFFFE" transform="matrix(1.00, 0.00, -0.00, -1.00, 289.5, 68.6)">C</text><text xml:space="preserve" font-family="Helvetica-Bold,Helvetica" font-weight="bold" font-size="32.0" fill="#FEFFFE" transform="matrix(1.00, 0.00, -0.00, -1.00, 312.6, 68.6)">o</text><text xml:space="preserve" font-family="Helvetica-Bold,Helvetica" font-weight="bold" font-size="32.0" fill="#FEFFFE" transform="matrix(1.00, 0.00, -0.00, -1.00, 332.1, 68.6)">l</text><text xml:space="preserve" font-family="Helvetica-Bold,Helvetica" font-weight="bold" font-size="32.0" fill="#FEFFFE" transform="matrix(1.00, 0.00, -0.00, -1.00, 341.0, 68.6)">o</text><text xml:space="preserve" font-family="Helvetica-Bold,Helvetica" font-weight="bold" font-size="32.0" fill="#FEFFFE" transform="matrix(1.00, 0.00, -0.00, -1.00, 360.6, 68.6)">r</text><text xml:space="preserve" font-family="Helvetica-Bold,Helvetica" font-weight="bold" font-size="32.0" fill="#FEFFFE" transform="matrix(1.00, 0.00, -0.00, -1.00, 373.0, 68.6)">i</text><text xml:space="preserve" font-family="Helvetica-Bold,Helvetica" font-weight="bold" font-size="32.0" fill="#FEFFFE" transform="matrix(1.00, 0.00, -0.00, -1.00, 381.9, 68.6)">n</text><text xml:space="preserve" font-family="Helvetica-Bold,Helvetica" font-weight="bold" font-size="32.0" fill="#FEFFFE" transform="matrix(1.00, 0.00, -0.00, -1.00, 401.4, 68.6)">g</text><text xml:space="preserve" font-family="Helvetica-Bold,Helvetica" font-weight="bold" font-size="32.0" fill="#FEFFFE" transform="matrix(1.00, 0.00, -0.00, -1.00, 421.0, 68.6)"> </text><text xml:space="preserve" font-family="Helvetica-Bold,Helvetica" font-weight="bold" font-size="32.0" fill="#FEFFFE" transform="matrix(1.00, 0.00, -0.00, -1.00, 429.9, 68.6)">t</text><text xml:space="preserve" font-family="Helvetica-Bold,Helvetica" font-weight="bold" font-size="32.0" fill="#FEFFFE" transform="matrix(1.00, 0.00, -0.00, -1.00, 440.5, 68.6)">h</text><text xml:space="preserve" font-family="Helvetica-Bold,Helvetica" font-weight="bold" font-size="32.0" fill="#FEFFFE" transform="matrix(1.00, 0.00, -0.00, -1.00, 460.1, 68.6)">e</text><text xml:space="preserve" font-family="Helvetica-Bold,Helvetica" font-weight="bold" font-size="32.0" fill="#FEFFFE" transform="matrix(1.00, 0.00, -0.00, -1.00, 477.9, 68.6)"> </text><text xml:space="preserve" font-family="Helvetica-Bold,Helvetica" font-weight="bold" font-size="32.0" fill="#FEFFFE" transform="matrix(1.00, 0.00, -0.00, -1.00, 486.7, 68.6)">R</text><text xml:space="preserve" font-family="Helvetica-Bold,Helvetica" font-weight="bold" font-size="32.0" fill="#FEFFFE" transform="matrix(1.00, 0.00, -0.00, -1.00, 509.9, 68.6)">G</text><text xml:space="preserve" font-family="Helvetica-Bold,Helvetica" font-weight="bold" font-size="32.0" fill="#FEFFFE" transform="matrix(1.00, 0.00, -0.00, -1.00, 534.7, 68.6)">B</text></g></g><g><clipPath id="clip0x7f8757dcd2b0"><path d="M 0.6 0.5 L 154.7 0.5 L 154.7 156.6 L 0.6 156.6 Z M 0.6 0.5 "></path></clipPath><g clip-path="url(#clip0x7f8757dcd2b0)"><image xlink:href="../../76EA4090-F291-457B-B962-4B2F171C1F14/assets/8F10CB0D277D93E7E519F15C02DB93F5.png" width="152.00" height="154.00" transform="matrix(1.00, 0.00, -0.00, -1.00, 1.6, 155.6)" opacity="0.50"></image><path d="M 129.3 132.9 C 157.8 104.0 157.8 57.1 129.3 28.2 C 100.8 -0.7 54.5 -0.7 26.0 28.2 C -2.5 57.1 -2.5 104.0 26.0 132.9 C 54.5 161.8 100.8 161.8 129.3 132.9 Z M 129.3 132.9 " fill="#0264C0"></path></g></g><g><clipPath id="clip0x7f8757dcf340"><path d="M 3.3 6.5 L 152.1 6.5 L 152.1 154.6 L 3.3 154.6 Z M 3.3 6.5 "></path></clipPath><g clip-path="url(#clip0x7f8757dcf340)"><text xml:space="preserve" font-family="Helvetica-Bold,Helvetica" font-weight="bold" font-size="50.0" fill="#FEFFFE" transform="matrix(1.00, 0.00, -0.00, -1.00, 63.8, 62.4)">4</text></g></g></g></svg>